# 3ds Max Wavefront OBJ Exporter v0.97b - (c)2007 guruware
# File Created: 27.06.2016 16:47:54

mtllib shandi_002_shangu001.mtl

#
# object shandi_002_shangu001
#

v  -23.0361 -8.8235 1.5268
v  -18.2421 -7.3185 3.0326
v  -24.4085 -9.3763 -9.0827
v  -53.0238 -10.4257 12.1159
v  -48.4805 -10.3237 13.6324
v  -30.3129 -9.4747 -13.6288
v  -21.4647 -8.4517 12.1308
v  -16.7223 -6.9084 9.0930
v  -45.4516 -10.2624 15.1484
v  -24.4108 -9.4767 -1.5083
v  -56.0544 -10.3466 -0.0042
v  -57.5670 -10.5276 10.5993
v  -66.6058 -7.4633 9.0855
v  -57.6780 -10.5107 9.0970
v  -62.2017 -9.0488 1.5223
v  -13.6032 -5.7172 -7.5770
v  -2.6512 -2.3103 -1.5295
v  -2.7269 -2.2615 -7.5872
v  -27.2838 -9.4335 -10.5980
v  0.4552 -1.4325 7.5585
v  0.4024 -1.2673 -7.5910
v  -42.4227 -10.2012 16.6643
v  -45.4514 -10.2825 16.6632
v  -56.0549 -10.3065 -3.0340
v  -54.5412 -10.2056 -7.5781
v  -31.8275 -9.4953 -15.1442
v  -46.9711 -9.9020 -15.1494
v  -54.5384 -10.4463 10.6004
v  -36.3652 -10.0585 18.1814
v  -33.3365 -9.9772 18.1825
v  -15.1577 -6.3203 1.5154
v  -40.9083 -10.2006 19.6950
v  -12.0461 -5.4045 7.5729
v  -42.4225 -10.2212 18.1792
v  -40.9082 -10.1805 18.1797
v  -54.5408 -10.2458 -4.5483
v  -16.7266 -6.7096 -7.5735
v  -16.7711 -6.7055 -9.0870
v  -28.7940 -9.8151 15.1544
v  -24.4153 -9.6774 13.6404
v  -31.8224 -9.9165 16.6681
v  -27.2840 -9.3934 -13.6280
v  -54.5381 -10.4664 12.1153
v  -57.7095 -10.4113 1.5278
v  -48.4804 -10.3438 15.1473
v  -13.6244 -5.9242 9.0905
v  -2.8623 -2.2864 -9.0973
v  -12.0697 -5.2117 -9.0929
v  -25.7753 -9.7342 15.1663
v  -24.2525 -9.3521 -10.5997
v  -30.3200 -9.4550 -15.1363
v  -37.8792 -10.1193 19.6957
v  -53.0235 -10.4457 13.6307
v  -19.8995 -7.9544 12.1289
v  -23.0377 -8.9697 13.6481
v  -66.6035 -7.4596 1.5080
v  -68.0654 -6.8093 1.5125
v  -68.1322 -7.0154 10.6002
# 58 vertices

vn -0.4035 0.9148 0.0195
vn -0.3047 0.9524 0.0081
vn -0.1284 0.9917 0.0103
vn -0.0268 0.9996 0.0132
vn -0.3541 0.9352 -0.0016
vn -0.3028 0.9530 0.0115
vn -0.2441 0.9697 0.0141
vn 0.3192 0.9476 0.0104
vn 0.0883 0.9961 0.0080
vn 0.3180 0.9481 0.0002
vn -0.3198 0.9474 0.0102
vn -0.3301 0.9439 0.0122
vn -0.1773 0.9841 -0.0077
vn 0.1031 0.9946 0.0126
vn -0.4498 0.8774 -0.1668
vn 0.3732 0.9277 0.0006
vn 0.3931 0.9195 0.0036
vn 0.3032 0.9526 0.0238
# 18 vertex normals

vt 0.2424 0.5051 0.0000
vt 0.2121 0.5152 0.0000
vt 0.2525 0.4343 0.0000
vt 0.4444 0.5758 0.0000
vt 0.4141 0.5859 0.0000
vt 0.2929 0.4040 0.0000
vt 0.2323 0.5758 0.0000
vt 0.2020 0.5556 0.0000
vt 0.3939 0.5960 0.0000
vt 0.2525 0.4848 0.0000
vt 0.4646 0.4949 0.0000
vt 0.4747 0.5657 0.0000
vt 0.5354 0.5556 0.0000
vt 0.4747 0.5556 0.0000
vt 0.5051 0.5051 0.0000
vt 0.1818 0.4444 0.0000
vt 0.1111 0.4848 0.0000
vt 0.1111 0.4444 0.0000
vt 0.2727 0.4242 0.0000
vt 0.0909 0.5455 0.0000
vt 0.0909 0.4444 0.0000
vt 0.3737 0.6061 0.0000
vt 0.3939 0.6061 0.0000
vt 0.4646 0.4747 0.0000
vt 0.4545 0.4444 0.0000
vt 0.3030 0.3939 0.0000
vt 0.4040 0.3939 0.0000
vt 0.4545 0.5657 0.0000
vt 0.3333 0.6162 0.0000
vt 0.3131 0.6162 0.0000
vt 0.1919 0.5051 0.0000
vt 0.3636 0.6263 0.0000
vt 0.1717 0.5455 0.0000
vt 0.3737 0.6162 0.0000
vt 0.3636 0.6162 0.0000
vt 0.4545 0.4646 0.0000
vt 0.2020 0.4444 0.0000
vt 0.2020 0.4343 0.0000
vt 0.2828 0.5960 0.0000
vt 0.2525 0.5859 0.0000
vt 0.3030 0.6061 0.0000
vt 0.2727 0.4040 0.0000
vt 0.4545 0.5758 0.0000
vt 0.4747 0.5051 0.0000
vt 0.4141 0.5960 0.0000
vt 0.1818 0.5556 0.0000
vt 0.1111 0.4343 0.0000
vt 0.1717 0.4343 0.0000
vt 0.2626 0.5960 0.0000
vt 0.2525 0.4242 0.0000
vt 0.2929 0.3939 0.0000
vt 0.3434 0.6263 0.0000
vt 0.4444 0.5859 0.0000
vt 0.2222 0.5758 0.0000
vt 0.2424 0.5859 0.0000
vt 0.5355 0.5050 0.0000
vt 0.5455 0.5050 0.0000
vt 0.5455 0.5657 0.0000
# 58 texture coords

g shandi_002_shangu001
usemtl _T2Mshandi_002_shangudefault
s 1
f 1/1/1 2/2/2 3/3/3 
f 4/4/4 5/5/4 6/6/4 
f 7/7/5 8/8/6 2/2/2 
f 6/6/4 9/9/4 10/10/7 
f 11/11/4 12/12/4 6/6/4 
f 13/13/8 14/14/9 15/15/10 
f 16/16/6 17/17/6 18/18/6 
f 6/6/4 10/10/7 19/19/4 
f 20/20/6 21/21/6 17/17/6 
f 22/22/4 10/10/7 23/23/4 
f 11/11/4 6/6/4 24/24/4 
f 25/25/4 26/26/4 27/27/4 
f 28/28/4 6/6/4 12/12/4 
f 29/29/4 30/30/4 10/10/7 
f 10/10/7 3/3/3 19/19/4 
f 5/5/4 9/9/4 6/6/4 
f 2/2/2 31/31/6 16/16/6 
f 29/29/4 10/10/7 32/32/4 
f 18/18/6 17/17/6 21/21/6 
f 7/7/5 2/2/2 1/1/1 
f 31/31/6 33/33/6 16/16/6 
f 34/34/4 35/35/4 10/10/7 
f 36/36/4 6/6/4 25/25/4 
f 3/3/3 37/37/11 38/38/12 
f 39/39/4 40/40/13 10/10/7 
f 40/40/13 7/7/5 10/10/7 
f 41/41/4 39/39/4 10/10/7 
f 6/6/4 26/26/4 25/25/4 
f 6/6/4 19/19/4 42/42/4 
f 43/43/4 4/4/4 6/6/4 
f 11/11/4 44/44/14 14/14/9 12/12/4 
f 45/45/4 9/9/4 5/5/4 
f 46/46/6 33/33/6 8/8/6 
f 18/18/6 47/47/6 48/48/6 
f 14/14/9 44/44/14 15/15/10 
f 39/39/4 49/49/4 40/40/13 
f 37/37/11 2/2/2 16/16/6 
f 3/3/3 2/2/2 37/37/11 
f 30/30/4 41/41/4 10/10/7 
f 16/16/6 18/18/6 48/48/6 
f 19/19/4 3/3/3 50/50/4 
f 10/10/7 7/7/5 1/1/1 
f 10/10/7 1/1/1 3/3/3 
f 33/33/6 17/17/6 16/16/6 
f 17/17/6 33/33/6 20/20/6 
f 6/6/4 51/51/4 26/26/4 
f 52/52/4 29/29/4 32/32/4 
f 23/23/4 10/10/7 9/9/4 
f 32/32/4 10/10/7 35/35/4 
f 24/24/4 6/6/4 36/36/4 
f 53/53/4 5/5/4 4/4/4 
f 43/43/4 6/6/4 28/28/4 
f 34/34/4 10/10/7 22/22/4 
f 8/8/6 31/31/6 2/2/2 
f 8/8/6 33/33/6 31/31/6 
f 54/54/6 8/8/6 7/7/5 
f 40/40/13 55/55/15 7/7/5 
f 13/13/8 15/15/10 56/56/16 
f 13/13/8 56/56/16 57/57/17 58/58/18 
# 2 polygons - 57 triangles

