# 3ds Max Wavefront OBJ Exporter v0.97b - (c)2007 guruware
# File Created: 27.06.2016 16:44:18

mtllib shandi_002_shangu002.mtl

#
# object shandi_002_shangu002
#

v  -92.4019 -7.8910 19.6788
v  -75.7630 -6.8864 -4.5410
v  -90.9002 -7.4072 -0.0073
v  -68.0654 -6.8093 1.5125
v  -71.2173 -6.8967 1.5193
v  -68.1322 -7.0154 10.6002
v  -121.2081 -5.7732 -12.1162
v  -115.1609 -6.3502 3.0187
v  -101.5105 -5.7476 -28.7821
v  -90.8870 -7.8832 21.1941
v  -77.2582 -7.6082 25.7458
v  -74.2481 -6.8785 -3.0257
v  -95.4840 -6.4554 -9.0988
v  -95.4643 -6.1936 -18.1825
v  -93.9459 -6.4204 -10.6071
v  -87.8549 -6.8243 -12.1253
v  -77.2779 -6.8942 -6.0564
v  -77.2808 -6.7922 -10.5995
v  -86.3628 -7.1115 -7.5764
v  -98.4818 -5.8176 -28.7841
v  -87.8599 -6.8412 -10.6050
v  -113.6273 -5.5549 -25.7462
v  -110.5934 -5.5377 -28.7721
v  -122.7152 -5.5198 -19.6820
v  -131.8181 -6.8263 -19.6970
v  -131.8181 -6.8263 -12.1212
v  -75.7451 -7.5323 24.2323
v  -100.0185 -6.7439 4.5225
v  -96.9857 -6.6391 -1.5351
v  -96.9726 -6.0711 -21.2157
v  -96.9656 -5.8965 -27.2676
v  -77.2855 -6.6222 -18.1715
v  -78.7995 -6.6641 -18.1724
v  -119.6998 -6.0704 -3.0339
v  -92.4455 -7.4845 1.5324
v  -90.8851 -7.9512 24.2229
v  -89.3701 -7.9433 25.7383
v  -66.6631 -7.2131 21.2092
v  -66.6639 -7.0429 13.6341
v  -84.8564 -6.7977 -19.6906
v  -80.3144 -6.6720 -19.6877
v  -86.3610 -7.1795 -4.5476
v  -106.0536 -5.6426 -28.7791
v  -68.1818 -7.0849 13.6363
v  -115.1498 -6.3946 4.5477
v  -118.1875 -6.1928 -0.0071
v  -77.2845 -6.6562 -16.6571
v  -69.6892 -7.3648 24.2361
v  -95.4580 -6.6312 -3.0346
v  -71.2201 -6.7947 -3.0238
v  -118.1732 -5.4935 -24.2316
v  -98.4828 -5.8613 -27.2702
v  -118.1859 -6.2804 3.0253
v  -78.8004 -6.6301 -19.6868
v  -121.2121 -6.0355 -3.0302
v  -75.7736 -6.7166 -12.1082
v  -75.7705 -6.6144 -16.6561
v  -83.3433 -6.7218 -21.2040
v  -96.9841 -6.7268 1.4973
v  -90.8847 -7.9852 25.7378
v  -87.8846 -7.1538 -7.5711
v  -92.4109 -7.9255 21.2013
v  -80.3099 -6.6378 -21.2065
v  -104.5353 -5.6340 -30.2904
v  -119.7018 -6.1578 -0.0061
v  -75.7610 -6.8522 -6.0578
v  -95.4544 -6.1063 -21.2120
v  -101.5106 -5.7038 -30.2973
v  -74.2494 -6.8445 -4.5398
v  -87.8639 -6.7548 -18.1832
# 70 vertices

vn -0.0277 0.9994 0.0225
vn -0.0195 0.9993 0.0304
vn 0.0231 0.9993 0.0289
vn 0.0196 0.9994 0.0289
vn 0.0366 0.9990 0.0244
vn 0.0346 0.9991 0.0227
vn 0.0764 0.9968 0.0216
vn -0.0118 0.9990 0.0424
vn 0.1086 0.9939 0.0205
vn -0.0512 0.9977 0.0436
vn -0.1158 0.9930 0.0242
vn -0.0988 0.9951 -0.0000
vn -0.0096 0.9997 0.0211
vn -0.0272 0.9944 0.1022
vn 0.0434 0.9990 0.0114
# 15 vertex normals

vt 0.7071 0.6263 0.0000
vt 0.5960 0.4646 0.0000
vt 0.6970 0.4949 0.0000
vt 0.5455 0.5050 0.0000
vt 0.5657 0.5051 0.0000
vt 0.5455 0.5657 0.0000
vt 0.8990 0.4141 0.0000
vt 0.8586 0.5152 0.0000
vt 0.7677 0.3030 0.0000
vt 0.6970 0.6364 0.0000
vt 0.6061 0.6667 0.0000
vt 0.5859 0.4747 0.0000
vt 0.7273 0.4343 0.0000
vt 0.7273 0.3737 0.0000
vt 0.7172 0.4242 0.0000
vt 0.6768 0.4141 0.0000
vt 0.6061 0.4545 0.0000
vt 0.6061 0.4242 0.0000
vt 0.6667 0.4444 0.0000
vt 0.7475 0.3030 0.0000
vt 0.6768 0.4242 0.0000
vt 0.8485 0.3232 0.0000
vt 0.8283 0.3030 0.0000
vt 0.9091 0.3636 0.0000
vt 0.9697 0.3636 0.0000
vt 0.9697 0.4141 0.0000
vt 0.5960 0.6566 0.0000
vt 0.7576 0.5253 0.0000
vt 0.7374 0.4848 0.0000
vt 0.7374 0.3535 0.0000
vt 0.7374 0.3131 0.0000
vt 0.6061 0.3737 0.0000
vt 0.6162 0.3737 0.0000
vt 0.8889 0.4747 0.0000
vt 0.7071 0.5051 0.0000
vt 0.6970 0.6566 0.0000
vt 0.6869 0.6667 0.0000
vt 0.5354 0.6364 0.0000
vt 0.5354 0.5859 0.0000
vt 0.6566 0.3636 0.0000
vt 0.6263 0.3636 0.0000
vt 0.6667 0.4646 0.0000
vt 0.7980 0.3030 0.0000
vt 0.5455 0.5859 0.0000
vt 0.8586 0.5253 0.0000
vt 0.8788 0.4949 0.0000
vt 0.6061 0.3838 0.0000
vt 0.5556 0.6566 0.0000
vt 0.7273 0.4747 0.0000
vt 0.5657 0.4747 0.0000
vt 0.8788 0.3333 0.0000
vt 0.7475 0.3131 0.0000
vt 0.8788 0.5152 0.0000
vt 0.6162 0.3636 0.0000
vt 0.8990 0.4747 0.0000
vt 0.5960 0.4141 0.0000
vt 0.5960 0.3838 0.0000
vt 0.6465 0.3535 0.0000
vt 0.7374 0.5051 0.0000
vt 0.6970 0.6667 0.0000
vt 0.6768 0.4444 0.0000
vt 0.7071 0.6364 0.0000
vt 0.6263 0.3535 0.0000
vt 0.7879 0.2929 0.0000
vt 0.8889 0.4949 0.0000
vt 0.5960 0.4545 0.0000
vt 0.7273 0.3535 0.0000
vt 0.7677 0.2929 0.0000
vt 0.5859 0.4646 0.0000
vt 0.6768 0.3737 0.0000
# 70 texture coords

g shandi_002_shangu002
usemtl _T2Mshandi_002_shangudefault
s 1
f 1/1/1 2/2/1 3/3/1 
f 4/4/1 5/5/1 6/6/1 
f 7/7/2 8/8/3 9/9/3 
f 10/10/1 11/11/1 12/12/1 
f 13/13/4 14/14/5 8/8/3 
f 14/14/5 15/15/6 16/16/7 
f 17/17/1 18/18/1 19/19/8 
f 8/8/3 20/20/3 9/9/3 
f 15/15/6 21/21/9 16/16/7 
f 22/22/3 7/7/2 23/23/3 
f 7/7/2 24/24/10 25/25/11 26/26/12 
f 27/27/1 6/6/1 12/12/1 
f 8/8/3 28/28/3 29/29/3 
f 8/8/3 30/30/3 31/31/3 
f 19/19/8 32/32/1 33/33/1 
f 34/34/3 8/8/3 7/7/2 
f 35/35/1 1/1/1 3/3/1 
f 12/12/1 6/6/1 5/5/1 
f 36/36/1 37/37/1 11/11/1 
f 7/7/2 22/22/3 24/24/10 
f 8/8/3 29/29/3 13/13/4 
f 38/38/1 39/39/1 27/27/1 
f 40/40/13 19/19/8 41/41/1 
f 2/2/1 17/17/1 3/3/1 
f 42/42/1 17/17/1 19/19/8 
f 7/7/2 43/43/3 23/23/3 
f 27/27/1 44/44/1 6/6/1 
f 16/16/7 19/19/8 40/40/13 
f 45/45/3 28/28/3 8/8/3 
f 34/34/3 46/46/3 8/8/3 
f 19/19/8 18/18/1 47/47/1 
f 27/27/1 48/48/1 38/38/1 
f 1/1/1 10/10/1 12/12/1 
f 7/7/2 9/9/3 43/43/3 
f 29/29/3 49/49/3 13/13/4 
f 8/8/3 14/14/5 30/30/3 
f 21/21/9 19/19/8 16/16/7 
f 12/12/1 5/5/1 50/50/1 
f 24/24/10 22/22/3 51/51/3 
f 8/8/3 31/31/3 52/52/3 
f 53/53/3 8/8/3 46/46/3 
f 19/19/8 54/54/1 41/41/1 
f 3/3/1 17/17/1 42/42/1 
f 27/27/1 39/39/1 44/44/1 
f 55/55/3 34/34/3 7/7/2 
f 11/11/1 27/27/1 12/12/1 
f 1/1/1 12/12/1 2/2/1 
f 47/47/1 56/56/1 57/57/1 
f 40/40/13 41/41/1 58/58/1 
f 36/36/1 11/11/1 10/10/1 
f 28/28/3 59/59/3 29/29/3 
f 15/15/6 14/14/5 13/13/4 
s 2
f 60/60/1 37/37/1 36/36/1 
s 1
f 18/18/1 56/56/1 47/47/1 
f 61/61/14 19/19/8 21/21/9 
f 62/62/1 10/10/1 1/1/1 
f 41/41/1 63/63/1 58/58/1 
f 43/43/3 9/9/3 64/64/3 
f 65/65/3 46/46/3 34/34/3 
f 2/2/1 66/66/1 17/17/1 
f 14/14/5 67/67/3 30/30/3 
f 19/19/8 33/33/1 54/54/1 
f 8/8/3 52/52/3 20/20/3 
f 9/9/3 68/68/3 64/64/3 
f 19/19/8 47/47/1 32/32/1 
f 12/12/1 69/69/1 2/2/1 
f 16/16/7 70/70/15 14/14/5 
f 16/16/7 40/40/13 70/70/15 
# 1 polygons - 67 triangles

