# 3ds Max Wavefront OBJ Exporter v0.97b - (c)2007 guruware
# File Created: 16.07.2016 11:33:57

mtllib T2Mchengshi_002_pinminqu.mtl

#
# object default
#

v  -114.7651 0.0000 180.0000
v  -117.1812 0.0000 97.8523
v  -180.0000 0.0000 180.0000
v  -72.4832 0.0000 92.2591
v  -82.1477 0.0000 89.8219
v  -42.2819 0.0000 180.0000
v  -50.7383 1.4422 124.4295
v  -55.5705 0.2433 123.2215
v  -102.6846 0.0000 62.8188
v  -68.8591 0.0415 30.2013
v  -180.0000 0.0000 -0.0000
v  -77.3154 4.1018 70.0671
v  -101.4765 4.1018 62.8188
v  -99.0604 4.1018 84.5638
v  -100.2685 0.0000 89.8219
v  -56.7785 0.0731 106.8826
v  -78.5235 4.1018 66.4430
v  -102.0806 4.1017 83.3557
v  -102.0806 4.1020 73.6913
v  -102.6846 0.0000 71.2752
v  -102.6846 0.0000 84.5638
v  -74.8993 0.2271 86.9799
v  -76.1074 4.1018 85.7718
v  -77.3154 4.1018 85.7718
v  -77.3154 0.0000 87.3429
v  -99.0604 4.1024 89.3960
v  -79.7315 4.1018 86.9799
v  -59.1946 0.0000 103.2267
v  -70.0671 0.0042 98.3522
v  -78.5235 0.0000 62.8392
v  -72.4832 0.0000 48.3222
v  -101.4765 0.0000 62.8392
v  -76.1074 4.1018 82.1477
v  -76.1074 4.1018 76.1074
v  -100.2685 0.0641 85.7718
v  -101.4765 0.0000 85.7718
v  -77.3154 3.9824 66.4430
v  -76.1074 0.0442 66.4430
v  -77.3154 3.5783 65.2349
v  -77.3154 4.1018 67.6510
v  -101.4765 0.0000 84.5638
v  -100.2685 4.1018 83.3557
v  -100.2685 4.1018 82.1477
v  -102.0806 4.1020 62.8188
v  -5.8002 0.0000 180.0000
v  -6.0403 0.0000 137.7181
v  -27.7852 0.0129 136.1296
v  -78.5235 4.1018 85.7718
v  -79.7315 4.0980 64.0268
v  -78.5235 3.6838 64.0268
v  -78.5235 0.0000 62.8188
v  -79.7315 4.1018 65.2349
v  -77.3154 0.0000 64.0268
v  -100.2685 4.1018 84.5638
v  -74.8993 4.1018 83.3557
v  -74.8993 3.5574 76.1074
v  -74.8993 0.6988 74.8993
v  -76.1074 4.1018 74.8993
v  -82.1477 4.0988 89.3960
v  -76.1074 3.6276 67.6510
v  -74.8993 0.0000 66.4430
v  -79.7315 4.1020 62.8188
v  -78.5235 4.1018 65.2349
v  -78.5235 3.7925 86.9799
v  -74.8993 3.6322 85.7718
v  -44.6980 7.3641 90.6040
v  -53.1544 2.1679 99.0604
v  -42.2819 8.3533 103.8926
v  -39.8658 2.3205 130.4698
v  -27.7852 2.5320 131.6779
v  -26.5772 8.3526 128.0537
v  -13.2886 7.3437 130.4698
v  -8.4564 9.4265 129.2617
v  -70.0671 0.6938 72.4832
v  -62.8188 4.2269 57.9866
v  -68.8591 1.0543 56.7785
v  -67.6510 0.2806 83.3557
v  -62.8188 3.5650 77.3154
v  -50.7383 2.7936 118.3893
v  -48.3222 4.5965 109.9329
v  -54.3624 0.6230 107.5168
v  -66.4430 0.8428 94.2282
v  -72.4832 0.0763 76.1074
v  -41.0738 0.6185 132.8859
v  -21.7450 10.4161 107.5168
v  -31.4094 7.8437 77.3154
v  -57.9866 4.9546 84.5638
v  -60.4027 4.6501 80.9396
v  -44.6980 6.8027 77.3154
v  -73.6913 0.0071 73.6913
v  -55.5705 3.0181 35.0336
v  -66.4430 0.1466 10.8725
v  -72.4832 0.2695 85.7718
v  -6.0403 10.7235 124.4295
v  -24.1611 9.6867 126.8456
v  -44.6980 8.5208 115.9732
v  -39.8658 9.3173 113.5570
v  -67.6510 0.8518 41.0738
v  -61.6107 3.6102 50.7383
v  -62.8188 4.3315 72.4832
v  -6.0403 2.7024 22.9530
v  -6.0084 0.5270 -0.0000
v  -19.3289 3.0503 22.9530
v  -72.4832 0.2428 82.1477
v  -56.7785 0.4037 101.4765
v  -42.2819 5.9507 56.7785
v  -54.3624 5.2840 76.1074
v  -56.7785 4.5583 67.6510
v  -21.7450 2.6843 132.8859
v  -60.4027 0.0218 -0.0000
v  -43.4899 2.7504 30.2013
v  -45.9060 0.1648 -0.0000
v  -47.1141 5.8317 119.5973
v  -41.0738 5.7655 126.8456
v  -37.4497 8.3504 126.8456
v  -35.0336 9.1792 126.8456
v  -6.0403 4.6643 131.6779
v  -6.0403 8.7832 129.2617
v  -6.0403 9.7860 100.2685
v  -14.4966 6.9729 65.2349
v  -36.2416 4.7968 47.1141
v  -6.0403 6.4742 59.1946
v  -6.0403 5.2987 48.3222
v  -20.5369 5.5495 50.7383
# 124 vertices

vn -0.0008 1.0000 0.0005
vn 0.0000 1.0000 -0.0000
vn -0.0686 0.9975 0.0174
vn 0.1926 0.9346 0.2990
vn 0.0014 1.0000 0.0057
vn -0.3361 0.9173 0.2137
vn -0.1621 0.9857 0.0456
vn -0.0001 1.0000 0.0004
vn -0.1086 0.9940 -0.0158
vn -0.0004 1.0000 0.0000
vn 0.1269 0.9916 -0.0245
vn 0.0001 1.0000 -0.0000
vn -0.0000 1.0000 -0.0001
vn -0.0033 1.0000 0.0010
vn -0.1603 0.9869 0.0202
vn 0.0770 0.9956 -0.0525
vn -0.9893 0.1457 0.0000
vn -0.9893 0.1457 -0.0000
vn 0.2460 0.3300 0.9114
vn 0.0431 0.3096 0.9499
vn 0.3088 0.3162 0.8970
vn 0.1946 0.7790 0.5960
vn -0.0000 1.0000 0.0001
vn 0.0502 0.9975 0.0504
vn -0.0550 0.9966 0.0607
vn -0.0409 0.9984 0.0401
vn -0.1073 0.9942 -0.0122
vn 0.0398 0.9989 -0.0257
vn 0.1397 0.9902 -0.0000
vn -0.0530 0.9985 0.0158
vn -0.0144 0.9999 0.0043
vn -0.9585 0.2850 0.0021
vn -0.9593 0.2825 -0.0000
vn -0.9576 0.2879 0.0046
vn 0.9544 0.2928 -0.0586
vn 0.9247 0.2020 -0.3226
vn 0.9449 0.2513 -0.2098
vn 0.1402 0.9900 -0.0166
vn -0.0000 0.2825 0.9593
vn 0.0000 0.2825 0.9593
vn -0.0000 1.0000 0.0000
vn 0.0003 1.0000 -0.0000
vn 0.0001 1.0000 0.0000
vn -0.0221 0.9509 0.3088
vn -0.0322 0.9662 0.2558
vn 0.0315 0.9951 0.0938
vn 0.1062 0.3098 -0.9448
vn 0.6584 0.3650 -0.6583
vn 0.6075 0.2475 -0.7548
vn 0.0422 0.9982 -0.0436
vn 0.1096 0.9940 -0.0010
vn 0.7547 0.2475 -0.6076
vn 0.0753 0.9971 0.0096
vn 0.3708 0.9287 -0.0096
vn 0.8228 0.5493 -0.1461
vn 0.9429 0.3329 -0.0127
vn 0.7761 0.4369 -0.4547
vn 0.1728 0.3834 -0.9073
vn 0.0002 1.0000 0.0015
vn 0.0029 -0.0046 -1.0000
vn -0.0000 -0.0050 -1.0000
vn 0.0154 -0.0027 -0.9999
vn 0.0169 -0.0025 -0.9999
vn 0.1091 0.3176 -0.9419
vn 0.0117 0.3194 -0.9475
vn 0.0285 0.3193 -0.9472
vn -0.0130 0.2866 0.9580
vn 0.0000 0.2866 0.9580
vn -0.0023 0.2866 0.9580
vn 0.0204 0.9998 -0.0051
vn 0.3317 0.9432 -0.0193
vn 0.1244 0.3170 -0.9402
vn -0.9593 -0.2825 -0.0000
vn 0.1666 0.9713 -0.1695
vn 0.9447 0.3098 -0.1072
vn -0.0421 0.9972 0.0621
vn 0.0000 0.9987 0.0507
vn 0.1306 0.9893 0.0653
vn 0.0962 0.9730 -0.2096
vn 0.2512 0.9542 -0.1623
vn 0.1373 0.3168 -0.9385
vn -0.0000 1.0000 -0.0000
vn -0.0152 0.2866 0.9579
vn -0.0000 1.0000 0.0033
vn 0.9593 0.2825 0.0009
vn 0.1605 0.9562 0.2448
vn 0.3565 0.9171 0.1783
vn 0.1367 0.9842 -0.1124
vn 0.3321 0.3971 0.8556
vn 0.7052 0.0733 0.7053
vn 0.2330 0.9724 -0.0136
vn 0.9464 0.3222 -0.0211
vn 0.9556 0.2931 -0.0290
vn -0.2127 0.9768 0.0235
vn -0.3899 0.9075 0.1564
vn -0.3011 0.9527 -0.0414
vn 0.0040 0.7341 0.6790
vn -0.1186 0.7200 0.6838
vn -0.0799 0.6341 0.7691
vn -0.0351 0.5483 0.8355
vn 0.0759 0.7479 0.6594
vn -0.3057 0.9513 0.0403
vn -0.2770 0.9590 -0.0597
vn -0.3519 0.9355 -0.0312
vn -0.2286 0.9733 0.0217
vn -0.3618 0.9289 0.0786
vn -0.5494 0.8325 0.0719
vn -0.5887 0.8081 -0.0214
vn -0.3662 0.9305 0.0087
vn -0.1653 0.9798 0.1129
vn -0.0795 0.9967 0.0174
vn -0.0405 0.9613 0.2725
vn -0.0341 0.9989 -0.0332
vn -0.0423 0.9968 -0.0685
vn -0.2616 0.9587 0.1118
vn -0.3264 0.9442 0.0440
vn -0.1158 0.9922 -0.0467
vn 0.0928 0.9955 -0.0196
vn -0.0838 0.9943 -0.0655
vn -0.0406 0.9988 -0.0262
vn 0.4219 0.3031 0.8545
vn 0.2090 0.3270 0.9216
vn 0.0180 0.9909 0.1331
vn -0.0656 0.9294 0.3633
vn -0.4388 0.8964 0.0627
vn -0.1189 0.9929 -0.0029
vn -0.2426 0.9681 -0.0635
vn -0.2177 0.9713 -0.0955
vn -0.2800 0.9586 0.0511
vn 0.0260 0.9948 -0.0980
vn 0.0026 0.9942 -0.1078
vn -0.0059 0.9951 -0.0982
vn 0.8508 0.5248 -0.0278
vn 0.9042 0.4033 -0.1404
vn 0.8886 0.4450 -0.1112
vn 0.8524 0.5215 0.0390
vn -0.2398 0.9607 0.1400
vn -0.0620 0.9934 -0.0970
vn -0.1458 0.9883 -0.0453
vn -0.0876 0.9959 -0.0238
vn -0.0911 0.7213 0.6866
vn -0.0262 0.9985 -0.0489
vn -0.0365 0.9954 -0.0884
vn -0.0164 0.9957 -0.0908
vn 1.0000 -0.0000 0.0000
vn -0.5668 0.7854 0.2490
vn -0.4479 0.7004 0.5558
vn -0.3286 0.7901 0.5175
vn -0.1451 0.8597 0.4897
vn -0.0023 0.6400 0.7684
vn 0.1483 0.7049 0.6936
vn 0.0075 0.9977 -0.0668
vn -0.0059 0.9961 -0.0879
vn -0.0395 0.9926 -0.1148
vn 0.0146 0.9990 0.0415
vn 0.8403 0.5392 0.0560
vn 0.9990 0.0454 -0.0013
vn -0.0122 0.9950 -0.0993
vn 0.0025 0.9953 -0.0966
vn -0.0093 0.9954 -0.0949
vn -0.5725 0.3192 -0.7552
vn 0.8121 0.5835 -0.0043
vn 0.8832 0.1500 -0.4443
vn 0.0000 -1.0000 -0.0000
vn 0.0366 0.9987 -0.0366
vn 0.4503 0.3411 0.8251
# 166 vertex normals

vt 0.6376 1.0000 0.0000
vt 0.6510 0.5436 0.0000
vt 1.0000 1.0000 0.0000
vt 0.4027 0.5168 0.0000
vt 0.4564 0.5034 0.0000
vt 0.2349 1.0000 0.0000
vt 0.2819 0.6913 0.0000
vt 0.3087 0.6846 0.0000
vt 0.5705 0.3490 0.0000
vt 0.3826 0.1678 0.0000
vt 1.0000 0.0000 0.0000
vt 0.4295 0.3893 0.0000
vt 0.5638 0.3490 0.0000
vt 0.5503 0.4698 0.0000
vt 0.5570 0.5034 0.0000
vt 0.3154 0.5973 0.0000
vt 0.4362 0.3691 0.0000
vt 0.5671 0.4631 0.0000
vt 0.5671 0.4094 0.0000
vt 0.5705 0.3960 0.0000
vt 0.5705 0.4698 0.0000
vt 0.4161 0.4832 0.0000
vt 0.4228 0.4765 0.0000
vt 0.4295 0.4765 0.0000
vt 0.4295 0.4899 0.0000
vt 0.5503 0.4966 0.0000
vt 0.4430 0.4832 0.0000
vt 0.3289 0.5772 0.0000
vt 0.3893 0.5503 0.0000
vt 0.4362 0.3423 0.0000
vt 0.4027 0.2685 0.0000
vt 0.5638 0.3423 0.0000
vt 0.4228 0.4564 0.0000
vt 0.4228 0.4228 0.0000
vt 0.5570 0.4765 0.0000
vt 0.5638 0.4765 0.0000
vt 0.4295 0.3691 0.0000
vt 0.4228 0.3691 0.0000
vt 0.4295 0.3624 0.0000
vt 0.4295 0.3758 0.0000
vt 0.5638 0.4698 0.0000
vt 0.5570 0.4631 0.0000
vt 0.5570 0.4564 0.0000
vt 0.5671 0.3490 0.0000
vt 0.0322 1.0000 0.0000
vt 0.0336 0.7651 0.0000
vt 0.1544 0.7584 0.0000
vt 0.4362 0.4765 0.0000
vt 0.4430 0.3557 0.0000
vt 0.4362 0.3557 0.0000
vt 0.4362 0.3490 0.0000
vt 0.4430 0.3624 0.0000
vt 0.4295 0.3557 0.0000
vt 0.5570 0.4698 0.0000
vt 0.4161 0.4631 0.0000
vt 0.4161 0.4228 0.0000
vt 0.4161 0.4161 0.0000
vt 0.4228 0.4161 0.0000
vt 0.4564 0.4966 0.0000
vt 0.4228 0.3758 0.0000
vt 0.4161 0.3691 0.0000
vt 0.4430 0.3490 0.0000
vt 0.4362 0.3624 0.0000
vt 0.4362 0.4832 0.0000
vt 0.4161 0.4765 0.0000
vt 0.2483 0.5034 0.0000
vt 0.2953 0.5503 0.0000
vt 0.2349 0.5772 0.0000
vt 0.2215 0.7248 0.0000
vt 0.1544 0.7315 0.0000
vt 0.1477 0.7114 0.0000
vt 0.0738 0.7248 0.0000
vt 0.0470 0.7181 0.0000
vt 0.3893 0.4027 0.0000
vt 0.3490 0.3221 0.0000
vt 0.3826 0.3154 0.0000
vt 0.3758 0.4631 0.0000
vt 0.3490 0.4295 0.0000
vt 0.2819 0.6577 0.0000
vt 0.2685 0.6107 0.0000
vt 0.3020 0.5973 0.0000
vt 0.3691 0.5235 0.0000
vt 0.4027 0.4228 0.0000
vt 0.2282 0.7383 0.0000
vt 0.1208 0.5973 0.0000
vt 0.1745 0.4295 0.0000
vt 0.3221 0.4698 0.0000
vt 0.3356 0.4497 0.0000
vt 0.2483 0.4295 0.0000
vt 0.4094 0.4094 0.0000
vt 0.3087 0.1946 0.0000
vt 0.3691 0.0604 0.0000
vt 0.4027 0.4765 0.0000
vt 0.0336 0.6913 0.0000
vt 0.1342 0.7047 0.0000
vt 0.2483 0.6443 0.0000
vt 0.2215 0.6309 0.0000
vt 0.3758 0.2282 0.0000
vt 0.3423 0.2819 0.0000
vt 0.3490 0.4027 0.0000
vt 0.0336 0.1275 0.0000
vt 0.0334 0.0000 0.0000
vt 0.1074 0.1275 0.0000
vt 0.4027 0.4564 0.0000
vt 0.3154 0.5638 0.0000
vt 0.2349 0.3154 0.0000
vt 0.3020 0.4228 0.0000
vt 0.3154 0.3758 0.0000
vt 0.1208 0.7383 0.0000
vt 0.3356 0.0000 0.0000
vt 0.2416 0.1678 0.0000
vt 0.2550 0.0000 0.0000
vt 0.2617 0.6644 0.0000
vt 0.2282 0.7047 0.0000
vt 0.2081 0.7047 0.0000
vt 0.4339 0.3433 0.0000
vt 0.1946 0.7047 0.0000
vt 0.0336 0.7315 0.0000
vt 0.0336 0.7181 0.0000
vt 0.0336 0.5570 0.0000
vt 0.0805 0.3624 0.0000
vt 0.2013 0.2617 0.0000
vt 0.0336 0.3289 0.0000
vt 0.0336 0.2685 0.0000
vt 0.1141 0.2819 0.0000
# 125 texture coords

g default
usemtl _T2Mchengshi_002_pinminqudefault
s 1
f 1/1/1 2/2/2 3/3/2 
f 1/1/1 4/4/3 5/5/4 
f 6/6/5 7/7/6 8/8/7 1/1/1 
f 9/9/8 10/10/9 11/11/10 
s 2
f 12/12/11 13/13/12 14/14/13 
s 1
f 1/1/1 5/5/4 15/15/14 
f 1/1/1 8/8/7 16/16/15 
s 2
f 12/12/11 17/17/16 13/13/12 
s 4
f 18/18/17 19/19/17 20/20/17 21/21/18 
f 22/22/19 23/23/20 24/24/21 25/25/22 
s 2
f 26/26/23 27/27/24 12/12/11 
s 1
f 1/1/1 28/28/25 29/29/26 
s 2
f 26/26/23 12/12/11 14/14/13 
s 1
f 30/30/2 31/31/27 32/32/2 
s 2
f 27/27/24 33/33/28 34/34/29 
s 1
f 15/15/14 35/35/30 36/36/31 2/2/2 1/1/1 
s 4
f 15/15/32 26/26/33 14/14/32 35/35/34 
f 37/37/35 38/38/36 39/39/37 
s 2
f 12/12/11 40/40/38 17/17/16 
s 8
f 41/41/39 42/42/39 18/18/39 21/21/40 
s 2
f 43/43/41 13/13/12 44/44/42 19/19/43 18/18/41 
s 1
f 2/2/2 9/9/8 11/11/10 
s 4
f 20/20/17 19/19/17 44/44/18 9/9/18 
s 1
f 6/6/5 45/45/2 46/46/44 47/47/45 
s 2
f 27/27/24 48/48/46 33/33/28 
s 8
f 49/49/47 50/50/48 51/51/49 
s 2
f 13/13/12 52/52/50 49/49/51 
s 1
f 1/1/1 29/29/26 4/4/3 
s 8
f 50/50/48 53/53/52 51/51/49 
s 4
f 54/54/33 42/42/33 41/41/33 36/36/33 
s 2
f 33/33/28 55/55/53 56/56/54 34/34/29 
s 1
f 57/57/55 58/58/56 34/34/57 56/56/58 
s 2
f 26/26/23 59/59/59 27/27/24 
s 8
f 44/44/60 13/13/61 32/32/62 
f 9/9/63 44/44/60 32/32/62 
f 60/60/64 61/61/65 38/38/66 
s 2
f 43/43/41 14/14/13 13/13/12 
s 8
f 35/35/67 14/14/68 54/54/69 
s 2
f 12/12/11 58/58/70 60/60/71 40/40/38 
s 8
f 40/40/72 60/60/64 38/38/66 
s 4
f 62/62/73 51/51/73 30/30/73 
s 2
f 27/27/24 34/34/29 12/12/11 
f 52/52/50 50/50/74 49/49/51 
s 8
f 63/63/75 53/53/52 50/50/48 
s 1
f 25/25/22 4/4/3 22/22/76 
s 2
f 24/24/77 23/23/78 33/33/28 
f 17/17/16 37/37/79 39/39/80 
s 16
f 63/63/81 39/39/81 53/53/81 
s 2
f 54/54/2 14/14/13 42/42/82 
s 8
f 36/36/83 35/35/67 54/54/69 
s 2
f 13/13/12 49/49/51 62/62/84 
s 16
f 49/49/85 51/51/85 62/62/85 
s 2
f 27/27/24 64/64/86 48/48/46 
f 23/23/78 65/65/87 55/55/53 33/33/28 
f 17/17/16 52/52/50 13/13/12 
f 17/17/16 39/39/80 63/63/88 
s 5
f 5/5/4 27/27/89 59/59/90 
s 1
f 58/58/56 57/57/55 61/61/91 60/60/92 
f 1/1/1 16/16/15 28/28/25 
s 2
f 52/52/50 17/17/16 63/63/88 
f 52/52/50 63/63/88 50/50/74 
f 42/42/82 43/43/41 18/18/41 
f 17/17/16 40/40/38 37/37/79 
s 4
f 40/40/93 38/38/36 37/37/35 
s 2
f 42/42/82 14/14/13 43/43/41 
f 64/64/86 24/24/77 48/48/46 
f 48/48/46 24/24/77 33/33/28 
f 12/12/11 34/34/29 58/58/70 
s 1
f 66/66/94 67/67/95 68/68/96 
f 69/69/97 70/70/98 71/71/99 
f 72/72/100 73/73/101 71/71/99 
f 74/74/102 75/75/103 76/76/104 
f 77/77/105 78/78/106 74/74/102 
f 79/79/107 80/80/108 81/81/109 
f 4/4/3 82/82/110 83/83/111 
f 84/84/112 47/47/45 70/70/98 69/69/97 
f 68/68/96 85/85/113 86/86/114 66/66/94 
f 77/77/105 87/87/115 88/88/116 
f 87/87/115 89/89/117 88/88/116 
f 61/61/91 90/90/118 31/31/27 
f 61/61/91 57/57/55 90/90/118 
f 10/10/9 91/91/119 92/92/120 
s 4
f 22/22/19 93/93/121 65/65/122 
s 1
f 73/73/101 94/94/123 95/95/124 
f 79/79/107 96/96/125 80/80/108 
f 97/97/126 85/85/113 68/68/96 
f 98/98/127 76/76/104 99/99/128 
f 74/74/102 100/100/129 75/75/103 
f 101/101/130 102/102/131 103/103/132 
f 66/66/94 89/89/117 87/87/115 67/67/95 
s 8
f 104/104/133 90/90/134 56/56/135 55/55/136 
s 1
f 29/29/26 82/82/110 4/4/3 
f 29/29/26 28/28/25 105/105/137 82/82/110 
f 89/89/117 106/106/138 107/107/139 
f 106/106/138 108/108/140 107/107/139 
f 109/109/141 72/72/100 71/71/99 
f 16/16/15 8/8/7 79/79/107 81/81/109 
f 16/16/15 81/81/109 67/67/95 
f 110/110/142 111/111/143 112/112/144 
s 2
f 4/4/145 83/83/145 93/93/145 
s 1
f 31/31/27 98/98/127 10/10/9 
f 98/98/127 91/91/119 10/10/9 
f 91/91/119 99/99/128 111/111/143 
f 94/94/123 85/85/113 95/95/124 
f 113/113/146 114/114/147 115/115/148 96/96/125 
f 61/61/91 31/31/27 30/116/2 
f 16/16/15 67/67/95 105/105/137 
f 96/96/125 97/97/126 68/68/96 80/80/108 
f 69/69/97 71/71/99 116/117/149 
f 117/118/150 118/119/151 72/72/100 
f 94/94/123 119/120/152 85/85/113 
f 84/84/112 69/69/97 114/114/147 7/7/6 
f 86/86/114 85/85/113 119/120/152 120/121/153 
f 121/122/154 111/111/143 99/99/128 
f 105/105/137 67/67/95 87/87/115 
f 83/83/111 77/77/105 74/74/102 
f 90/90/118 74/74/102 31/31/27 
f 106/106/138 121/122/154 99/99/128 75/75/103 
f 76/76/104 75/75/103 99/99/128 
f 74/74/102 78/78/106 100/100/129 
f 78/78/106 107/107/139 100/100/129 
f 69/69/97 116/117/149 115/115/148 
f 22/22/76 4/4/3 93/93/155 
f 31/31/27 74/74/102 76/76/104 
f 31/31/27 76/76/104 98/98/127 
f 8/8/7 7/7/6 79/79/107 
f 7/7/6 113/113/146 79/79/107 
f 82/82/110 77/77/105 83/83/111 
f 77/77/105 82/82/110 87/87/115 
f 100/100/129 108/108/140 75/75/103 
f 117/118/150 109/109/141 47/47/45 46/46/44 
f 89/89/117 107/107/139 88/88/116 
f 109/109/141 70/70/98 47/47/45 
f 70/70/98 109/109/141 71/71/99 
f 72/72/100 118/119/151 73/73/101 
f 73/73/101 118/119/151 94/94/123 
f 98/98/127 99/99/128 91/91/119 
f 100/100/129 107/107/139 108/108/140 
f 71/71/99 73/73/101 95/95/124 
f 71/71/99 95/95/124 116/117/149 
f 105/105/137 87/87/115 82/82/110 
s 8
f 65/65/156 104/104/133 55/55/136 
s 1
f 104/104/157 93/93/155 83/83/111 90/90/118 
f 83/83/111 74/74/102 90/90/118 
f 79/79/107 113/113/146 96/96/125 
f 28/28/25 16/16/15 105/105/137 
f 120/121/153 122/123/158 123/124/159 124/125/160 
f 77/77/105 88/88/116 78/78/106 
f 88/88/116 107/107/139 78/78/106 
f 69/69/97 115/115/148 114/114/147 
s 4
f 90/90/161 57/57/161 56/56/161 
s 8
f 65/65/156 93/93/162 104/104/133 
s 1
f 10/10/9 92/92/120 11/11/10 
f 11/11/10 92/92/120 110/110/142 
f 2/2/2 11/11/10 3/3/2 
f 102/102/131 112/112/144 103/103/132 
f 75/75/103 108/108/140 106/106/138 
f 121/122/154 124/125/160 103/103/132 
f 124/125/160 86/86/114 120/121/153 
f 117/118/150 72/72/100 109/109/141 
f 92/92/120 91/91/119 111/111/143 110/110/142 
f 111/111/143 121/122/154 103/103/132 112/112/144 
f 123/124/159 101/101/130 103/103/132 124/125/160 
f 119/120/152 122/123/158 120/121/153 
f 86/86/114 89/89/117 66/66/94 
f 89/89/117 86/86/114 106/106/138 
f 124/125/160 121/122/154 106/106/138 86/86/114 
f 97/97/126 116/117/149 95/95/124 85/85/113 
f 115/115/148 116/117/149 97/97/126 96/96/125 
f 67/67/95 81/81/109 80/80/108 68/68/96 
s 4
f 53/53/163 39/39/37 38/38/36 
s 1
f 61/61/91 30/116/2 51/51/164 53/53/165 38/38/165 
f 9/9/8 32/32/2 31/31/27 10/10/9 
f 2/2/2 21/21/2 20/20/2 9/9/8 
f 36/36/31 41/41/2 21/21/2 2/2/2 
f 6/6/5 47/47/45 84/84/112 
f 6/6/5 84/84/112 7/7/6 
s 4
f 25/25/22 24/24/21 64/64/166 
s 5
f 5/5/4 25/25/22 64/64/166 27/27/89 
s 4
f 22/22/19 65/65/122 23/23/20 
s 1
f 4/4/3 25/25/22 5/5/4 
f 114/114/147 113/113/146 7/7/6 
# 41 polygons - 141 triangles

