# 3ds Max Wavefront OBJ Exporter v0.97b - (c)2007 guruware
# File Created: 18.07.2016 17:00:26

mtllib T2Mchengshi_003_pinminqu_001.mtl

#
# object default
#

v  -85.9060 -0.0000 116.7785
v  -88.5906 -0.0000 130.2014
v  -5.3691 -0.0000 130.2014
v  -5.3691 0.0000 52.3490
v  -85.9060 0.0000 52.3490
v  -87.7181 4.6880 52.3490
v  -87.7181 4.6880 117.6845
# 7 vertices

vn 0.0000 1.0000 0.0000
vn 0.9327 0.3605 0.0000
# 2 vertex normals

vt 0.4295 0.5839 0.0000
vt 0.4430 0.6510 0.0000
vt 0.0268 0.6510 0.0000
vt 0.0268 0.2617 0.0000
vt 0.4295 0.2617 0.0000
vt 0.4386 0.2617 0.0000
vt 0.4386 0.5884 0.0000
# 7 texture coords

g default
usemtl _T2Mchengshi_003_pinminqudefault
s 1
f 1/1/1 2/2/1 3/3/1 4/4/1 
f 4/4/1 5/5/1 1/1/1 
s 2
f 1/1/2 5/5/2 6/6/2 7/7/2 
# 2 polygons - 1 triangles

