# 3ds Max Wavefront OBJ Exporter v0.97b - (c)2007 guruware
# File Created: 18.07.2016 12:12:36

mtllib T2Mchengshi_003_pinminqu.mtl

#
# object default
#

v  -190.6040 4.6878 52.3490
v  -190.6040 4.6878 118.1208
v  -182.5503 4.6878 118.1208
v  -87.7181 4.6880 117.6845
v  -87.7181 4.6880 52.3490
v  -85.9060 -0.0000 116.7785
v  -88.5906 -0.0000 130.2014
v  -5.3691 -0.0000 130.2014
v  -5.3691 0.0000 52.3490
v  -85.9060 0.0000 52.3490
# 10 vertices

vn -0.0000 1.0000 0.0000
vn 0.0000 1.0000 0.0000
vn 0.9327 0.3605 0.0000
# 3 vertex normals

vt 0.9530 0.2617 0.0000
vt 0.9530 0.5906 0.0000
vt 0.9128 0.5906 0.0000
vt 0.4386 0.5884 0.0000
vt 0.4386 0.2617 0.0000
vt 0.4295 0.5839 0.0000
vt 0.4430 0.6510 0.0000
vt 0.0268 0.6510 0.0000
vt 0.0268 0.2617 0.0000
vt 0.4295 0.2617 0.0000
# 10 texture coords

g default
usemtl _T2Mchengshi_003_pinminqudefault
s 1
f 1/1/1 2/2/2 3/3/1 4/4/1 5/5/1 
f 6/6/2 7/7/2 8/8/2 9/9/2 
f 9/9/2 10/10/2 6/6/2 
s 2
f 6/6/3 10/10/3 5/5/3 4/4/3 
# 3 polygons - 1 triangles

