# 3ds Max Wavefront OBJ Exporter v0.97b - (c)2007 guruware
# File Created: 28.06.2016 10:02:07

mtllib T2Mshandi_003_shangu.mtl

#
# object shandi_003_shangu
#

v  -48.6487 6.4091 33.5135
v  -46.4865 6.4091 56.2162
v  -43.2432 6.4091 54.0541
v  -70.2703 6.4091 36.7568
v  -59.4595 6.4091 21.6216
v  -16.2162 9.4097 43.2432
v  -10.8108 11.7274 37.8378
v  -20.5405 7.5840 40.0000
v  -67.0270 6.4091 52.9730
v  -67.0270 6.4091 51.8919
v  -23.7838 6.5010 50.8108
v  -23.7838 6.4091 36.7568
v  -69.1892 6.4090 44.3243
v  -69.1892 6.4061 37.8378
v  -6.4865 13.6412 43.2432
v  -5.4054 14.0084 45.4054
v  -6.4865 13.6362 36.7568
v  -34.5946 6.4091 50.8108
v  -47.5676 6.3596 20.5405
v  -52.9730 6.4091 20.5405
v  -57.2973 6.4091 56.2162
v  -55.1351 6.4091 57.2973
v  -71.3513 6.4090 36.7568
v  -70.2703 6.4090 31.3514
v  -43.2432 6.4091 22.7027
v  -62.7027 6.4090 55.1351
v  -58.3784 6.4091 55.1351
v  -69.1892 6.4091 48.6487
v  -68.1081 6.4091 45.4054
v  -22.7027 6.5006 49.7297
v  -21.6216 6.6200 49.7297
v  -19.4595 8.0542 47.5676
v  -22.7027 6.6491 37.8378
v  -55.1351 6.4090 58.3784
v  -49.7297 6.4091 58.3784
v  -68.1081 6.4091 50.8108
v  -41.0811 6.4091 24.8649
v  -37.8378 6.4091 50.8108
v  -41.0811 6.4091 52.9730
v  -12.9730 10.8707 36.7568
v  -8.6486 12.6643 37.8378
v  -9.7297 12.0065 32.4324
v  -4.3243 14.0084 32.4324
v  -5.4054 14.0084 33.5135
v  -23.7838 6.4091 31.3514
v  -37.8378 6.4091 31.3514
v  -40.0000 6.4091 30.2703
v  -40.0000 6.4090 24.8649
v  -65.9460 6.4091 54.0541
v  -62.7027 6.4091 54.0541
v  -47.5676 6.4091 57.2973
v  -44.3243 6.4091 21.6216
v  -45.4054 6.4091 20.5405
v  -11.8919 11.1295 48.6487
v  -11.8919 11.2740 45.4054
v  -70.2703 6.4090 28.1081
v  -21.6216 7.1391 35.6757
v  -19.4595 7.9710 35.6757
v  -21.6216 7.0930 32.4324
v  -23.7838 6.4561 33.5135
v  -23.7838 6.4155 32.4324
v  -58.3784 6.4091 56.2162
v  -68.1081 6.4091 44.3243
v  -61.6216 6.4091 22.7027
v  -64.8649 6.4090 22.7027
v  -42.1622 6.4091 23.7838
v  -5.4054 13.8862 32.4324
v  -68.1081 6.4091 51.8919
v  -45.4054 6.4091 19.4595
v  -70.2703 6.4091 48.6487
v  -14.0541 10.3317 37.8378
v  -10.8108 11.7789 43.2432
v  -7.5676 13.1527 32.4324
v  -65.9460 6.4091 52.9730
v  -15.1351 9.7830 49.7297
v  -48.6487 6.4091 57.2973
v  -57.2973 6.4091 57.2973
v  -4.3243 14.0084 49.7297
v  -7.5676 13.1354 49.7297
v  -6.4865 13.3675 49.7297
v  -5.4054 13.9080 48.6487
v  -16.2162 9.5310 49.7297
v  -16.2162 9.5473 46.4865
v  -19.4595 8.0230 49.7297
v  -15.1351 9.8616 46.4865
v  -18.3784 8.6570 33.5135
v  -16.2162 9.4097 37.8378
v  -17.2973 8.8638 32.4324
v  -15.1351 9.7670 32.4324
v  -69.1892 6.4091 50.8108
v  -44.3243 6.4090 20.5405
v  -42.1622 6.4090 22.7027
v  -70.2703 6.4090 37.8378
v  -41.0811 6.4090 23.7838
v  -43.2432 6.4090 21.6216
v  -37.8378 6.4091 30.2703
v  -71.3513 6.4090 32.4324
v  -22.7027 6.9055 33.5135
v  -12.9730 10.3268 49.7297
v  -8.6486 12.6588 47.5676
v  -19.4595 7.9289 32.4324
v  -10.8108 11.7343 32.4324
v  -12.9730 10.9038 32.4324
v  -45.4054 6.4091 56.2162
v  -70.2703 6.4091 47.5676
v  -60.5405 6.3928 21.6216
v  -42.1622 6.4091 54.0541
v  -40.0000 6.4090 52.9730
v  -46.4865 6.4091 19.4595
v  -16.2162 9.4528 32.4324
v  -22.7027 6.4090 32.4324
v  -58.3784 6.4090 20.5405
v  -35.6757 6.2705 50.8108
# 113 vertices

vn -0.0004 1.0000 -0.0007
vn 0.0000 1.0000 -0.0000
vn 0.0005 1.0000 0.0005
vn -0.0018 1.0000 -0.0036
vn -0.3896 0.9210 -0.0035
vn -0.3974 0.9171 0.0306
vn -0.3980 0.9174 -0.0009
vn -0.0056 1.0000 0.0026
vn -0.1400 0.9900 0.0177
vn -0.0002 1.0000 -0.0003
vn 0.0005 1.0000 0.0009
vn -0.3611 0.9325 0.0067
vn -0.1882 0.9821 0.0130
vn -0.3670 0.9302 -0.0028
vn -0.0061 0.9989 0.0455
vn -0.0047 1.0000 0.0039
vn 0.0036 1.0000 -0.0012
vn 0.0002 1.0000 0.0000
vn -0.0000 1.0000 -0.0000
vn -0.0046 1.0000 0.0000
vn 0.0000 1.0000 0.0000
vn -0.1199 0.9889 0.0875
vn -0.2073 0.8979 0.3883
vn -0.4093 0.9121 0.0229
vn -0.2987 0.9542 0.0144
vn 0.0000 0.9999 0.0163
vn -0.4060 0.9137 0.0173
vn -0.4081 0.9128 -0.0138
vn -0.3793 0.9253 0.0038
vn -0.0562 0.9968 -0.0562
vn -0.1872 0.9816 -0.0370
vn 0.0083 0.9998 -0.0205
vn 0.0001 1.0000 0.0000
vn -0.0152 0.9998 0.0152
vn -0.0191 0.9998 0.0114
vn -0.3405 0.9176 0.2052
vn -0.3897 0.9205 0.0276
vn -0.3318 0.9431 0.0212
vn -0.4079 0.9130 0.0098
vn -0.3609 0.9263 -0.1078
vn -0.1357 0.9896 -0.0485
vn 0.8931 0.4495 -0.0169
vn -0.0000 1.0000 -0.0001
vn -0.0012 1.0000 -0.0024
vn -0.2184 0.9697 -0.1096
vn -0.0161 0.9998 0.0135
vn -0.4037 0.9149 -0.0058
vn -0.4016 0.9158 0.0025
vn -0.4103 0.9116 -0.0246
vn -0.2917 0.9540 0.0699
vn -0.1844 0.9769 0.1081
vn -0.3695 0.9286 0.0350
vn -0.2208 0.9426 0.2504
vn -0.2456 0.9664 0.0762
vn -0.3315 0.9434 0.0121
vn -0.3639 0.9312 -0.0223
vn -0.4804 0.8770 0.0052
vn -0.3418 0.9398 0.0014
vn -0.4017 0.9135 -0.0650
vn -0.3902 0.9207 -0.0060
vn -0.3821 0.9216 -0.0686
vn -0.3746 0.9272 0.0029
vn 0.0001 1.0000 -0.0001
vn 0.0027 1.0000 0.0001
vn -0.3444 0.9311 -0.1203
vn -0.2631 0.8890 0.3748
vn -0.4128 0.9107 0.0155
vn -0.4225 0.9045 -0.0582
vn -0.2836 0.9577 0.0494
vn -0.4126 0.9109 0.0070
vn -0.0151 0.9994 -0.0302
vn 0.0001 1.0000 0.0001
vn 0.0000 0.9990 0.0457
vn -0.3808 0.9246 0.0074
vn -0.3366 0.8941 -0.2956
vn 0.0000 0.0000 1.0000
# 76 vertex normals

vt 0.6081 0.4189 0.0000
vt 0.5811 0.7027 0.0000
vt 0.5405 0.6757 0.0000
vt 0.8784 0.4595 0.0000
vt 0.7432 0.2703 0.0000
vt 0.2027 0.5405 0.0000
vt 0.1351 0.4730 0.0000
vt 0.2568 0.5000 0.0000
vt 0.8378 0.6622 0.0000
vt 0.8378 0.6486 0.0000
vt 0.2973 0.6351 0.0000
vt 0.2973 0.4595 0.0000
vt 0.8649 0.5541 0.0000
vt 0.8649 0.4730 0.0000
vt 0.0811 0.5405 0.0000
vt 0.0676 0.5676 0.0000
vt 0.0811 0.4595 0.0000
vt 0.4324 0.6351 0.0000
vt 0.6081 0.2703 0.0000
vt 0.6622 0.2568 0.0000
vt 0.7162 0.7027 0.0000
vt 0.6892 0.7162 0.0000
vt 0.8919 0.4595 0.0000
vt 0.8784 0.3919 0.0000
vt 0.5405 0.2838 0.0000
vt 0.7838 0.6892 0.0000
vt 0.7297 0.6892 0.0000
vt 0.8649 0.6081 0.0000
vt 0.8514 0.5676 0.0000
vt 0.2838 0.6216 0.0000
vt 0.2703 0.6216 0.0000
vt 0.2432 0.5946 0.0000
vt 0.2838 0.4730 0.0000
vt 0.6892 0.7297 0.0000
vt 0.6216 0.7297 0.0000
vt 0.8514 0.6351 0.0000
vt 0.5135 0.3108 0.0000
vt 0.4730 0.6351 0.0000
vt 0.5135 0.6622 0.0000
vt 0.1622 0.4595 0.0000
vt 0.1081 0.4730 0.0000
vt 0.1216 0.4054 0.0000
vt 0.0541 0.4054 0.0000
vt 0.0676 0.4189 0.0000
vt 0.2973 0.3919 0.0000
vt 0.4730 0.3919 0.0000
vt 0.5000 0.3784 0.0000
vt 0.5000 0.3108 0.0000
vt 0.8243 0.6757 0.0000
vt 0.7838 0.6757 0.0000
vt 0.5946 0.7162 0.0000
vt 0.5541 0.2703 0.0000
vt 0.5676 0.2568 0.0000
vt 0.1486 0.6081 0.0000
vt 0.1486 0.5676 0.0000
vt 0.8784 0.3514 0.0000
vt 0.2703 0.4459 0.0000
vt 0.2432 0.4459 0.0000
vt 0.2703 0.4054 0.0000
vt 0.2973 0.4189 0.0000
vt 0.2973 0.4054 0.0000
vt 0.7297 0.7027 0.0000
vt 0.8514 0.5541 0.0000
vt 0.7703 0.2838 0.0000
vt 0.8108 0.2838 0.0000
vt 0.5270 0.2973 0.0000
vt 0.0676 0.4054 0.0000
vt 0.8514 0.6486 0.0000
vt 0.5676 0.2432 0.0000
vt 0.8784 0.6081 0.0000
vt 0.1757 0.4730 0.0000
vt 0.1351 0.5405 0.0000
vt 0.0946 0.4054 0.0000
vt 0.8243 0.6622 0.0000
vt 0.1892 0.6216 0.0000
vt 0.6081 0.7162 0.0000
vt 0.7162 0.7162 0.0000
vt 0.0541 0.6216 0.0000
vt 0.0946 0.6216 0.0000
vt 0.0811 0.6216 0.0000
vt 0.0676 0.6081 0.0000
vt 0.2027 0.6216 0.0000
vt 0.2027 0.5811 0.0000
vt 0.2432 0.6216 0.0000
vt 0.1892 0.5811 0.0000
vt 0.2297 0.4189 0.0000
vt 0.2027 0.4730 0.0000
vt 0.2162 0.4054 0.0000
vt 0.1892 0.4054 0.0000
vt 0.8649 0.6351 0.0000
vt 0.5541 0.2568 0.0000
vt 0.5270 0.2838 0.0000
vt 0.8784 0.4730 0.0000
vt 0.5135 0.2973 0.0000
vt 0.5405 0.2703 0.0000
vt 0.4730 0.3784 0.0000
vt 0.8919 0.4054 0.0000
vt 0.2838 0.4189 0.0000
vt 0.1622 0.6216 0.0000
vt 0.1081 0.5946 0.0000
vt 0.2432 0.4054 0.0000
vt 0.1351 0.4054 0.0000
vt 0.1622 0.4054 0.0000
vt 0.5676 0.7027 0.0000
vt 0.8784 0.5946 0.0000
vt 0.7568 0.2703 0.0000
vt 0.5270 0.6757 0.0000
vt 0.5000 0.6622 0.0000
vt 0.5811 0.2432 0.0000
vt 0.2027 0.4054 0.0000
vt 0.2838 0.4054 0.0000
vt 0.7297 0.2568 0.0000
vt 0.4459 0.6351 0.0000
# 113 texture coords

g shandi_003_shangu
usemtl _T2Mshandi_003_shangudefault
s 1
f 1/1/1 2/2/2 3/3/2 
f 4/4/3 1/1/1 5/5/4 
f 6/6/5 7/7/6 8/8/7 
f 9/9/2 1/1/1 10/10/2 
f 1/1/1 11/11/8 12/12/9 
f 13/13/10 1/1/1 14/14/11 
f 15/15/12 16/16/13 17/17/14 
f 18/18/15 11/11/8 1/1/1 
f 1/1/1 19/19/16 20/20/17 
f 21/21/2 22/22/18 1/1/1 
f 23/23/19 5/5/4 24/24/19 
f 1/1/1 25/25/20 19/19/16 
f 26/26/21 27/27/19 1/1/1 
f 28/28/2 1/1/1 29/29/2 
f 30/30/22 31/31/23 32/32/24 8/8/7 33/33/25 
f 34/34/21 35/35/19 1/1/1 
f 36/36/2 1/1/1 28/28/2 
f 1/1/1 20/20/17 5/5/4 
f 1/1/1 37/37/21 25/25/20 
f 38/38/26 1/1/1 39/39/21 
f 40/40/27 41/41/28 42/42/29 
f 16/16/13 43/43/30 44/44/31 
f 1/1/1 45/45/32 46/46/2 
f 1/1/1 47/47/19 48/48/21 
f 47/47/19 1/1/1 46/46/2 
f 49/49/2 50/50/33 1/1/1 
f 14/14/11 1/1/1 4/4/3 
f 51/51/2 2/2/2 1/1/1 
f 19/19/16 52/52/34 53/53/35 
f 54/54/36 15/15/12 55/55/37 
f 24/24/19 5/5/4 56/56/19 
f 57/57/38 58/58/39 59/59/40 
f 1/1/1 12/12/9 60/60/41 
f 11/11/8 30/30/22 33/33/25 12/12/9 
f 60/60/41 61/61/42 45/45/32 1/1/1 
f 27/27/19 62/62/2 1/1/1 
f 29/29/2 1/1/1 63/63/43 
f 56/56/19 64/64/44 65/65/19 
f 25/25/20 37/37/21 66/66/2 
f 44/44/31 43/43/30 67/67/45 
f 8/8/7 58/58/39 33/33/25 
f 32/32/24 6/6/5 8/8/7 
f 68/68/2 1/1/1 36/36/2 
f 19/19/16 25/25/20 52/52/34 
f 1/1/1 3/3/2 39/39/21 
f 19/19/16 53/53/35 69/69/46 
f 28/28/2 29/29/2 70/70/2 
f 8/8/7 7/7/6 71/71/47 
f 72/72/48 15/15/12 17/17/14 
f 41/41/28 17/17/14 73/73/49 
f 22/22/18 34/34/21 1/1/1 
f 74/74/2 49/49/2 1/1/1 
f 75/75/50 54/54/36 55/55/37 
f 35/35/19 76/76/2 1/1/1 
f 5/5/4 64/64/44 56/56/19 
f 77/77/2 22/22/18 21/21/2 
f 16/16/13 78/78/51 43/43/30 
f 79/79/52 80/80/53 81/81/54 
f 82/82/55 83/83/56 84/84/57 
f 75/75/50 55/55/37 85/85/58 
f 86/86/59 87/87/60 88/88/61 
f 87/87/60 71/71/47 89/89/62 
f 4/4/3 5/5/4 23/23/19 
f 1/1/1 48/48/21 37/37/21 
f 90/90/2 36/36/2 28/28/2 
f 68/68/2 10/10/2 1/1/1 
f 52/52/34 91/91/63 53/53/35 
f 25/25/20 66/66/2 92/92/63 
f 93/93/64 14/14/11 4/4/3 
f 37/37/21 94/94/63 66/66/2 
f 25/25/20 95/95/63 52/52/34 
f 62/62/2 21/21/2 1/1/1 
f 26/26/21 1/1/1 50/50/33 
f 46/46/2 96/96/2 47/47/19 
f 9/9/2 74/74/2 1/1/1 
f 97/97/2 23/23/19 24/24/19 
f 13/13/10 63/63/43 1/1/1 
f 60/60/41 12/12/9 57/57/38 98/98/65 
f 41/41/28 73/73/49 42/42/29 
f 99/99/66 100/100/67 54/54/36 
f 99/99/66 54/54/36 75/75/50 
f 85/85/58 72/72/48 7/7/6 
f 72/72/48 17/17/14 41/41/28 
f 58/58/39 87/87/60 86/86/59 
f 86/86/59 88/88/61 101/101/68 
f 33/33/25 58/58/39 57/57/38 
f 40/40/27 102/102/69 103/103/70 
f 89/89/62 40/40/27 103/103/70 
f 2/2/2 104/104/2 3/3/2 
f 105/105/2 70/70/2 29/29/2 
f 76/76/2 51/51/2 1/1/1 
f 64/64/44 5/5/4 106/106/71 
f 3/3/2 107/107/2 39/39/21 
f 108/108/72 38/38/26 39/39/21 
f 19/19/16 69/69/46 109/109/73 
f 54/54/36 100/100/67 15/15/12 
f 100/100/67 16/16/13 15/15/12 
f 88/88/61 87/87/60 110/110/74 
f 111/111/75 61/61/42 60/60/41 98/98/65 
f 82/82/55 75/75/50 85/85/58 
f 82/82/55 85/85/58 83/83/56 
f 6/6/5 85/85/58 7/7/6 
f 38/38/26 18/18/15 1/1/1 
f 59/59/40 58/58/39 101/101/68 
f 58/58/39 86/86/59 101/101/68 
f 32/32/24 84/84/57 6/6/5 
f 84/84/57 32/32/24 31/31/23 
f 100/100/67 81/81/54 16/16/13 
f 81/81/54 78/78/51 16/16/13 
f 17/17/14 16/16/13 44/44/31 
f 17/17/14 44/44/31 73/73/49 
f 8/8/7 87/87/60 58/58/39 
f 8/8/7 71/71/47 87/87/60 
f 80/80/53 78/78/51 81/81/54 
f 73/73/49 44/44/31 67/67/45 
f 83/83/56 85/85/58 6/6/5 
f 84/84/57 83/83/56 6/6/5 
f 5/5/4 20/20/17 112/112/43 
f 98/98/65 57/57/38 59/59/40 
f 98/98/65 59/59/40 111/111/75 
f 7/7/6 41/41/28 40/40/27 
f 72/72/48 41/41/28 7/7/6 
f 12/12/9 33/33/25 57/57/38 
f 55/55/37 15/15/12 72/72/48 
f 85/85/58 55/55/37 72/72/48 
f 79/79/52 81/81/54 100/100/67 
f 99/99/66 79/79/52 100/100/67 
f 71/71/47 7/7/6 40/40/27 
f 89/89/62 71/71/47 40/40/27 
f 40/40/27 42/42/29 102/102/69 
f 87/87/60 89/89/62 110/110/74 
f 113/113/76 18/18/15 38/38/26 
# 5 polygons - 127 triangles

