# 3ds Max Wavefront OBJ Exporter v0.97b - (c)2007 guruware
# File Created: 23.06.2016 20:01:23

mtllib shandi_001_xuanya001.mtl

#
# object shandi_001_xuanya001
#

v  -55.0478 -8.7431 -10.3466
v  -42.1878 -7.3669 -16.8557
v  -45.4207 -8.2101 -20.0884
v  -77.6776 -16.6282 -49.1354
v  -84.1792 -15.6013 -36.2514
v  -76.8899 -16.1878 -46.5226
v  -22.7062 -2.2884 2.5945
v  -19.5012 -1.4514 5.8094
v  -19.5117 -2.4442 -3.8944
v  -71.1944 -11.9650 -16.8015
v  -67.9505 -11.4494 -16.7941
v  -58.3593 -11.2546 -29.7914
v  -84.1599 -14.7211 -29.7631
v  -77.7460 -14.0224 -29.8255
v  -77.7133 -14.4508 -33.0176
v  -35.6310 -4.3394 2.5974
v  -29.2212 -3.9859 -3.9024
v  -35.6952 -5.3442 -7.1407
v  -38.8856 -5.5176 -3.8815
v  -45.3165 -6.5361 -3.8598
v  -71.2281 -12.9629 -26.5202
v  -93.8306 -16.6577 -36.1955
v  -87.4082 -16.3942 -39.4798
v  -93.8570 -17.5400 -42.6927
v  -13.0495 -1.0886 -0.6637
v  -9.7545 -1.2218 -7.0880
v  -25.9229 -2.7979 2.6046
v  -32.3713 -3.8202 2.6151
v  -84.1761 -15.1630 -33.0153
v  -71.2134 -15.0408 -42.6714
v  -77.6798 -13.1960 -23.2795
v  -74.4474 -13.8924 -26.5118
v  -77.6798 -14.5110 -26.5118
v  -29.3034 -5.3250 -16.8847
v  -22.8141 -3.9633 -13.6365
v  -22.7947 -4.2891 -16.8563
v  -48.5732 -7.3847 -7.1078
v  -45.3880 -7.2124 -10.3705
v  -58.3113 -10.2535 -20.0636
v  -55.1525 -10.4172 -26.5756
v  -55.1336 -10.7431 -29.7957
v  -80.6802 -13.7867 -19.8979
v  -74.3965 -12.4712 -16.7820
v  -74.4548 -13.1445 -23.2843
v  -80.9131 -13.9233 -26.5131
v  -80.9121 -12.9890 -23.2795
v  -74.4734 -14.0924 -33.0083
v  -67.9820 -14.2472 -39.4401
v  -90.6469 -16.3148 -36.2552
v  -84.1579 -17.3453 -49.1546
v  -71.2514 -13.2986 -29.7675
v  -64.7667 -13.4524 -36.1862
v  -64.7305 -13.8856 -39.4167
v  -6.6861 0.5750 5.7359
v  -3.4388 1.0914 5.7455
v  -3.1836 -0.5021 -10.2519
v  -6.4288 -1.3481 -13.4925
v  -58.3554 -11.9140 -36.2535
v  -74.4526 -15.8365 -45.9121
v  -38.9543 -7.1838 -20.0873
v  -38.9459 -7.5120 -23.3143
v  -19.5464 -3.4424 -13.6137
v  -16.2068 -3.2354 -16.7770
v  -51.8424 -7.5758 -3.8992
v  -48.5332 -7.0456 -3.8497
v  -51.8620 -9.2309 -20.0734
v  -55.1291 -10.0819 -23.3282
v  -87.3767 -13.9760 -23.2795
v  -84.1237 -14.2736 -26.4864
v  -87.4349 -14.6518 -26.5833
v  -58.2612 -9.2518 -10.3344
v  -61.5016 -10.0968 -13.5719
v  -87.4030 -15.9553 -36.2410
v  -74.4474 -16.8359 -29.7441
v  -71.2559 -13.7401 -33.0265
v  -71.2435 -11.6458 -13.6008
v  -84.1444 -13.1771 -20.0471
v  -55.0028 -8.4028 -7.0852
v  -51.7843 -7.8929 -7.0941
v  -67.9528 -14.6766 -42.6366
v  -48.5799 -6.7259 -0.6475
v  -45.2121 -6.1825 -0.5603
v  -16.3637 -2.9405 -13.6457
v  -19.5463 -3.1122 -10.3813
v  -12.9817 -2.0638 -10.3171
v  -35.7258 -6.0113 -13.6252
v  -38.8530 -4.8501 2.6041
v  -38.8568 -5.1810 -0.6306
v  -45.2050 -5.8508 2.6766
v  -80.6554 -13.4510 -16.6497
v  -61.5124 -9.7690 -10.3465
v  -16.1110 -3.5440 -19.9476
v  -71.2003 -15.4746 -45.8876
v  -58.2665 -8.9229 -7.1054
v  -9.9056 0.0649 5.7442
v  -19.4197 -4.0742 -19.9968
v  -87.4274 -15.0871 -29.8063
v  -87.3780 -15.5109 -32.9780
v  -35.7585 -6.6789 -20.1108
v  -32.4149 -6.4711 -23.2716
v  -32.5111 -5.8324 -16.8688
v  -79.8002 -17.3006 -52.3741
v  -84.1746 -17.7873 -52.4075
v  -84.1444 -12.9246 -23.2795
v  -87.3907 -17.7017 -49.1552
v  -48.6696 -9.0570 -23.3315
v  -45.4274 -8.5418 -23.3252
v  -64.7173 -10.6060 -13.5612
v  -67.9363 -11.1160 -13.5526
v  -0.2530 1.5939 5.7156
v  0.0000 0.0000 -10.2833
v  -22.7713 -1.9729 5.7850
v  -19.3925 -4.3982 -23.2117
# 113 vertices

vn -0.1560 0.9827 -0.1004
vn -0.1086 0.9851 -0.1333
vn -0.1688 0.9791 -0.1132
vn 0.2178 0.9739 0.0637
vn -0.2007 0.9729 -0.1149
vn -0.0062 0.9964 -0.0843
vn -0.2763 0.8757 -0.3960
vn 0.1147 0.9651 -0.2355
vn -0.0105 0.9972 0.0743
vn -0.1261 0.9838 -0.1273
vn 0.0158 0.9820 -0.1882
vn 0.0748 0.9954 -0.0599
vn -0.0007 0.9829 0.1844
vn -0.3968 0.8988 -0.1864
vn -0.1446 0.9791 -0.1432
vn -0.2332 0.9674 -0.0989
vn -0.2004 0.9358 -0.2901
vn -0.1316 0.9625 -0.2374
vn -0.1072 0.9806 -0.1644
vn -0.0693 0.9976 0.0032
vn -0.2189 0.9754 -0.0253
vn 0.0934 0.9842 0.1506
vn -0.1013 0.9722 -0.2112
# 23 vertex normals

vt 0.2020 0.6263 0.0000
vt 0.1616 0.6061 0.0000
vt 0.1717 0.5960 0.0000
vt 0.2727 0.5051 0.0000
vt 0.2929 0.5455 0.0000
vt 0.2727 0.5152 0.0000
vt 0.1010 0.6667 0.0000
vt 0.0909 0.6768 0.0000
vt 0.0909 0.6465 0.0000
vt 0.2525 0.6061 0.0000
vt 0.2424 0.6061 0.0000
vt 0.2121 0.5657 0.0000
vt 0.2929 0.5657 0.0000
vt 0.2727 0.5657 0.0000
vt 0.2727 0.5556 0.0000
vt 0.1414 0.6667 0.0000
vt 0.1212 0.6465 0.0000
vt 0.1414 0.6364 0.0000
vt 0.1515 0.6465 0.0000
vt 0.1717 0.6465 0.0000
vt 0.2525 0.5758 0.0000
vt 0.3232 0.5455 0.0000
vt 0.3030 0.5354 0.0000
vt 0.3232 0.5253 0.0000
vt 0.0707 0.6566 0.0000
vt 0.0606 0.6364 0.0000
vt 0.1111 0.6667 0.0000
vt 0.1313 0.6667 0.0000
vt 0.2929 0.5556 0.0000
vt 0.2525 0.5253 0.0000
vt 0.2727 0.5859 0.0000
vt 0.2626 0.5758 0.0000
vt 0.2727 0.5758 0.0000
vt 0.1212 0.6061 0.0000
vt 0.1010 0.6162 0.0000
vt 0.1010 0.6061 0.0000
vt 0.1818 0.6364 0.0000
vt 0.1717 0.6263 0.0000
vt 0.2121 0.5960 0.0000
vt 0.2020 0.5758 0.0000
vt 0.2020 0.5657 0.0000
vt 0.2828 0.5960 0.0000
vt 0.2626 0.6061 0.0000
vt 0.2626 0.5859 0.0000
vt 0.2828 0.5758 0.0000
vt 0.2828 0.5859 0.0000
vt 0.2626 0.5556 0.0000
vt 0.2424 0.5354 0.0000
vt 0.3131 0.5455 0.0000
vt 0.2929 0.5051 0.0000
vt 0.2525 0.5657 0.0000
vt 0.2323 0.5455 0.0000
vt 0.2323 0.5354 0.0000
vt 0.0505 0.6768 0.0000
vt 0.0404 0.6768 0.0000
vt 0.0404 0.6263 0.0000
vt 0.0505 0.6162 0.0000
vt 0.2121 0.5455 0.0000
vt 0.2626 0.5152 0.0000
vt 0.1515 0.5960 0.0000
vt 0.1515 0.5859 0.0000
vt 0.0909 0.6162 0.0000
vt 0.0808 0.6061 0.0000
vt 0.1919 0.6465 0.0000
vt 0.1818 0.6465 0.0000
vt 0.1919 0.5960 0.0000
vt 0.2020 0.5859 0.0000
vt 0.3030 0.5859 0.0000
vt 0.2929 0.5758 0.0000
vt 0.3030 0.5758 0.0000
vt 0.2121 0.6263 0.0000
vt 0.2222 0.6162 0.0000
vt 0.3030 0.5455 0.0000
vt 0.2626 0.5657 0.0000
vt 0.2525 0.5556 0.0000
vt 0.2525 0.6162 0.0000
vt 0.2929 0.5960 0.0000
vt 0.2020 0.6364 0.0000
vt 0.1919 0.6364 0.0000
vt 0.2424 0.5253 0.0000
vt 0.1818 0.6566 0.0000
vt 0.1717 0.6566 0.0000
vt 0.0808 0.6162 0.0000
vt 0.0909 0.6263 0.0000
vt 0.0707 0.6263 0.0000
vt 0.1414 0.6162 0.0000
vt 0.1515 0.6667 0.0000
vt 0.1515 0.6566 0.0000
vt 0.1717 0.6667 0.0000
vt 0.2828 0.6061 0.0000
vt 0.2222 0.6263 0.0000
vt 0.0808 0.5960 0.0000
vt 0.2525 0.5152 0.0000
vt 0.2121 0.6364 0.0000
vt 0.0606 0.6768 0.0000
vt 0.0909 0.5960 0.0000
vt 0.3030 0.5657 0.0000
vt 0.3030 0.5556 0.0000
vt 0.1414 0.5960 0.0000
vt 0.1313 0.5859 0.0000
vt 0.1313 0.6061 0.0000
vt 0.2793 0.4949 0.0000
vt 0.2929 0.4949 0.0000
vt 0.2929 0.5859 0.0000
vt 0.3030 0.5051 0.0000
vt 0.1818 0.5859 0.0000
vt 0.1717 0.5859 0.0000
vt 0.2323 0.6162 0.0000
vt 0.2424 0.6162 0.0000
vt 0.0303 0.6768 0.0000
vt 0.0303 0.6263 0.0000
vt 0.1010 0.6768 0.0000
vt 0.0909 0.5859 0.0000
# 113 texture coords

g shandi_001_xuanya001
usemtl shandi_001_xuanya
s 1
f 1/1/1 2/2/1 3/3/1 
f 4/4/2 5/5/2 6/6/2 
f 7/7/1 8/8/1 9/9/1 
f 10/10/1 11/11/1 12/12/3 
f 13/13/2 14/14/4 15/15/2 
f 16/16/1 17/17/1 18/18/1 
f 19/19/1 18/18/1 20/20/1 
f 10/10/1 12/12/3 21/21/5 
f 22/22/2 23/23/2 24/24/2 
f 9/9/1 25/25/1 26/26/1 
f 27/27/1 9/9/1 28/28/1 
f 29/29/2 15/15/2 30/30/2 
f 31/31/6 32/32/7 33/33/8 
f 34/34/1 35/35/1 36/36/1 
f 37/37/1 38/38/1 1/1/1 
f 39/39/1 40/40/1 41/41/1 
f 37/37/1 20/20/1 38/38/1 
f 42/42/9 43/43/1 44/44/10 
f 45/45/11 14/14/4 13/13/2 
f 46/46/12 31/31/6 33/33/8 
f 47/47/13 48/48/2 30/30/2 
f 22/22/2 49/49/2 23/23/2 
f 5/5/2 4/4/2 50/50/2 
f 51/51/14 12/12/3 52/52/15 
f 47/47/13 53/53/2 48/48/2 
f 54/54/1 55/55/1 56/56/1 57/57/1 
f 12/12/3 58/58/16 52/52/15 
f 5/5/2 30/30/2 59/59/2 
f 3/3/1 60/60/1 61/61/1 
f 62/62/1 63/63/1 36/36/1 
f 64/64/1 65/65/1 37/37/1 
f 39/39/1 66/66/1 67/67/1 
f 19/19/1 16/16/1 18/18/1 
f 68/68/17 69/69/18 70/70/19 
f 71/71/1 66/66/1 72/72/1 
f 73/73/2 5/5/2 23/23/2 
f 74/74/20 51/51/14 75/75/21 
f 51/51/14 52/52/15 75/75/21 
f 76/76/1 11/11/1 10/10/1 
f 14/14/4 74/74/20 47/47/13 
f 33/33/8 32/32/7 74/74/20 
f 77/77/22 42/42/9 46/46/12 
f 78/78/1 79/79/1 1/1/1 
f 30/30/2 48/48/2 80/80/2 
f 81/81/1 82/82/1 20/20/1 
f 62/62/1 83/83/1 63/63/1 
f 84/84/1 85/85/1 83/83/1 
f 20/20/1 86/86/1 38/38/1 
f 87/87/1 88/88/1 89/89/1 
f 90/90/1 43/43/1 42/42/9 
f 11/11/1 41/41/1 12/12/3 
f 91/91/1 71/71/1 72/72/1 
f 36/36/1 63/63/1 92/92/1 
f 49/49/2 73/73/2 23/23/2 
f 59/59/2 30/30/2 93/93/2 
f 75/75/21 52/52/15 53/53/2 
f 27/27/1 7/7/1 9/9/1 
f 39/39/1 67/67/1 40/40/1 
f 94/94/1 78/78/1 1/1/1 
f 72/72/1 66/66/1 39/39/1 
f 25/25/1 95/95/1 54/54/1 26/26/1 
f 43/43/1 21/21/5 44/44/10 
f 32/32/7 51/51/14 74/74/20 
f 36/36/1 92/92/1 96/96/1 
f 18/18/1 17/17/1 35/35/1 
f 9/9/1 85/85/1 84/84/1 
f 70/70/19 69/69/18 13/13/2 
f 97/97/2 29/29/2 98/98/2 
f 45/45/11 33/33/8 14/14/4 
f 33/33/8 74/74/20 14/14/4 
f 86/86/1 99/99/1 2/2/1 
f 34/34/1 100/100/1 99/99/1 101/101/1 
f 75/75/21 53/53/2 47/47/13 
f 74/74/20 75/75/21 47/47/13 
f 50/50/2 102/102/2 103/103/2 
f 8/8/1 95/95/1 25/25/1 
f 82/82/1 19/19/1 20/20/1 
f 89/89/1 88/88/1 82/82/1 
f 2/2/1 99/99/1 60/60/1 
f 2/2/1 60/60/1 3/3/1 
f 69/69/18 45/45/11 13/13/2 
f 77/77/22 46/46/12 104/104/23 
f 84/84/1 83/83/1 62/62/1 
f 17/17/1 84/84/1 35/35/1 
f 11/11/1 39/39/1 41/41/1 
f 43/43/1 10/10/1 21/21/5 
f 23/23/2 5/5/2 50/50/2 
f 24/24/2 23/23/2 105/105/2 
f 86/86/1 101/101/1 99/99/1 
f 86/86/1 35/35/1 34/34/1 
f 9/9/1 84/84/1 17/17/1 
f 28/28/1 9/9/1 17/17/1 
f 66/66/1 106/106/1 67/67/1 
f 3/3/1 61/61/1 107/107/1 
f 85/85/1 57/57/1 83/83/1 
f 65/65/1 20/20/1 37/37/1 
f 81/81/1 20/20/1 65/65/1 
f 104/104/23 46/46/12 45/45/11 
f 46/46/12 33/33/8 45/45/11 
f 13/13/2 15/15/2 29/29/2 
f 97/97/2 13/13/2 29/29/2 
f 70/70/19 13/13/2 97/97/2 
f 35/35/1 84/84/1 62/62/1 
f 35/35/1 62/62/1 36/36/1 
f 108/108/1 72/72/1 39/39/1 
f 109/109/1 108/108/1 39/39/1 
f 87/87/1 16/16/1 88/88/1 
f 16/16/1 28/28/1 17/17/1 
f 98/98/2 5/5/2 73/73/2 
f 42/42/9 44/44/10 31/31/6 
f 42/42/9 31/31/6 46/46/12 
f 82/82/1 88/88/1 19/19/1 
f 88/88/1 16/16/1 19/19/1 
f 110/110/1 111/111/1 56/56/1 55/55/1 
f 68/68/17 104/104/23 69/69/18 
f 104/104/23 45/45/11 69/69/18 
f 64/64/1 37/37/1 79/79/1 
f 79/79/1 37/37/1 1/1/1 
f 5/5/2 59/59/2 6/6/2 
f 21/21/5 12/12/3 51/51/14 
f 32/32/7 21/21/5 51/51/14 
f 76/76/1 109/109/1 11/11/1 
f 109/109/1 39/39/1 11/11/1 
f 38/38/1 86/86/1 2/2/1 
f 1/1/1 38/38/1 2/2/1 
f 29/29/2 30/30/2 5/5/2 
f 98/98/2 29/29/2 5/5/2 
f 86/86/1 34/34/1 101/101/1 
f 94/94/1 1/1/1 71/71/1 
f 71/71/1 1/1/1 66/66/1 
f 23/23/2 50/50/2 105/105/2 
f 105/105/2 50/50/2 103/103/2 
f 14/14/4 47/47/13 15/15/2 
f 15/15/2 47/47/13 30/30/2 
f 31/31/6 44/44/10 32/32/7 
f 44/44/10 21/21/5 32/32/7 
f 1/1/1 3/3/1 66/66/1 
f 66/66/1 3/3/1 107/107/1 
f 26/26/1 57/57/1 85/85/1 
f 9/9/1 26/26/1 85/85/1 
f 66/66/1 107/107/1 106/106/1 
f 20/20/1 18/18/1 86/86/1 
f 18/18/1 35/35/1 86/86/1 
f 8/8/1 25/25/1 9/9/1 
f 7/7/1 112/112/1 8/8/1 
f 54/54/1 57/57/1 26/26/1 
f 50/50/2 4/4/2 102/102/2 
f 36/36/1 96/96/1 113/113/1 34/34/1 
f 34/34/1 113/113/1 100/100/1 
# 5 polygons - 144 triangles

