# 3ds Max Wavefront OBJ Exporter v0.97b - (c)2007 guruware
# File Created: 23.06.2016 20:01:34

mtllib shandi_001_xuanya002.mtl

#
# object shandi_001_xuanya002
#

v  -100.3052 -22.3779 -74.9388
v  -97.0724 -22.3646 -74.9005
v  -97.0737 -24.6727 -78.2289
v  -103.5383 -25.3939 -81.4613
v  -100.3060 -25.8896 -81.4613
v  -100.3060 -25.7890 -84.6936
v  -135.8615 -18.6789 -68.5320
v  -126.1646 -20.1481 -74.9966
v  -135.8615 -19.3746 -78.2289
v  -100.2541 -19.9838 -55.5389
v  -93.8393 -19.7224 -58.8326
v  -100.2638 -19.8300 -58.8757
v  -103.5387 -20.8603 -65.3253
v  -100.3052 -21.8650 -71.7048
v  -126.1646 -19.3058 -58.8350
v  -122.9323 -19.8612 -58.8350
v  -119.6999 -19.9284 -65.2997
v  -87.3819 -18.5742 -55.6091
v  -84.1398 -18.6526 -58.8294
v  -84.1330 -19.5257 -65.2858
v  -90.6090 -28.5598 -87.9259
v  -84.1444 -29.4515 -94.3906
v  -90.6090 -29.0023 -91.1582
v  -126.1646 -19.2469 -55.6027
v  -129.3969 -19.1815 -62.0673
v  -135.8615 -18.6216 -55.6027
v  -110.0027 -20.8665 -65.2727
v  -110.0026 -21.3783 -68.4992
v  -93.8413 -29.1970 -94.3906
v  -87.3767 -29.4515 -97.6229
v  -93.8413 -29.4789 -97.6229
v  -103.5383 -29.4656 -94.3906
v  -103.5383 -29.2009 -97.6229
v  -106.7706 -21.3759 -68.5296
v  -87.3767 -28.6608 -84.6936
v  -106.7706 -24.3226 -84.6936
v  -103.5383 -25.3869 -84.6936
v  -103.5383 -25.3122 -87.9259
v  -119.6999 -20.7265 -78.2289
v  -113.2353 -22.3137 -81.4613
v  -116.4676 -21.9341 -81.4613
v  -103.5383 -29.1767 -100.8552
v  -100.3060 -29.7257 -104.0875
v  -106.7706 -29.4515 -104.0875
v  -87.3632 -19.4439 -62.0507
v  -100.2758 -19.5523 -52.3333
v  -93.8512 -18.8507 -52.3826
v  -97.0737 -27.9282 -87.9259
v  -93.8413 -28.1982 -87.9259
v  -93.8413 -29.0489 -91.1582
v  -135.8615 -18.5324 -58.8350
v  -135.8615 -18.6343 -65.2997
v  -93.8391 -21.3700 -71.6055
v  -90.5569 -21.1520 -71.5878
v  -90.6090 -22.6746 -74.9966
v  -93.8570 -17.5400 -42.6927
v  -87.3907 -17.7017 -49.1552
v  -93.8507 -17.9757 -45.9173
v  -103.5383 -23.1342 -78.2289
v  -110.0030 -24.3047 -81.4613
v  -110.0030 -23.7161 -84.6936
v  -90.6090 -28.3830 -81.4613
v  -93.8413 -26.7492 -78.2289
v  -97.0737 -29.6208 -100.8552
v  -129.3969 -19.8013 -78.2289
v  -132.6292 -21.0922 -81.4613
v  -110.0030 -29.0983 -100.8552
v  -113.2353 -22.9853 -84.6936
v  -116.4676 -20.1675 -62.0673
v  -132.6292 -20.2121 -49.1380
v  -129.3969 -19.1439 -52.3704
v  -135.8615 -18.9569 -52.3704
v  -87.3767 -29.3139 -94.3906
v  -90.6090 -28.1560 -78.2289
v  -87.3767 -28.8517 -78.2289
v  -87.3767 -28.5657 -81.4613
v  -110.0030 -21.7336 -78.2289
v  -106.7706 -22.4334 -78.2289
v  -106.7706 -24.3052 -81.4613
v  -97.0228 -20.8343 -65.2536
v  -86.7450 -20.3366 -69.1503
v  -113.2353 -21.6929 -58.8350
v  -110.0048 -19.8646 -58.9561
v  -110.0030 -20.3581 -62.0672
v  -119.6999 -20.2471 -58.8350
v  -116.4676 -20.7770 -58.8350
v  -106.7706 -25.0388 -87.9259
v  -100.3060 -29.4728 -100.8552
v  -100.3060 -20.8483 -65.2955
v  -93.8398 -22.3555 -74.8891
v  -119.6999 -20.2818 -71.7643
v  -132.6292 -18.9264 -68.5320
v  -126.1646 -19.6696 -68.5320
v  -84.1444 -30.1968 -81.4613
v  -103.5685 -19.4879 -49.1751
v  -100.2904 -19.1189 -49.1189
v  -97.0737 -29.3844 -94.3906
v  -122.9323 -21.3898 -55.6027
v  -106.7716 -19.8489 -58.9030
v  -103.4752 -19.8415 -58.9028
v  -93.8413 -27.6923 -81.4613
v  -97.0737 -26.8269 -84.6936
v  -100.3060 -26.3920 -87.9259
v  -97.0737 -29.4515 -91.1582
v  -106.7706 -29.6490 -94.3906
v  -122.9323 -20.4429 -78.2289
v  -100.2960 -18.6830 -45.8934
v  -97.1112 -17.9023 -42.7195
v  -93.8413 -29.4515 -100.8552
v  -87.3498 -20.7526 -71.7313
v  -113.2353 -20.7428 -62.0673
v  -113.2353 -29.4515 -97.6229
v  -110.0030 -29.4042 -97.6229
v  -110.0030 -21.6288 -74.9966
v  -113.2353 -21.4192 -78.2289
v  -119.6999 -21.0777 -81.4613
v  -100.3060 -24.0427 -78.2289
v  -103.5383 -21.9136 -74.9966
v  -106.7706 -21.7645 -74.9966
v  -84.1444 -29.4515 -91.1582
v  -107.4455 -29.2875 -96.6589
v  -135.8615 -19.8566 -81.4613
v  -126.1646 -19.2688 -52.3704
v  -84.1746 -17.7873 -52.4075
v  -129.3969 -21.2139 -49.1380
v  -106.7709 -20.3534 -62.0836
v  -84.1444 -28.7316 -84.6936
v  -84.1444 -29.4515 -87.9259
v  -126.1646 -22.5493 -81.4613
v  -126.1646 -19.6703 -65.2997
v  -126.1646 -20.1675 -78.2289
v  -80.9121 -31.1610 -84.6936
v  -84.1216 -19.9600 -68.5040
v  -110.0030 -29.6210 -104.0875
v  -103.5030 -18.8252 -52.4955
v  -113.2353 -29.4515 -100.8552
v  -97.0621 -18.3262 -45.8915
# 137 vertices

vn 0.0676 0.9490 -0.3079
vn 0.0294 0.8928 -0.4496
vn 0.2954 0.8197 -0.4907
vn 0.2110 0.9373 -0.2772
vn 0.2130 0.9406 -0.2642
vn 0.2326 0.9681 -0.0934
vn 0.0846 0.9952 -0.0500
vn 0.0676 0.9965 -0.0491
vn 0.1531 0.9735 -0.1698
vn 0.1291 0.9909 -0.0380
vn -0.0831 0.9889 -0.1235
vn 0.0218 0.9954 -0.0928
vn -0.0022 0.9877 -0.1567
vn -0.0285 0.9858 -0.1654
vn 0.1017 0.9947 -0.0161
vn 0.1964 0.9610 0.1949
vn 0.0826 0.9961 -0.0309
vn -0.1086 0.9851 -0.1333
vn 0.0914 0.9923 -0.0832
vn 0.0875 0.9944 -0.0593
vn 0.0090 0.9905 -0.1373
vn 0.2620 0.9637 0.0511
vn 0.0907 0.9953 -0.0335
vn 0.0767 0.9957 0.0528
vn 0.0243 0.9909 -0.1320
vn 0.0665 0.9927 -0.1010
vn -0.0321 0.9980 -0.0547
vn 0.0115 0.9984 -0.0557
vn -0.0143 0.9985 -0.0527
vn -0.0182 0.9974 0.0690
vn 0.0115 0.9991 0.0397
vn 0.0625 0.9965 -0.0548
vn 0.1981 0.9784 -0.0584
vn 0.2448 0.9695 -0.0141
vn 0.2602 0.9648 -0.0375
vn 0.1156 0.9875 -0.1067
vn 0.2869 0.9397 -0.1861
vn 0.1413 0.9673 -0.2107
vn 0.0424 0.9981 -0.0443
vn 0.0665 0.9926 -0.1021
vn 0.0035 0.9928 -0.1201
vn 0.0149 0.9958 -0.0906
vn 0.2109 0.9190 -0.3331
vn 0.1121 0.9768 -0.1825
vn -0.0379 0.9828 -0.1807
vn 0.1059 0.9943 0.0122
vn 0.0938 0.9955 -0.0114
vn -0.0379 0.9758 -0.2151
vn -0.0881 0.9691 -0.2302
vn 0.0311 0.7287 -0.6842
vn 0.1889 0.8821 -0.4314
vn 0.2415 0.9459 -0.2168
vn 0.2726 0.9618 0.0248
vn 0.1581 0.9847 -0.0736
vn 0.3619 0.7947 -0.4874
vn 0.0109 0.9988 -0.0472
vn 0.1067 0.9618 -0.2520
vn 0.1692 0.9046 -0.3911
vn -0.0443 0.9984 -0.0364
vn 0.1836 0.9625 -0.2000
vn 0.1224 0.9890 0.0826
vn 0.1150 0.9032 0.4135
vn 0.0612 0.9660 0.2512
vn 0.0472 0.9843 0.1700
vn 0.0281 0.9982 -0.0531
vn 0.2305 0.8478 -0.4777
vn 0.2773 0.9379 -0.2084
vn 0.2220 0.9730 0.0634
vn 0.1272 0.9379 -0.3227
vn 0.1890 0.9211 -0.3404
vn 0.1800 0.9419 -0.2837
vn -0.0366 0.9914 -0.1253
vn -0.1100 0.9845 -0.1369
vn -0.0175 0.9822 0.1872
vn -0.2504 0.9562 -0.1518
vn -0.1153 0.9881 -0.1023
vn 0.1244 0.9693 0.2122
vn 0.1897 0.9599 0.2065
vn 0.1142 0.9699 -0.2149
vn 0.0684 0.9967 -0.0439
vn -0.0113 0.9890 -0.1478
vn 0.0472 0.8150 -0.5775
vn 0.0955 0.9938 -0.0563
vn 0.0928 0.9945 -0.0478
vn 0.0832 0.9958 -0.0373
vn 0.4772 0.8273 0.2964
vn 0.0521 0.9981 0.0339
vn -0.0352 0.9990 -0.0285
vn 0.4270 0.8521 0.3026
vn 0.2687 0.9442 -0.1904
vn 0.2739 0.9517 -0.1384
vn 0.3427 0.9229 -0.1754
vn -0.0106 0.9662 -0.2577
vn -0.0148 0.9923 0.1227
vn 0.0741 0.9953 -0.0623
vn -0.0523 0.9986 0.0085
vn -0.1282 0.9834 -0.1285
vn 0.0781 0.9835 0.1633
vn -0.0618 0.9970 0.0472
vn -0.0124 0.9975 0.0693
vn 0.1004 0.9931 -0.0605
vn 0.1568 0.9648 -0.2110
vn 0.2003 0.9740 -0.1058
vn 0.1943 0.8694 -0.4542
vn 0.1195 0.9773 -0.1748
vn 0.0639 0.9881 -0.1399
vn 0.2376 0.9714 -0.0000
vn -0.0168 0.9985 0.0529
vn 0.3537 0.9251 -0.1380
vn 0.1832 0.9705 0.1566
vn 0.1799 0.8284 0.5305
vn 0.2758 0.9561 0.0987
vn 0.1857 0.9811 -0.0543
vn 0.1441 0.8204 -0.5534
vn 0.0730 0.9970 -0.0253
vn 0.1004 0.9713 -0.2158
vn 0.5649 0.7516 0.3407
vn -0.0704 0.9847 -0.1592
vn 0.2023 0.9783 0.0445
vn -0.1085 0.9927 -0.0536
# 120 vertex normals

vt 0.3434 0.4242 0.0000
vt 0.3333 0.4242 0.0000
vt 0.3333 0.4141 0.0000
vt 0.3535 0.4040 0.0000
vt 0.3434 0.4040 0.0000
vt 0.3434 0.3939 0.0000
vt 0.4545 0.4444 0.0000
vt 0.4242 0.4242 0.0000
vt 0.4545 0.4141 0.0000
vt 0.3434 0.4848 0.0000
vt 0.3232 0.4747 0.0000
vt 0.3434 0.4747 0.0000
vt 0.3535 0.4545 0.0000
vt 0.3434 0.4343 0.0000
vt 0.4242 0.4747 0.0000
vt 0.4141 0.4747 0.0000
vt 0.4040 0.4545 0.0000
vt 0.3030 0.4848 0.0000
vt 0.2929 0.4747 0.0000
vt 0.2929 0.4545 0.0000
vt 0.3131 0.3838 0.0000
vt 0.2929 0.3636 0.0000
vt 0.3131 0.3737 0.0000
vt 0.4242 0.4848 0.0000
vt 0.4343 0.4646 0.0000
vt 0.4545 0.4848 0.0000
vt 0.3737 0.4545 0.0000
vt 0.3737 0.4444 0.0000
vt 0.3232 0.3636 0.0000
vt 0.3030 0.3535 0.0000
vt 0.3232 0.3535 0.0000
vt 0.3535 0.3636 0.0000
vt 0.3535 0.3535 0.0000
vt 0.3636 0.4444 0.0000
vt 0.3030 0.3939 0.0000
vt 0.3636 0.3939 0.0000
vt 0.3535 0.3939 0.0000
vt 0.3535 0.3838 0.0000
vt 0.4040 0.4141 0.0000
vt 0.3838 0.4040 0.0000
vt 0.3939 0.4040 0.0000
vt 0.3535 0.3434 0.0000
vt 0.3434 0.3333 0.0000
vt 0.3636 0.3333 0.0000
vt 0.3030 0.4646 0.0000
vt 0.3434 0.4949 0.0000
vt 0.3232 0.4949 0.0000
vt 0.3333 0.3838 0.0000
vt 0.3232 0.3838 0.0000
vt 0.3232 0.3737 0.0000
vt 0.4545 0.4747 0.0000
vt 0.4545 0.4545 0.0000
vt 0.3232 0.4343 0.0000
vt 0.3131 0.4343 0.0000
vt 0.3131 0.4242 0.0000
vt 0.3232 0.5253 0.0000
vt 0.3030 0.5051 0.0000
vt 0.3232 0.5152 0.0000
vt 0.3535 0.4141 0.0000
vt 0.3737 0.4040 0.0000
vt 0.3737 0.3939 0.0000
vt 0.3131 0.4040 0.0000
vt 0.3232 0.4141 0.0000
vt 0.3333 0.3434 0.0000
vt 0.4343 0.4141 0.0000
vt 0.4444 0.4040 0.0000
vt 0.3737 0.3434 0.0000
vt 0.3838 0.3939 0.0000
vt 0.3939 0.4646 0.0000
vt 0.4444 0.5051 0.0000
vt 0.4343 0.4949 0.0000
vt 0.4545 0.4949 0.0000
vt 0.3030 0.3636 0.0000
vt 0.3131 0.4141 0.0000
vt 0.3030 0.4141 0.0000
vt 0.3030 0.4040 0.0000
vt 0.3737 0.4141 0.0000
vt 0.3636 0.4141 0.0000
vt 0.3636 0.4040 0.0000
vt 0.3333 0.4545 0.0000
vt 0.3030 0.4444 0.0000
vt 0.3838 0.4747 0.0000
vt 0.3737 0.4747 0.0000
vt 0.3737 0.4646 0.0000
vt 0.4040 0.4747 0.0000
vt 0.3939 0.4747 0.0000
vt 0.3636 0.3838 0.0000
vt 0.3434 0.3434 0.0000
vt 0.3434 0.4545 0.0000
vt 0.3232 0.4242 0.0000
vt 0.4040 0.4343 0.0000
vt 0.4444 0.4444 0.0000
vt 0.4242 0.4444 0.0000
vt 0.2929 0.4040 0.0000
vt 0.3535 0.5051 0.0000
vt 0.3434 0.5051 0.0000
vt 0.3333 0.3636 0.0000
vt 0.4141 0.4848 0.0000
vt 0.3636 0.4747 0.0000
vt 0.3535 0.4747 0.0000
vt 0.3232 0.4040 0.0000
vt 0.3333 0.3939 0.0000
vt 0.3434 0.3838 0.0000
vt 0.3333 0.3737 0.0000
vt 0.3636 0.3636 0.0000
vt 0.4141 0.4141 0.0000
vt 0.3434 0.5152 0.0000
vt 0.3333 0.5253 0.0000
vt 0.3232 0.3434 0.0000
vt 0.3030 0.4343 0.0000
vt 0.3838 0.4646 0.0000
vt 0.3838 0.3535 0.0000
vt 0.3737 0.3535 0.0000
vt 0.3737 0.4242 0.0000
vt 0.3838 0.4141 0.0000
vt 0.4040 0.4040 0.0000
vt 0.3434 0.4141 0.0000
vt 0.3535 0.4242 0.0000
vt 0.3636 0.4242 0.0000
vt 0.2929 0.3737 0.0000
vt 0.3636 0.3535 0.0000
vt 0.4545 0.4040 0.0000
vt 0.4242 0.4949 0.0000
vt 0.2929 0.4949 0.0000
vt 0.4343 0.5051 0.0000
vt 0.3636 0.4646 0.0000
vt 0.2929 0.3939 0.0000
vt 0.2929 0.3838 0.0000
vt 0.4242 0.4040 0.0000
vt 0.4242 0.4545 0.0000
vt 0.4242 0.4141 0.0000
vt 0.2828 0.3939 0.0000
vt 0.2929 0.4444 0.0000
vt 0.3737 0.3333 0.0000
vt 0.3535 0.4949 0.0000
vt 0.3838 0.3434 0.0000
vt 0.3333 0.5152 0.0000
# 137 texture coords

g shandi_001_xuanya002
usemtl shandi_001_xuanya
s 1
f 1/1/1 2/2/2 3/3/3 
f 4/4/4 5/5/5 6/6/6 
f 7/7/7 8/8/8 9/9/9 
f 10/10/10 11/11/11 12/12/12 
f 13/13/13 14/14/14 1/1/1 
f 15/15/15 16/16/16 17/17/17 
f 18/18/18 19/19/18 20/20/18 
f 21/21/19 22/22/20 23/23/21 
f 24/24/22 25/25/23 26/26/24 
f 17/17/17 27/27/25 28/28/26 
f 29/29/27 30/30/28 31/31/29 
f 32/32/30 31/31/29 33/33/31 
f 27/27/25 34/34/13 28/28/26 
f 21/21/19 35/35/32 22/22/20 
f 36/36/33 37/37/34 38/38/35 
f 39/39/36 40/40/37 41/41/38 
f 42/42/39 43/43/40 44/44/41 
f 18/18/18 20/20/18 45/45/18 
f 46/46/42 47/47/18 11/11/11 
f 48/48/43 49/49/44 50/50/45 
f 51/51/46 25/25/23 52/52/47 
f 53/53/48 54/54/49 55/55/50 
f 47/47/18 45/45/18 11/11/11 
f 56/56/18 57/57/18 58/58/18 
f 59/59/51 5/5/5 4/4/4 
f 40/40/37 60/60/52 61/61/53 
f 62/62/54 35/35/32 21/21/19 
f 2/2/2 63/63/55 3/3/3 
f 33/33/31 31/31/29 64/64/56 
f 9/9/9 65/65/57 66/66/58 
f 67/67/59 42/42/39 44/44/41 
f 41/41/38 40/40/37 68/68/60 
f 16/16/16 69/69/61 17/17/17 
f 70/70/62 71/71/63 72/72/64 
f 23/23/21 22/22/20 73/73/65 
f 74/74/66 75/75/67 76/76/68 
f 34/34/13 1/1/1 28/28/26 
f 77/77/69 78/78/70 79/79/71 
f 80/80/72 81/81/73 54/54/49 
f 82/82/74 83/83/75 84/84/76 
f 85/85/77 86/86/78 69/69/61 
f 36/36/33 38/38/35 87/87/79 
f 58/58/18 57/57/18 18/18/18 
f 42/42/39 88/88/80 43/43/40 
f 13/13/13 89/89/81 14/14/14 
f 53/53/48 55/55/50 90/90/82 
f 17/17/17 28/28/26 91/91/83 
f 92/92/84 93/93/85 8/8/8 
f 75/75/67 94/94/86 76/76/68 
f 95/95/87 96/96/18 46/46/42 
f 97/97/88 29/29/27 31/31/29 
f 24/24/22 98/98/89 16/16/16 
f 99/99/13 100/100/13 89/89/81 
f 101/101/90 62/62/54 21/21/19 
f 102/102/91 101/101/90 49/49/44 
f 90/90/82 55/55/50 74/74/66 
f 55/55/50 75/75/67 74/74/66 
f 37/37/34 6/6/6 103/103/92 
f 103/103/92 48/48/43 104/104/93 
f 105/105/94 32/32/30 33/33/31 
f 40/40/37 61/61/53 68/68/60 
f 93/93/85 106/106/95 8/8/8 
f 107/107/18 58/58/18 47/47/18 
f 108/108/18 56/56/18 58/58/18 
f 31/31/29 109/109/96 64/64/56 
f 29/29/27 73/73/65 30/30/28 
f 54/54/49 81/81/73 110/110/97 
f 77/77/69 79/79/71 60/60/52 
f 60/60/52 79/79/71 36/36/33 
f 82/82/74 84/84/76 111/111/98 
f 112/112/99 113/113/100 67/67/59 
f 114/114/101 78/78/70 77/77/69 
f 91/91/83 114/114/101 115/115/102 
f 72/72/64 24/24/22 26/26/24 
f 39/39/36 41/41/38 116/116/103 
f 59/59/51 117/117/104 5/5/5 
f 3/3/3 63/63/55 101/101/90 
f 118/118/105 117/117/104 59/59/51 
f 114/114/101 119/119/106 78/78/70 
f 96/96/18 47/47/18 46/46/42 
f 96/96/18 107/107/18 47/47/18 
f 35/35/32 120/120/107 22/22/20 
f 104/104/93 29/29/27 97/97/88 
f 48/48/43 50/50/45 104/104/93 
f 113/113/100 42/42/39 67/67/59 
f 105/105/94 33/33/31 121/121/108 
f 89/89/81 53/53/48 14/14/14 
f 80/80/72 54/54/49 53/53/48 
f 111/111/98 84/84/76 27/27/25 
f 84/84/76 34/34/13 27/27/25 
f 9/9/9 66/66/58 122/122/109 
f 72/72/64 71/71/63 24/24/22 
f 123/123/110 98/98/89 24/24/22 
f 57/57/18 124/124/18 18/18/18 
f 70/70/62 125/125/111 71/71/63 
f 53/53/48 90/90/82 2/2/2 
f 2/2/2 90/90/82 63/63/55 
f 126/126/13 99/99/13 13/13/13 
f 99/99/13 89/89/81 13/13/13 
f 35/35/32 127/127/112 128/128/113 
f 76/76/68 94/94/86 127/127/112 
f 65/65/57 129/129/114 66/66/58 
f 98/98/89 85/85/77 16/16/16 
f 16/16/16 85/85/77 69/69/61 
f 63/63/55 62/62/54 101/101/90 
f 90/90/82 74/74/66 63/63/55 
f 39/39/36 115/115/102 40/40/37 
f 115/115/102 60/60/52 40/40/37 
f 15/15/15 17/17/17 130/130/115 
f 130/130/115 93/93/85 92/92/84 
f 6/6/6 48/48/43 103/103/92 
f 5/5/5 102/102/91 6/6/6 
f 86/86/78 111/111/98 69/69/61 
f 86/86/78 82/82/74 111/111/98 
f 79/79/71 37/37/34 36/36/33 
f 78/78/70 4/4/4 79/79/71 
f 33/33/31 64/64/56 88/88/80 
f 5/5/5 101/101/90 102/102/91 
f 3/3/3 101/101/90 5/5/5 
f 9/9/9 8/8/8 65/65/57 
f 8/8/8 106/106/95 131/131/116 
f 93/93/85 91/91/83 106/106/95 
f 106/106/95 39/39/36 116/116/103 
f 94/94/86 132/132/117 127/127/112 
f 20/20/18 133/133/18 81/81/73 
f 67/67/59 44/44/41 134/134/118 
f 113/113/100 121/121/108 42/42/39 
f 69/69/61 27/27/25 17/17/17 
f 69/69/61 111/111/98 27/27/25 
f 91/91/83 28/28/26 114/114/101 
f 28/28/26 119/119/106 114/114/101 
f 60/60/52 36/36/33 61/61/53 
f 61/61/53 36/36/33 87/87/79 
f 28/28/26 1/1/1 118/118/105 
f 118/118/105 1/1/1 117/117/104 
f 83/83/75 99/99/13 126/126/13 
f 8/8/8 131/131/116 65/65/57 
f 65/65/57 131/131/116 129/129/114 
f 135/135/119 10/10/10 12/12/12 
f 95/95/87 46/46/42 135/135/119 
f 52/52/47 130/130/115 92/92/84 
f 7/7/7 92/92/84 8/8/8 
f 37/37/34 103/103/92 38/38/35 
f 12/12/12 11/11/11 80/80/72 
f 11/11/11 81/81/73 80/80/72 
f 130/130/115 17/17/17 93/93/85 
f 93/93/85 17/17/17 91/91/83 
f 121/121/108 33/33/31 42/42/39 
f 33/33/31 88/88/80 42/42/39 
f 63/63/55 74/74/66 62/62/54 
f 74/74/66 76/76/68 62/62/54 
f 112/112/99 67/67/59 136/136/120 
f 136/136/120 67/67/59 134/134/118 
f 62/62/54 76/76/68 35/35/32 
f 76/76/68 127/127/112 35/35/32 
f 25/25/23 130/130/115 52/52/47 
f 25/25/23 15/15/15 130/130/115 
f 6/6/6 102/102/91 48/48/43 
f 102/102/91 49/49/44 48/48/43 
f 125/125/111 123/123/110 71/71/63 
f 71/71/63 123/123/110 24/24/22 
f 91/91/83 115/115/102 39/39/36 
f 106/106/95 91/91/83 39/39/36 
f 35/35/32 128/128/113 120/120/107 
f 51/51/46 26/26/24 25/25/23 
f 101/101/90 21/21/19 49/49/44 
f 49/49/44 21/21/19 23/23/21 
f 47/47/18 18/18/18 45/45/18 
f 58/58/18 18/18/18 47/47/18 
f 119/119/106 59/59/51 78/78/70 
f 78/78/70 59/59/51 4/4/4 
f 24/24/22 15/15/15 25/25/23 
f 24/24/22 16/16/16 15/15/15 
f 79/79/71 4/4/4 37/37/34 
f 4/4/4 6/6/6 37/37/34 
f 114/114/101 77/77/69 115/115/102 
f 115/115/102 77/77/69 60/60/52 
f 1/1/1 3/3/3 117/117/104 
f 117/117/104 3/3/3 5/5/5 
f 137/137/18 58/58/18 107/107/18 
f 108/108/18 58/58/18 137/137/18 
f 34/34/13 13/13/13 1/1/1 
f 126/126/13 13/13/13 34/34/13 
f 28/28/26 118/118/105 119/119/106 
f 119/119/106 118/118/105 59/59/51 
f 11/11/11 45/45/18 81/81/73 
f 45/45/18 20/20/18 81/81/73 
f 104/104/93 50/50/45 29/29/27 
f 50/50/45 73/73/65 29/29/27 
f 135/135/119 46/46/42 10/10/10 
f 46/46/42 11/11/11 10/10/10 
f 14/14/14 2/2/2 1/1/1 
f 14/14/14 53/53/48 2/2/2 
f 52/52/47 92/92/84 7/7/7 
f 83/83/75 126/126/13 84/84/76 
f 84/84/76 126/126/13 34/34/13 
f 18/18/18 124/124/18 19/19/18 
f 12/12/12 80/80/72 100/100/13 
f 135/135/119 12/12/12 100/100/13 
f 89/89/81 80/80/72 53/53/48 
f 100/100/13 80/80/72 89/89/81 
f 49/49/44 23/23/21 50/50/45 
f 50/50/45 23/23/21 73/73/65 
f 32/32/30 97/97/88 31/31/29 
# 0 polygons - 204 triangles

