# 3ds Max Wavefront OBJ Exporter v0.97b - (c)2007 guruware
# File Created: 23.06.2016 20:01:45

mtllib shandi_001_xuanya003.mtl

#
# object shandi_001_xuanya003
#

v  -161.7201 -17.1024 -78.2289
v  -158.4878 -16.6718 -68.5320
v  -158.4878 -17.7419 -81.4613
v  -197.2757 -12.5692 -84.6936
v  -203.7403 -12.5692 -87.9259
v  -210.2050 -12.5692 -91.1582
v  -213.4373 -12.5692 -71.7643
v  -213.4373 -12.5692 -68.5320
v  -216.6696 -12.5692 -94.3906
v  -226.3666 -12.5692 -84.6936
v  -226.3666 -12.5692 -81.4613
v  -210.2050 -12.5692 -94.3906
v  -184.3465 -13.0781 -52.3704
v  -177.8817 -13.9173 -55.6027
v  -181.1142 -13.8753 -58.8350
v  -190.8111 -12.8417 -52.3704
v  -187.5788 -12.5854 -49.1380
v  -187.5788 -13.0278 -55.6027
v  -145.5585 -22.6661 -62.0673
v  -142.3262 -17.6068 -62.0673
v  -142.3262 -18.1038 -68.5320
v  -148.7908 -17.5776 -65.2997
v  -148.7908 -17.4794 -68.5320
v  -152.0232 -17.3562 -71.7643
v  -162.4526 -23.1793 -58.8350
v  -158.4878 -16.0940 -62.0673
v  -161.7201 -18.5834 -62.0673
v  -184.3465 -13.5204 -58.8350
v  -139.0939 -19.2702 -81.4613
v  -145.5585 -18.7762 -81.4613
v  -223.1343 -12.5692 -81.4613
v  -197.2757 -12.9594 -39.4411
v  -190.8111 -12.7696 -39.4411
v  -197.2757 -12.7752 -42.6734
v  -145.5585 -22.6280 -65.2997
v  -145.5585 -18.5488 -68.5320
v  -168.1848 -16.5683 -81.4613
v  -164.9525 -16.8531 -81.4613
v  -164.9525 -17.5389 -84.6936
v  -171.4171 -14.7496 -49.1380
v  -168.1848 -15.0158 -55.6027
v  -174.6494 -14.5342 -49.1380
v  -164.9525 -15.0528 -52.3704
v  -164.9525 -15.4389 -58.8350
v  -145.5585 -18.0003 -71.7643
v  -135.8615 -18.6789 -68.5320
v  -135.8615 -19.3746 -78.2289
v  -219.9019 -12.5692 -74.9966
v  -174.6494 -15.3826 -71.7643
v  -152.0232 -17.0728 -55.6027
v  -148.7908 -22.0430 -62.0673
v  -152.0232 -16.9739 -62.0673
v  -197.2757 -12.3122 -55.6027
v  -190.8111 -12.6425 -58.8350
v  -181.1142 -13.5875 -49.1380
v  -177.8817 -13.7431 -52.3704
v  -187.5788 -12.9699 -58.8350
v  -194.0434 -13.3263 -36.2087
v  -187.5788 -12.8096 -36.2087
v  -155.2555 -18.0896 -81.4613
v  -155.2555 -16.8631 -65.2997
v  -161.7201 -16.0385 -65.2997
v  -158.4878 -17.0728 -58.8350
v  -155.2555 -17.0728 -58.8350
v  -155.2555 -16.5649 -62.0673
v  -177.8817 -15.0606 -68.5320
v  -177.8817 -14.8172 -65.2997
v  -203.7403 -12.4540 -52.3704
v  -200.5080 -12.5682 -55.6027
v  -203.7403 -13.4738 -55.6027
v  -168.1848 -15.4439 -65.2997
v  -164.9525 -15.7494 -62.0673
v  -139.0939 -19.3257 -84.6936
v  -213.4373 -12.5692 -65.2997
v  -210.2050 -12.5692 -65.2997
v  -203.7403 -12.5682 -58.8350
v  -194.0434 -12.5682 -65.2997
v  -206.9727 -12.5692 -62.0673
v  -139.0939 -17.7848 -58.8350
v  -135.8615 -18.5324 -58.8350
v  -135.8615 -18.6343 -65.2997
v  -200.5080 -13.4199 -45.9057
v  -197.2757 -12.7696 -45.9057
v  -197.2757 -12.7696 -49.1380
v  -223.1343 -12.5692 -74.9966
v  -203.7403 -12.5692 -91.1582
v  -139.0939 -20.2266 -49.1380
v  -132.6292 -20.2121 -49.1380
v  -135.8615 -18.9569 -52.3704
v  -142.3262 -18.2648 -71.7643
v  -181.1142 -14.5599 -62.0673
v  -203.7403 -14.2931 -49.1380
v  -200.5080 -12.7696 -49.1380
v  -200.5080 -12.4559 -52.3704
v  -145.5585 -18.9406 -84.6936
v  -145.5585 -18.9589 -87.9259
v  -148.7908 -18.7941 -87.9259
v  -187.5788 -12.3797 -42.6734
v  -174.6494 -14.8361 -45.9057
v  -168.1848 -15.8781 -45.9057
v  -168.1848 -15.2383 -49.1380
v  -219.9019 -12.5692 -71.7643
v  -210.2050 -12.5692 -62.0673
v  -155.2555 -17.0728 -55.6027
v  -206.9727 -12.5692 -58.8350
v  -187.5788 -13.5936 -62.0673
v  -171.4171 -14.6472 -55.6027
v  -168.1848 -15.0018 -58.8350
v  -200.5080 -12.5692 -87.9259
v  -142.3262 -18.5750 -52.3704
v  -139.0939 -17.9781 -55.6027
v  -142.3262 -17.4049 -55.6027
v  -148.7908 -21.9608 -58.8350
v  -171.4171 -15.1642 -62.0673
v  -152.0232 -18.5012 -87.9259
v  -139.0939 -18.2753 -52.3704
v  -200.5080 -12.5682 -58.8350
v  -177.8817 -15.9897 -71.7643
v  -158.4878 -17.7317 -84.6936
v  -161.7201 -18.1543 -87.9259
v  -161.7201 -25.0048 -55.6027
v  -197.2757 -13.2652 -36.2087
v  -184.3465 -13.0762 -45.9057
v  -200.5080 -14.1119 -42.6734
v  -164.9525 -15.4455 -49.1380
v  -135.8615 -18.6216 -55.6027
v  -168.1848 -16.0801 -71.7643
v  -197.2757 -12.3118 -58.8350
v  -187.5788 -12.7696 -39.4411
v  -181.7373 -15.3934 -63.8986
v  -174.6494 -15.6118 -74.9966
v  -171.4171 -16.0627 -78.2289
v  -135.8615 -19.8566 -81.4613
v  -190.8111 -12.4949 -62.0673
v  -161.7201 -17.3292 -84.6936
v  -142.3262 -18.9406 -84.6936
v  -181.1142 -13.9199 -45.9057
v  -192.1049 -12.5692 -81.4613
v  -194.0434 -12.5692 -81.4613
v  -192.2865 -12.5483 -65.2997
v  -194.0434 -12.5692 -84.6936
# 141 vertices

vn 0.1137 0.9914 -0.0640
vn 0.0965 0.9927 -0.0718
vn 0.1171 0.9924 -0.0383
vn 0.0000 1.0000 -0.0000
vn -0.0000 1.0000 0.0000
vn -0.0000 1.0000 -0.0000
vn 0.0000 1.0000 0.0000
vn 0.1074 0.9936 -0.0350
vn 0.1034 0.9921 -0.0704
vn 0.0852 0.9888 -0.1223
vn 0.0184 0.9998 -0.0012
vn 0.0525 0.9981 -0.0331
vn 0.0794 0.9965 -0.0252
vn -0.8287 0.5593 -0.0196
vn -0.8420 0.5379 -0.0414
vn -0.8333 0.5522 -0.0270
vn 0.1500 0.9886 -0.0148
vn 0.1465 0.9889 0.0236
vn 0.0785 0.9949 -0.0641
vn -0.7294 0.5152 0.4500
vn -0.6432 0.6221 0.4463
vn -0.4658 0.6048 0.6460
vn 0.1007 0.9897 -0.1019
vn 0.1010 0.9926 -0.0667
vn 0.0665 0.9957 -0.0648
vn -0.0293 0.9967 0.0756
vn -0.0386 0.9975 0.0587
vn -0.1343 0.9909 0.0126
vn 0.6829 0.4364 0.5857
vn 0.6849 0.4384 0.5820
vn 0.6964 0.4457 0.5625
vn 0.0882 0.9912 -0.0986
vn 0.0874 0.9907 -0.1042
vn -0.0267 0.9756 -0.2178
vn 0.1117 0.9905 0.0801
vn 0.0888 0.9961 -0.0019
vn 0.1192 0.9902 0.0731
vn 0.9502 0.3106 -0.0230
vn 0.9420 0.3111 0.1255
vn 0.9378 0.3029 0.1695
vn 0.1216 0.9924 0.0204
vn 0.0254 0.9980 -0.0571
vn 0.0885 0.9952 -0.0426
vn 0.1164 0.9894 -0.0873
vn -0.0051 0.9969 -0.0786
vn 0.8392 0.5438 0.0015
vn 0.7840 0.5066 0.3588
vn 0.8144 0.5193 0.2589
vn -0.0011 0.9997 0.0239
vn 0.1152 0.9933 0.0100
vn 0.1492 0.9868 0.0630
vn 0.1285 0.9915 0.0218
vn 0.1206 0.9915 -0.0488
vn -0.0059 0.9865 0.1639
vn -0.0398 0.9978 0.0522
vn 0.0920 0.9944 -0.0520
vn 0.1367 0.9893 0.0518
vn 0.1140 0.9913 -0.0661
vn 0.1971 0.9800 0.0281
vn 0.0693 0.9726 0.2221
vn 0.0158 0.9964 0.0830
vn 0.1143 0.9921 0.0521
vn -0.0271 0.9917 -0.1259
vn 0.0298 0.9931 -0.1131
vn -0.0712 0.9824 0.1726
vn -0.1414 0.9886 -0.0516
vn -0.2026 0.9762 -0.0775
vn 0.7969 0.2574 0.5465
vn 0.0812 0.9943 -0.0691
vn 0.3470 0.9373 0.0323
vn 0.0886 0.9960 0.0079
vn -0.0001 0.9959 0.0906
vn -0.0061 0.9999 -0.0123
vn -0.0001 1.0000 -0.0000
vn -0.0077 0.9999 0.0077
vn 0.0976 0.9952 -0.0016
vn 0.1639 0.9865 -0.0023
vn 0.2177 0.9759 0.0136
vn 0.1254 0.9912 -0.0435
vn -0.1478 0.9769 0.1542
vn -0.1179 0.9927 0.0261
vn -0.0099 0.9982 0.0584
vn 0.0853 0.8954 0.4370
vn -0.0021 0.9315 0.3638
vn 0.1228 0.9459 0.3003
vn -0.0852 0.6188 0.7809
vn 0.0690 0.9969 -0.0371
vn -0.1113 0.9507 -0.2893
vn -0.2225 0.9263 0.3040
vn -0.1474 0.9805 0.1297
vn -0.0585 0.9936 0.0963
vn 0.0453 0.9982 -0.0388
vn 0.0509 0.9987 -0.0057
vn 0.0737 0.9970 -0.0219
vn -0.0325 0.9994 0.0122
vn 0.1263 0.9850 0.1172
vn 0.1248 0.9733 0.1927
vn 0.0972 0.9876 0.1237
vn -0.0003 1.0000 -0.0000
vn 0.1893 0.9818 -0.0129
vn 0.1893 0.9819 -0.0005
vn 0.1893 0.9819 0.0116
vn -0.8113 0.5846 0.0069
vn 0.2127 0.9743 -0.0739
vn 0.1084 0.9940 -0.0126
vn 0.1000 0.9940 -0.0442
vn 0.0222 0.9992 0.0325
vn 0.2439 0.9676 -0.0658
vn -0.8190 0.5317 0.2157
vn 0.6250 0.7128 0.3182
vn -0.5177 0.6722 0.5292
vn 0.0377 0.9753 0.2178
vn 0.1555 0.9823 0.1042
vn 0.1491 0.9733 0.1743
vn 0.1768 0.9797 0.0943
vn 0.8297 0.5581 -0.0142
vn 0.1892 0.9816 -0.0250
vn 0.0559 0.9963 -0.0648
vn 0.0874 0.9955 -0.0374
vn 0.0963 0.9681 0.2315
vn -0.0643 0.9976 0.0247
vn -0.1807 0.9622 -0.2039
vn 0.0936 0.9923 -0.0811
vn 0.0313 0.9751 -0.2194
vn 0.9472 0.3189 -0.0346
vn -0.7509 0.4875 0.4455
vn -0.0149 0.9924 0.1223
vn 0.1840 0.9829 0.0061
vn -0.2893 0.9514 0.1058
vn 0.1124 0.9917 -0.0618
vn 0.0633 0.9874 0.1453
vn 0.1977 0.9783 0.0616
vn 0.0780 0.9932 -0.0866
vn -0.0350 0.9990 -0.0290
vn 0.0000 0.9978 0.0662
vn -0.2018 0.9155 -0.3480
vn 0.0044 0.9975 -0.0707
vn 0.0983 0.9936 -0.0554
vn 0.1766 0.9735 -0.1452
vn 0.1367 0.9905 0.0134
vn 0.0562 0.9868 -0.1520
vn 0.0887 0.9953 0.0381
vn 0.1951 0.9756 0.1003
vn 0.0000 1.0000 -0.0013
vn -0.0003 1.0000 -0.0004
vn -0.0109 0.9999 -0.0064
# 146 vertex normals

vt 0.5354 0.4141 0.0000
vt 0.5253 0.4444 0.0000
vt 0.5253 0.4040 0.0000
vt 0.6465 0.3939 0.0000
vt 0.6667 0.3838 0.0000
vt 0.6869 0.3737 0.0000
vt 0.6970 0.4343 0.0000
vt 0.6970 0.4444 0.0000
vt 0.7071 0.3636 0.0000
vt 0.7374 0.3939 0.0000
vt 0.7374 0.4040 0.0000
vt 0.6869 0.3636 0.0000
vt 0.6061 0.4949 0.0000
vt 0.5859 0.4848 0.0000
vt 0.5960 0.4747 0.0000
vt 0.6263 0.4949 0.0000
vt 0.6162 0.5051 0.0000
vt 0.6162 0.4848 0.0000
vt 0.4848 0.4646 0.0000
vt 0.4747 0.4646 0.0000
vt 0.4747 0.4444 0.0000
vt 0.4949 0.4545 0.0000
vt 0.4949 0.4444 0.0000
vt 0.5051 0.4343 0.0000
vt 0.5354 0.4747 0.0000
vt 0.5253 0.4646 0.0000
vt 0.5354 0.4646 0.0000
vt 0.6061 0.4747 0.0000
vt 0.4646 0.4040 0.0000
vt 0.4848 0.4040 0.0000
vt 0.7273 0.4040 0.0000
vt 0.6465 0.5354 0.0000
vt 0.6263 0.5354 0.0000
vt 0.6465 0.5253 0.0000
vt 0.4848 0.4545 0.0000
vt 0.4848 0.4444 0.0000
vt 0.5556 0.4040 0.0000
vt 0.5455 0.4040 0.0000
vt 0.5455 0.3939 0.0000
vt 0.5657 0.5051 0.0000
vt 0.5556 0.4848 0.0000
vt 0.5758 0.5051 0.0000
vt 0.5455 0.4949 0.0000
vt 0.5455 0.4747 0.0000
vt 0.4848 0.4343 0.0000
vt 0.4545 0.4444 0.0000
vt 0.4545 0.4141 0.0000
vt 0.7172 0.4242 0.0000
vt 0.5758 0.4343 0.0000
vt 0.5051 0.4848 0.0000
vt 0.4949 0.4646 0.0000
vt 0.5051 0.4646 0.0000
vt 0.6465 0.4848 0.0000
vt 0.6263 0.4747 0.0000
vt 0.5960 0.5051 0.0000
vt 0.5859 0.4949 0.0000
vt 0.6162 0.4747 0.0000
vt 0.6364 0.5455 0.0000
vt 0.6162 0.5455 0.0000
vt 0.5152 0.4040 0.0000
vt 0.5152 0.4545 0.0000
vt 0.5354 0.4545 0.0000
vt 0.5253 0.4747 0.0000
vt 0.5152 0.4747 0.0000
vt 0.5152 0.4646 0.0000
vt 0.5859 0.4444 0.0000
vt 0.5859 0.4545 0.0000
vt 0.6667 0.4949 0.0000
vt 0.6566 0.4848 0.0000
vt 0.6667 0.4848 0.0000
vt 0.5556 0.4545 0.0000
vt 0.5455 0.4646 0.0000
vt 0.4646 0.3939 0.0000
vt 0.6970 0.4545 0.0000
vt 0.6869 0.4545 0.0000
vt 0.6667 0.4747 0.0000
vt 0.6364 0.4545 0.0000
vt 0.6768 0.4646 0.0000
vt 0.4646 0.4747 0.0000
vt 0.4545 0.4747 0.0000
vt 0.4545 0.4545 0.0000
vt 0.6566 0.5152 0.0000
vt 0.6465 0.5152 0.0000
vt 0.6465 0.5051 0.0000
vt 0.7273 0.4242 0.0000
vt 0.6667 0.3737 0.0000
vt 0.4646 0.5051 0.0000
vt 0.4444 0.5051 0.0000
vt 0.4545 0.4949 0.0000
vt 0.4747 0.4343 0.0000
vt 0.5960 0.4646 0.0000
vt 0.6667 0.5051 0.0000
vt 0.6566 0.5051 0.0000
vt 0.6566 0.4949 0.0000
vt 0.4848 0.3939 0.0000
vt 0.4848 0.3838 0.0000
vt 0.4949 0.3838 0.0000
vt 0.6162 0.5253 0.0000
vt 0.5758 0.5152 0.0000
vt 0.5556 0.5152 0.0000
vt 0.5556 0.5051 0.0000
vt 0.7172 0.4343 0.0000
vt 0.6869 0.4646 0.0000
vt 0.5152 0.4848 0.0000
vt 0.6768 0.4747 0.0000
vt 0.6162 0.4646 0.0000
vt 0.5657 0.4848 0.0000
vt 0.5556 0.4747 0.0000
vt 0.6566 0.3838 0.0000
vt 0.4747 0.4949 0.0000
vt 0.4646 0.4848 0.0000
vt 0.4747 0.4848 0.0000
vt 0.4949 0.4747 0.0000
vt 0.5657 0.4646 0.0000
vt 0.5051 0.3838 0.0000
vt 0.4646 0.4949 0.0000
vt 0.6566 0.4747 0.0000
vt 0.5859 0.4343 0.0000
vt 0.5253 0.3939 0.0000
vt 0.5354 0.3838 0.0000
vt 0.5354 0.4848 0.0000
vt 0.6465 0.5455 0.0000
vt 0.6061 0.5152 0.0000
vt 0.6566 0.5253 0.0000
vt 0.5455 0.5051 0.0000
vt 0.4545 0.4848 0.0000
vt 0.5556 0.4343 0.0000
vt 0.6465 0.4747 0.0000
vt 0.6162 0.5354 0.0000
vt 0.5971 0.4624 0.0000
vt 0.5758 0.4242 0.0000
vt 0.5657 0.4141 0.0000
vt 0.4545 0.4040 0.0000
vt 0.6263 0.4646 0.0000
vt 0.5354 0.3939 0.0000
vt 0.4747 0.3939 0.0000
vt 0.5960 0.5152 0.0000
vt 0.6303 0.4040 0.0000
vt 0.6364 0.4040 0.0000
vt 0.6309 0.4545 0.0000
vt 0.6364 0.3939 0.0000
# 141 texture coords

g shandi_001_xuanya003
usemtl shandi_001_xuanya
s 1
f 1/1/1 2/2/2 3/3/3 
f 4/4/4 5/5/4 6/6/5 7/7/6 8/8/5 
f 9/9/7 10/10/7 11/11/7 12/12/5 
f 13/13/8 14/14/9 15/15/10 
f 16/16/11 17/17/12 18/18/13 
s 2
f 19/19/14 20/20/15 21/21/16 
s 1
f 22/22/17 23/23/18 24/24/19 
s 2
f 25/25/20 26/26/21 27/27/22 
s 1
f 28/28/23 13/13/8 15/15/10 
f 24/24/19 29/29/24 30/30/25 
f 6/6/5 12/12/5 11/11/7 31/31/5 
f 32/32/26 33/33/27 34/34/28 
s 4
f 22/22/29 35/35/30 36/36/31 
s 1
f 37/37/32 38/38/33 39/39/34 
f 40/40/35 41/41/36 42/42/37 
s 4
f 43/43/38 25/25/39 44/44/40 
s 1
f 24/24/19 45/45/41 29/29/24 
f 21/21/42 46/46/43 47/47/44 
f 48/48/5 7/7/6 6/6/5 
f 49/49/45 1/1/1 38/38/33 
s 4
f 50/50/46 51/51/47 52/52/48 
s 1
f 53/53/49 16/16/11 54/54/50 
f 55/55/51 56/56/52 13/13/8 
f 16/16/11 57/57/53 54/54/50 
f 58/58/54 59/59/55 33/33/27 
f 24/24/19 30/30/25 60/60/56 
f 26/26/57 61/61/58 62/62/59 
f 63/63/60 64/64/61 65/65/62 
f 31/31/5 48/48/5 6/6/5 
s 4
f 51/51/47 35/35/30 22/22/29 
s 1
f 66/66/63 67/67/64 49/49/45 
f 68/68/65 69/69/66 70/70/67 
s 4
f 44/44/40 25/25/39 27/27/68 
s 1
f 71/71/69 72/72/70 62/62/59 
f 30/30/25 29/29/24 73/73/71 
f 74/74/5 75/75/5 8/8/5 
f 76/76/72 77/77/73 78/78/74 
f 64/64/61 50/50/75 52/52/76 
f 79/79/77 80/80/78 81/81/79 
f 82/82/80 83/83/81 84/84/82 
f 85/85/5 48/48/5 31/31/5 
f 6/6/5 5/5/4 86/86/4 
f 87/87/83 88/88/84 89/89/85 
f 1/1/1 3/3/3 38/38/33 
s 8
f 35/35/86 21/21/86 36/36/86 
s 1
f 90/90/87 47/47/44 45/45/41 
f 28/28/23 15/15/10 91/91/88 
f 84/84/82 16/16/11 53/53/49 
f 92/92/89 93/93/90 94/94/91 
f 16/16/11 18/18/13 57/57/53 
f 95/95/92 96/96/93 97/97/94 
f 16/16/11 98/98/95 17/17/12 
f 99/99/96 100/100/97 101/101/98 
f 102/102/4 7/7/6 48/48/5 
f 92/92/89 94/94/91 68/68/65 
f 103/103/5 78/78/74 75/75/5 
f 104/104/4 50/50/75 64/64/61 
f 105/105/99 76/76/72 78/78/74 
f 51/51/100 19/19/101 35/35/102 
s 2
f 19/19/14 21/21/16 35/35/103 
s 1
f 54/54/50 57/57/53 106/106/104 
f 107/107/105 108/108/106 71/71/69 
f 41/41/36 43/43/107 44/44/108 
f 4/4/4 109/109/4 5/5/4 
s 2
f 25/25/20 63/63/109 26/26/21 
s 1
f 63/63/60 65/65/62 26/26/57 
f 72/72/70 27/27/110 62/62/59 
s 2
f 27/27/22 26/26/21 62/62/111 
s 1
f 110/110/112 111/111/113 112/112/114 
f 22/22/17 36/36/115 23/23/18 
f 36/36/115 90/90/87 45/45/41 
s 4
f 50/50/46 113/113/116 51/51/47 
s 1
f 113/113/117 19/19/101 51/51/100 
f 114/114/118 71/71/69 67/67/64 
f 67/67/64 1/1/1 49/49/45 
f 60/60/56 95/95/92 97/97/94 
f 60/60/56 97/97/94 115/115/119 
f 87/87/83 89/89/85 116/116/120 
f 70/70/67 69/69/66 117/117/121 
f 66/66/63 49/49/45 118/118/122 
f 119/119/123 115/115/119 120/120/124 
f 119/119/123 60/60/56 115/115/119 
s 4
f 43/43/38 121/121/125 25/25/39 
s 2
f 121/121/126 63/63/109 25/25/20 
s 1
f 122/122/127 33/33/27 32/32/26 
f 98/98/95 123/123/128 17/17/12 
f 123/123/128 55/55/51 17/17/12 
f 124/124/129 83/83/81 82/82/80 
f 20/20/130 81/81/79 21/21/42 
f 20/20/130 79/79/77 81/81/79 
f 108/108/106 72/72/70 71/71/69 
f 44/44/108 27/27/110 72/72/70 
f 100/100/97 125/125/131 101/101/98 
f 45/45/41 47/47/44 29/29/24 
f 111/111/113 80/80/78 79/79/77 
f 116/116/120 89/89/85 126/126/132 
f 83/83/81 16/16/11 84/84/82 
f 34/34/28 33/33/27 16/16/11 
f 62/62/59 2/2/2 127/127/133 
f 62/62/59 61/61/58 2/2/2 
f 14/14/9 114/114/118 15/15/10 
f 56/56/52 42/42/37 107/107/105 
f 69/69/66 128/128/134 117/117/121 
f 94/94/91 84/84/82 53/53/49 
f 49/49/45 38/38/33 37/37/32 
f 71/71/69 127/127/133 67/67/64 
f 71/71/69 62/62/59 127/127/133 
f 93/93/90 84/84/82 94/94/91 
f 82/82/80 84/84/82 93/93/90 
f 59/59/55 129/129/135 33/33/27 
f 33/33/27 98/98/95 16/16/11 
f 55/55/51 42/42/37 56/56/52 
f 2/2/2 24/24/19 60/60/56 
f 61/61/58 24/24/19 2/2/2 
f 15/15/10 114/114/118 67/67/64 
f 91/91/88 15/15/10 67/67/64 
f 112/112/114 79/79/77 20/20/130 
f 112/112/114 111/111/113 79/79/77 
f 42/42/37 41/41/36 107/107/105 
f 107/107/105 41/41/36 108/108/106 
f 70/70/67 117/117/121 76/76/72 
f 76/76/72 117/117/121 77/77/73 
f 61/61/58 22/22/17 24/24/19 
s 4
f 52/52/48 51/51/47 22/22/29 
s 1
f 91/91/88 67/67/64 130/130/136 
f 28/28/23 91/91/88 130/130/136 
f 68/68/65 94/94/91 69/69/66 
f 94/94/91 53/53/49 69/69/66 
f 101/101/98 43/43/107 41/41/36 
f 101/101/98 125/125/131 43/43/107 
f 110/110/112 116/116/120 111/111/113 
f 116/116/120 126/126/132 111/111/113 
f 18/18/13 17/17/12 13/13/8 28/28/23 
f 18/18/13 28/28/23 57/57/53 
f 131/131/137 49/49/45 132/132/138 
f 118/118/122 49/49/45 131/131/137 
f 29/29/24 47/47/44 133/133/139 
f 53/53/49 54/54/50 134/134/140 
f 54/54/50 106/106/104 134/134/140 
f 36/36/115 21/21/42 90/90/87 
f 21/21/42 47/47/44 90/90/87 
f 99/99/96 42/42/37 55/55/51 
f 99/99/96 40/40/35 42/42/37 
f 26/26/57 65/65/62 61/61/58 
f 65/65/62 22/22/17 61/61/58 
f 3/3/3 119/119/123 135/135/141 
f 135/135/141 119/119/123 120/120/124 
f 34/34/28 16/16/11 83/83/81 
f 124/124/129 34/34/28 83/83/81 
f 14/14/9 107/107/105 114/114/118 
f 107/107/105 71/71/69 114/114/118 
f 2/2/2 60/60/56 3/3/3 
f 111/111/113 126/126/132 80/80/78 
f 60/60/56 30/30/25 95/95/92 
f 30/30/25 136/136/142 95/95/92 
f 41/41/36 44/44/108 108/108/106 
f 108/108/106 44/44/108 72/72/70 
f 17/17/12 55/55/51 13/13/8 
f 3/3/3 60/60/56 119/119/123 
f 67/67/64 127/127/133 1/1/1 
f 127/127/133 2/2/2 1/1/1 
f 23/23/18 45/45/41 24/24/19 
f 23/23/18 36/36/115 45/45/41 
f 39/39/34 135/135/141 120/120/124 
f 122/122/127 58/58/54 33/33/27 
f 38/38/33 135/135/141 39/39/34 
f 38/38/33 3/3/3 135/135/141 
f 56/56/52 107/107/105 14/14/9 
f 13/13/8 56/56/52 14/14/9 
f 77/77/73 117/117/121 128/128/134 134/134/140 
f 33/33/27 129/129/135 98/98/95 
f 132/132/138 49/49/45 37/37/32 
f 99/99/96 101/101/98 40/40/35 
f 40/40/35 101/101/98 41/41/36 
f 21/21/42 81/81/79 46/46/43 
f 137/137/143 99/99/96 55/55/51 
f 123/123/128 137/137/143 55/55/51 
f 64/64/61 52/52/76 65/65/62 
f 65/65/62 52/52/76 22/22/17 
f 69/69/66 53/53/49 128/128/134 
f 53/53/49 134/134/140 128/128/134 
f 30/30/25 73/73/71 136/136/142 
f 138/138/144 139/139/145 140/140/146 
f 140/140/146 77/77/73 134/134/140 
f 75/75/5 139/139/145 4/4/4 8/8/5 
f 139/139/145 77/77/73 140/140/146 
f 75/75/5 78/78/74 77/77/73 139/139/145 
f 139/139/145 141/141/4 4/4/4 
# 7 polygons - 181 triangles

