# 3ds Max Wavefront OBJ Exporter v0.97b - (c)2007 guruware
# File Created: 16.08.2016 16:05:27

mtllib T2Mxuzhang_001_shandi_001.mtl

#
# object default
#

v  -105.0505 1.0071 66.6667
v  -103.0303 9.9982 50.5051
v  -107.0707 1.0071 56.5657
v  -68.6869 9.9982 68.6869
v  -58.5859 9.8583 94.9495
v  -58.5859 10.0348 64.6465
v  -101.0101 9.9982 64.6465
v  -66.6667 9.9982 24.2424
v  -127.2727 1.0071 88.8889
v  -109.0909 1.0071 80.8081
v  -121.2121 0.3107 78.7879
v  -64.6465 9.9982 42.4242
v  -64.6465 9.9980 24.2424
v  -117.1717 1.0071 60.6061
v  -111.1111 0.9200 70.7071
v  -107.0707 1.0071 52.5252
v  -113.1313 1.0071 26.2626
v  -103.0303 1.0071 40.4040
v  -103.0303 1.0071 14.1414
v  -119.1919 -0.2546 42.4242
v  -113.1313 1.0071 103.0303
v  -105.0505 1.0071 84.8485
v  -103.0303 2.0326 90.9091
v  -103.0303 9.9980 88.8889
v  -101.0101 9.9980 38.3838
v  -66.6667 9.9980 10.1010
v  -98.9899 9.9980 10.1010
v  -62.6263 10.0348 60.6061
v  -98.9899 9.9754 98.9899
v  -64.6465 10.0348 98.9899
v  -98.9899 0.8251 76.7677
v  -96.9697 9.9982 80.8081
v  -98.9899 9.9982 74.7475
v  -109.0909 0.0000 78.7879
v  -101.0101 0.0000 76.7677
v  -119.1919 -0.0822 70.7071
v  -101.0101 9.9980 12.1212
v  -101.0101 0.0000 72.7273
v  -98.9899 9.9982 42.4242
v  -129.2929 -0.0829 105.0505
v  -129.2929 -0.0829 86.8687
v  -105.0505 1.0071 46.4646
v  -101.0101 1.0071 42.4242
v  -101.0101 9.9982 88.8889
v  -101.0101 9.9980 96.9697
v  -115.1515 1.0071 32.3232
v  -119.1919 -0.2546 30.3030
v  -101.0101 1.0071 82.8283
v  -98.9899 9.9982 70.7071
v  -111.1111 2.0143 103.0303
v  -103.0303 2.0143 98.9899
v  -127.2727 1.0071 103.0303
v  -62.6263 9.9980 42.4242
v  -121.2121 -0.0822 70.7071
v  -119.1919 -0.2546 52.5252
v  -119.1919 0.6204 60.6061
v  -60.6061 10.0348 60.6061
# 57 vertices

vn -0.8082 0.4606 0.3670
vn -0.8972 0.3829 -0.2201
vn -0.8753 0.4701 0.1138
vn -0.0004 1.0000 0.0013
vn 0.0214 0.9998 -0.0029
vn -0.0017 1.0000 0.0037
vn 0.0000 1.0000 -0.0000
vn -0.2443 0.9679 -0.0596
vn -0.0235 0.9779 -0.2076
vn -0.0276 0.9944 -0.1018
vn -0.8837 0.3876 0.2622
vn -0.0004 1.0000 -0.0007
vn 0.0001 1.0000 0.0000
vn -0.1167 0.9932 -0.0028
vn -0.0560 0.9170 0.3949
vn -0.0004 1.0000 0.0011
vn -0.2147 0.9627 -0.1644
vn -0.0301 0.9995 0.0051
vn -0.0539 0.9975 -0.0449
vn -0.1246 0.9922 0.0031
vn -0.1469 0.9848 -0.0932
vn -0.0349 0.9993 -0.0155
vn -0.9497 0.0770 0.3035
vn -0.8973 0.3323 -0.2907
vn -0.8854 0.2037 -0.4179
vn -0.9757 0.2192 -0.0000
vn -0.0000 1.0000 -0.0000
vn -0.0046 1.0000 0.0001
vn 0.0029 1.0000 0.0037
vn 0.0104 0.9999 -0.0026
vn -0.9626 0.2538 -0.0949
vn -0.9375 0.2530 -0.2388
vn -0.9797 0.1441 0.1396
vn -0.0250 0.9673 -0.2525
vn -0.1679 0.8801 -0.4440
vn -0.0469 0.9978 0.0460
vn -0.5768 0.8147 -0.0591
vn 0.0131 0.9972 0.0735
vn -0.9339 0.2871 0.2131
vn -0.4748 0.8801 -0.0000
vn -0.3491 0.9250 -0.1500
vn -0.7640 0.3994 -0.5068
vn -0.7637 0.3281 -0.5560
vn -0.0000 1.0000 -0.0001
vn 0.0033 1.0000 0.0038
vn -0.9694 0.2456 0.0003
vn -0.9693 0.2458 0.0000
vn -0.1520 0.9884 0.0017
vn -0.2921 0.9539 -0.0694
vn -0.6725 0.1389 -0.7269
vn 0.0000 1.0000 0.0000
vn -0.9584 0.2283 0.1712
vn -0.8769 0.1970 -0.4384
vn -0.3506 0.9073 -0.2323
vn -0.4782 0.8783 0.0020
vn -0.9802 0.1981 -0.0000
vn -0.2903 0.9569 -0.0000
vn 0.0048 0.9998 -0.0194
vn -0.7367 0.2772 0.6168
vn -0.8769 0.1970 0.4384
vn -0.8441 0.2198 0.4891
vn 0.0224 0.9982 0.0551
vn -0.0203 0.9998 0.0004
vn -0.9152 0.3833 -0.1245
vn 0.0001 1.0000 -0.0020
vn 0.0160 0.9993 -0.0342
vn -0.5052 0.8630 -0.0085
vn -0.1880 0.9820 -0.0191
vn -0.6739 0.3028 0.6739
vn -0.1087 0.9431 -0.3142
vn -0.0875 0.2143 0.9729
vn -0.6639 0.3369 0.6676
vn -0.0000 0.2458 0.9693
# 73 vertex normals

vt 0.5253 0.3333 0.0000
vt 0.5152 0.2525 0.0000
vt 0.5354 0.2828 0.0000
vt 0.3434 0.3434 0.0000
vt 0.2929 0.4747 0.0000
vt 0.2929 0.3232 0.0000
vt 0.5051 0.3232 0.0000
vt 0.3333 0.1212 0.0000
vt 0.6364 0.4444 0.0000
vt 0.5455 0.4040 0.0000
vt 0.6061 0.3939 0.0000
vt 0.3232 0.2121 0.0000
vt 0.3232 0.1212 0.0000
vt 0.5859 0.3030 0.0000
vt 0.5556 0.3535 0.0000
vt 0.5354 0.2626 0.0000
vt 0.5657 0.1313 0.0000
vt 0.5152 0.2020 0.0000
vt 0.5152 0.0707 0.0000
vt 0.5960 0.2121 0.0000
vt 0.5657 0.5152 0.0000
vt 0.5253 0.4242 0.0000
vt 0.5152 0.4545 0.0000
vt 0.5152 0.4444 0.0000
vt 0.5051 0.1919 0.0000
vt 0.3333 0.0505 0.0000
vt 0.4949 0.0505 0.0000
vt 0.3131 0.3030 0.0000
vt 0.4949 0.4949 0.0000
vt 0.3232 0.4949 0.0000
vt 0.4949 0.3838 0.0000
vt 0.4848 0.4040 0.0000
vt 0.4949 0.3737 0.0000
vt 0.5455 0.3939 0.0000
vt 0.5051 0.3838 0.0000
vt 0.5960 0.3535 0.0000
vt 0.5051 0.0606 0.0000
vt 0.5051 0.3636 0.0000
vt 0.4949 0.2121 0.0000
vt 0.6465 0.5253 0.0000
vt 0.6465 0.4343 0.0000
vt 0.5253 0.2323 0.0000
vt 0.5051 0.2121 0.0000
vt 0.5051 0.4444 0.0000
vt 0.5051 0.4848 0.0000
vt 0.5758 0.1616 0.0000
vt 0.5960 0.1515 0.0000
vt 0.5051 0.4141 0.0000
vt 0.4949 0.3535 0.0000
vt 0.5556 0.5152 0.0000
vt 0.5152 0.4949 0.0000
vt 0.6364 0.5152 0.0000
vt 0.3131 0.2121 0.0000
vt 0.6061 0.3535 0.0000
vt 0.5960 0.2626 0.0000
vt 0.5960 0.3030 0.0000
vt 0.3030 0.3030 0.0000
# 57 texture coords

g default
usemtl _T2Mxuzhang_001_shandidefault
s 4
f 1/1/1 2/2/2 3/3/3 
s 1
f 4/4/4 5/5/5 6/6/6 
f 7/7/7 8/8/7 2/2/7 
s 2
f 9/9/8 10/10/9 11/11/10 
s 4
f 1/1/1 7/7/11 2/2/2 
s 1
f 4/4/4 12/12/12 13/13/13 
s 2
f 14/14/14 15/15/15 16/16/16 
f 17/17/17 18/18/18 19/19/19 
f 20/20/20 14/14/14 18/18/18 
f 21/21/21 22/22/22 9/9/8 
s 4
f 23/23/23 24/24/24 22/22/25 
f 18/18/26 25/25/26 19/19/26 
s 1
f 25/25/27 26/26/27 27/27/7 
f 4/4/4 28/28/28 12/12/12 
f 29/29/29 30/30/30 4/4/4 
s 4
f 31/31/31 32/32/32 33/33/33 
s 2
f 34/34/34 35/35/35 36/36/36 
s 4
f 19/19/26 25/25/26 37/37/26 
s 2
f 21/21/21 23/23/37 22/22/22 
f 36/36/36 38/38/38 15/15/15 
s 4
f 38/38/39 7/7/11 1/1/1 
s 1
f 39/39/27 8/8/7 26/26/27 
s 2
f 40/40/40 9/9/8 41/41/41 
s 4
f 42/42/42 2/2/2 43/43/43 
s 2
f 16/16/16 18/18/18 14/14/14 
s 1
f 44/44/44 45/45/45 4/4/4 
s 2
f 23/23/37 45/45/46 44/44/47 
f 36/36/36 15/15/15 14/14/14 
f 20/20/20 18/18/18 46/46/48 
f 47/47/49 17/17/17 19/19/19 
f 41/41/41 9/9/8 11/11/10 
s 4
f 48/48/50 32/32/32 31/31/31 
s 2
f 10/10/9 35/35/35 34/34/34 
s 1
f 4/4/4 6/6/6 28/28/28 
f 7/7/7 4/4/4 8/8/7 
f 32/32/51 4/4/4 33/33/7 
s 4
f 38/38/39 49/49/52 7/7/11 
s 1
f 49/49/7 4/4/4 7/7/7 
s 4
f 2/2/2 39/39/53 43/43/43 
s 1
f 2/2/7 8/8/7 39/39/27 
s 2
f 21/21/21 50/50/54 23/23/37 
f 51/51/55 45/45/46 23/23/37 
s 1
f 24/24/44 4/4/4 32/32/51 
s 4
f 24/24/24 32/32/32 22/22/25 
s 1
f 30/30/30 5/5/5 4/4/4 
s 2
f 20/20/20 46/46/48 47/47/49 
f 35/35/35 38/38/38 36/36/36 
s 4
f 35/35/56 33/33/33 38/38/39 
s 2
f 52/52/57 21/21/21 9/9/8 
f 40/40/40 52/52/57 9/9/8 
f 9/9/8 22/22/22 48/48/58 
s 4
f 22/22/25 32/32/32 48/48/50 
s 2
f 50/50/54 51/51/55 23/23/37 
s 1
f 39/39/27 26/26/27 25/25/27 
s 8
f 43/43/59 39/39/60 25/25/61 
s 2
f 15/15/15 38/38/38 1/1/62 
f 15/15/15 1/1/62 3/3/63 
s 4
f 3/3/3 2/2/2 16/16/64 
s 2
f 15/15/15 3/3/63 16/16/16 
s 1
f 37/37/7 25/25/27 27/27/7 
f 12/12/12 28/28/28 53/53/65 
s 2
f 54/54/66 34/34/34 36/36/36 
f 55/55/67 14/14/14 20/20/20 
f 36/36/36 14/14/14 56/56/68 
s 4
f 38/38/39 33/33/33 49/49/52 
s 1
f 33/33/7 4/4/4 49/49/7 
s 8
f 18/18/69 43/43/59 25/25/61 
s 2
f 42/42/7 43/43/7 18/18/18 
f 10/10/9 31/31/70 35/35/35 
s 8
f 35/35/71 31/31/71 33/33/71 
s 1
f 45/45/45 29/29/29 4/4/4 
s 4
f 51/51/72 29/29/72 45/45/72 
s 2
f 11/11/10 10/10/9 34/34/34 
f 11/11/10 34/34/34 54/54/66 
s 1
f 4/4/4 13/13/13 8/8/7 
f 6/6/6 57/57/7 28/28/28 
s 4
f 16/16/64 2/2/2 42/42/42 
s 2
f 16/16/16 42/42/7 18/18/18 
f 46/46/48 18/18/18 17/17/17 
f 46/46/48 17/17/17 47/47/49 
f 9/9/8 48/48/58 10/10/9 
f 10/10/9 48/48/58 31/31/70 
s 1
f 44/44/44 4/4/4 24/24/44 
s 8
f 23/23/73 44/44/73 24/24/73 
s 2
f 56/56/68 14/14/14 55/55/67 
# 0 polygons - 85 triangles

