# 3ds Max Wavefront OBJ Exporter v0.97b - (c)2007 guruware
# File Created: 16.08.2016 16:05:37

mtllib T2Mxuzhang_001_shandi_002.mtl

#
# object default
#

v  -115.1515 3.1141 185.8586
v  -113.1313 18.0000 185.8586
v  -123.2323 18.0000 183.8384
v  -133.3333 1.0284 131.3131
v  -125.2525 1.0848 123.2323
v  -137.3737 0.8801 129.2929
v  -92.9293 17.6476 141.4141
v  -68.6869 17.2566 139.3939
v  -94.9495 15.6931 133.3333
v  -103.0303 18.0000 143.4343
v  -96.9697 16.7692 137.3737
v  -103.0303 2.0143 141.4141
v  -96.9697 1.9860 133.3333
v  -94.9495 2.0143 113.1313
v  -98.9899 2.0143 101.0101
v  -103.0303 2.0143 98.9899
v  -129.2929 1.9962 131.3131
v  -123.2323 2.0143 121.2121
v  -125.2525 3.0031 185.8586
v  -129.2929 3.0031 181.8182
v  -82.8283 18.0004 181.8182
v  -74.7475 18.0000 177.7778
v  -109.0909 18.0000 145.4545
v  -68.6869 15.4558 133.3333
v  -70.7071 12.8496 117.1717
v  -90.9091 11.1029 111.1111
v  -90.9091 13.1611 121.2121
v  -84.8485 10.2804 101.0101
v  -92.9293 2.7930 121.2121
v  -145.4545 3.0031 163.6364
v  -145.4545 3.0031 171.7172
v  -131.3131 3.0031 151.5151
v  -133.3333 3.1844 171.7172
v  -129.2929 18.0000 171.7172
v  -129.2929 18.0000 155.5555
v  -98.9899 9.9754 98.9899
v  -92.9293 10.4382 105.0505
v  -133.3333 3.0031 185.8586
v  -68.6869 18.0004 145.4545
v  -133.3333 3.6152 163.6364
v  -145.4545 3.0031 177.7778
v  -64.6465 10.0348 98.9899
v  -129.2929 0.9243 119.1919
v  -145.4545 0.0000 149.4949
v  -141.4141 1.9830 141.4141
v  -141.4141 0.0000 139.3939
v  -149.4949 0.0000 181.8182
v  -149.4949 0.0000 165.6566
v  -143.4343 -1.4727 187.8788
v  -133.3333 1.1669 187.8788
v  -119.1919 18.0000 149.4949
v  -117.1717 2.0143 147.4747
v  -125.2525 3.0031 147.4747
v  -133.3333 2.3892 147.4747
v  -123.2323 2.0143 143.4343
v  -66.6667 18.0004 167.6768
v  -96.9697 9.9980 103.0303
v  -115.1515 18.0000 147.4747
v  -111.1111 2.0143 145.4545
v  -101.0101 18.0004 185.8586
v  -84.8485 18.0000 185.8586
v  -111.1111 2.0143 111.1111
v  -111.1111 2.0143 103.0303
v  -70.7071 10.6860 105.0505
v  -129.2929 -0.0829 113.1313
v  -113.1313 1.0071 111.1111
v  -127.2727 1.0071 103.0303
v  -147.4747 -1.4727 183.8384
v  -147.4747 0.0000 181.8182
v  -145.4545 2.7478 151.5151
v  -127.2727 18.0004 171.7172
v  -127.2727 18.0004 179.7980
v  -62.6263 18.0000 165.6566
v  -62.6263 18.0000 153.5353
v  -141.4141 0.0000 135.3535
v  -137.3737 1.7829 135.3535
v  -131.3131 3.0031 173.7374
v  -129.2929 3.5832 173.7374
v  -143.4343 2.9127 181.8182
v  -133.3333 3.0031 157.5757
v  -96.9697 2.0143 105.0505
v  -127.2727 17.8899 151.5151
v  -92.9293 15.0520 129.2929
v  -94.9495 2.0143 127.2727
v  -149.4949 0.0000 147.4747
v  -117.1717 1.2927 187.8788
v  -66.6667 18.0004 153.5353
v  -113.1313 1.0071 103.0303
v  -147.4747 0.0000 163.6364
v  -141.4141 2.8017 183.8384
v  -143.4343 -1.4727 183.8384
v  -149.4949 0.0000 157.5757
v  -66.6667 17.3454 139.3939
v  -68.6869 12.9550 117.1717
v  -139.3939 -0.2299 129.2929
v  -129.2929 -0.0829 105.0505
# 96 vertices

vn -0.0545 0.3443 0.9373
vn -0.1960 0.0266 0.9802
vn -0.1246 0.0667 0.9900
vn -0.1108 0.9718 -0.2081
vn -0.3826 0.8883 -0.2540
vn -0.2805 0.9379 -0.2042
vn 0.0042 0.9833 -0.1817
vn -0.0105 0.9843 -0.1762
vn 0.0108 0.9772 -0.2119
vn -0.4995 0.1086 -0.8595
vn -0.7876 0.1207 -0.6043
vn -0.6123 0.1101 -0.7829
vn 0.0058 1.0000 0.0020
vn -0.0300 0.9996 0.0001
vn 0.0008 1.0000 0.0002
vn 0.0000 1.0000 -0.0000
vn -0.1076 0.9877 -0.1134
vn -0.5116 0.7070 -0.4883
vn -0.6946 0.1871 0.6946
vn -0.8975 0.1771 0.4039
vn -0.0000 1.0000 0.0000
vn 0.0000 1.0000 0.0000
vn -0.0000 1.0000 -0.0000
vn 0.0064 0.9749 -0.2226
vn -0.0230 0.9854 -0.1686
vn -0.1552 0.9727 -0.1723
vn -0.0370 0.9777 -0.2065
vn -0.0098 0.9918 -0.1276
vn -0.9606 0.2540 -0.1129
vn -0.9657 0.1905 -0.1765
vn -0.9164 0.3715 0.1489
vn -0.8793 0.1493 -0.4522
vn -0.4103 0.9098 -0.0630
vn -0.3374 0.9414 0.0038
vn -0.4495 0.8113 -0.3738
vn -0.4485 0.8617 0.2374
vn -0.9619 0.2623 0.0770
vn -0.9395 0.2507 -0.2334
vn -0.4361 0.2213 0.8722
vn -0.0307 0.9972 -0.0687
vn -0.0485 0.9982 -0.0359
vn -0.0085 0.9681 0.2506
vn -0.0040 0.6903 0.7235
vn -0.0179 0.9998 0.0045
vn 0.0741 0.9958 -0.0547
vn -0.6502 0.7590 -0.0334
vn -0.4756 0.8761 0.0798
vn 0.0011 0.9940 -0.1094
vn -0.0544 0.9960 -0.0715
vn -0.5521 0.7966 -0.2461
vn -0.5221 0.8070 -0.2760
vn -0.6658 0.6665 -0.3354
vn -0.1737 0.9608 0.2162
vn -0.5108 0.8489 -0.1357
vn -0.1863 0.7214 0.6670
vn -0.1899 0.7265 0.6604
vn -0.1883 0.7243 0.6632
vn -0.1659 0.1972 -0.9662
vn 0.0156 0.1273 -0.9917
vn -0.0580 0.1563 -0.9860
vn -0.0196 0.9935 -0.1123
vn 0.0192 0.9966 -0.0802
vn 0.0001 1.0000 0.0001
vn -0.0006 0.9990 -0.0436
vn -0.8794 0.4307 0.2028
vn -0.8888 0.1125 0.4442
vn -0.7216 0.1699 0.6711
vn -0.8890 0.1126 0.4439
vn -0.3774 0.0477 -0.9248
vn -0.3382 0.0720 -0.9383
vn -0.0001 1.0000 -0.0001
vn -0.0021 1.0000 -0.0034
vn -0.1656 0.9842 -0.0623
vn -0.1996 0.9799 -0.0000
vn -0.0010 0.9916 -0.1293
vn -0.1031 0.9934 -0.0499
vn -0.2881 0.9393 -0.1864
vn -0.1560 0.9864 0.0513
vn -0.4610 0.7803 0.4226
vn -0.0824 0.8861 0.4561
vn -0.5410 0.8085 -0.2315
vn 0.0001 1.0000 0.0000
vn -0.9170 0.1720 0.3600
vn -0.9908 0.1356 0.0032
vn 0.0001 1.0000 -0.0000
vn -0.4112 0.9091 -0.0671
vn -0.2262 0.9644 -0.1367
vn -0.0398 0.1387 0.9895
vn -0.0371 0.1387 0.9896
vn -0.0031 0.1388 0.9903
vn -0.3051 0.9128 0.2714
vn -0.2299 0.9624 0.1444
vn -0.5688 0.8157 -0.1050
vn -0.7741 0.3802 0.5062
vn -0.8591 0.2783 0.4295
vn -0.0049 1.0000 -0.0082
vn -0.2392 0.2240 -0.9448
vn 0.0050 0.9854 -0.1699
vn -0.8804 0.1555 -0.4479
vn -0.8990 0.1997 -0.3898
vn -0.9340 0.1696 -0.3144
vn -0.0012 0.7424 0.6700
vn -0.0079 0.7474 0.6643
vn 0.0097 1.0000 -0.0024
vn -0.2292 0.9734 -0.0000
vn -0.5144 0.8226 -0.2426
vn -0.9041 0.4273 -0.0000
vn -0.7980 0.3771 0.4701
vn -0.8857 0.4186 0.2007
vn -0.0518 0.9987 -0.0000
vn -0.3894 0.9200 0.0435
vn -0.1822 0.8792 -0.4402
vn -0.8086 0.2195 -0.5459
vn 0.0029 0.9943 -0.1065
vn -0.2753 0.9589 0.0688
vn -0.9901 0.1401 0.0101
vn -0.0515 0.9869 -0.1527
vn -0.1399 0.9881 0.0644
vn -0.1852 0.7199 0.6690
vn 0.0011 0.9998 0.0210
vn 0.0144 0.9740 -0.2261
vn -0.4670 0.8500 -0.2438
vn -0.3376 0.0427 -0.9403
vn 0.0254 0.9990 -0.0381
vn -0.3597 0.9331 -0.0000
vn -0.0233 0.9990 -0.0389
vn -0.4748 0.8801 -0.0000
vn 0.0000 0.4184 0.9083
vn -0.0000 0.1388 0.9903
vn -0.4465 0.0564 -0.8930
vn -0.6628 0.3133 0.6801
# 131 vertex normals

vt 0.5758 0.9293 0.0000
vt 0.5657 0.9293 0.0000
vt 0.6162 0.9192 0.0000
vt 0.6667 0.6566 0.0000
vt 0.6263 0.6162 0.0000
vt 0.6869 0.6465 0.0000
vt 0.4646 0.7071 0.0000
vt 0.3434 0.6970 0.0000
vt 0.4747 0.6667 0.0000
vt 0.5152 0.7172 0.0000
vt 0.4848 0.6869 0.0000
vt 0.5152 0.7071 0.0000
vt 0.4848 0.6667 0.0000
vt 0.4747 0.5657 0.0000
vt 0.4949 0.5051 0.0000
vt 0.5152 0.4949 0.0000
vt 0.6465 0.6566 0.0000
vt 0.6162 0.6061 0.0000
vt 0.6263 0.9293 0.0000
vt 0.6465 0.9091 0.0000
vt 0.4141 0.9091 0.0000
vt 0.3737 0.8889 0.0000
vt 0.5455 0.7273 0.0000
vt 0.3434 0.6667 0.0000
vt 0.3535 0.5859 0.0000
vt 0.4545 0.5556 0.0000
vt 0.4545 0.6061 0.0000
vt 0.4242 0.5051 0.0000
vt 0.4646 0.6061 0.0000
vt 0.7273 0.8182 0.0000
vt 0.7273 0.8586 0.0000
vt 0.6566 0.7576 0.0000
vt 0.6667 0.8586 0.0000
vt 0.6465 0.8586 0.0000
vt 0.6465 0.7778 0.0000
vt 0.4949 0.4949 0.0000
vt 0.4646 0.5253 0.0000
vt 0.6667 0.9293 0.0000
vt 0.3434 0.7273 0.0000
vt 0.6667 0.8182 0.0000
vt 0.7273 0.8889 0.0000
vt 0.3232 0.4949 0.0000
vt 0.6465 0.5960 0.0000
vt 0.7273 0.7475 0.0000
vt 0.7071 0.7071 0.0000
vt 0.7071 0.6970 0.0000
vt 0.7475 0.9091 0.0000
vt 0.7475 0.8283 0.0000
vt 0.7172 0.9394 0.0000
vt 0.6667 0.9394 0.0000
vt 0.5960 0.7475 0.0000
vt 0.5859 0.7374 0.0000
vt 0.6263 0.7374 0.0000
vt 0.6667 0.7374 0.0000
vt 0.6162 0.7172 0.0000
vt 0.3333 0.8384 0.0000
vt 0.4848 0.5152 0.0000
vt 0.5758 0.7374 0.0000
vt 0.5556 0.7273 0.0000
vt 0.5051 0.9293 0.0000
vt 0.4242 0.9293 0.0000
vt 0.5556 0.5556 0.0000
vt 0.5556 0.5152 0.0000
vt 0.3535 0.5253 0.0000
vt 0.6465 0.5657 0.0000
vt 0.5657 0.5556 0.0000
vt 0.6364 0.5152 0.0000
vt 0.7374 0.9192 0.0000
vt 0.7374 0.9091 0.0000
vt 0.7273 0.7576 0.0000
vt 0.6364 0.8586 0.0000
vt 0.6364 0.8990 0.0000
vt 0.3131 0.8283 0.0000
vt 0.3131 0.7677 0.0000
vt 0.7071 0.6768 0.0000
vt 0.6869 0.6768 0.0000
vt 0.6566 0.8687 0.0000
vt 0.6465 0.8687 0.0000
vt 0.7172 0.9091 0.0000
vt 0.6667 0.7879 0.0000
vt 0.4848 0.5253 0.0000
vt 0.6364 0.7576 0.0000
vt 0.4646 0.6465 0.0000
vt 0.4747 0.6364 0.0000
vt 0.7475 0.7374 0.0000
vt 0.5859 0.9394 0.0000
vt 0.3333 0.7677 0.0000
vt 0.5657 0.5152 0.0000
vt 0.7374 0.8182 0.0000
vt 0.7071 0.9192 0.0000
vt 0.7172 0.9192 0.0000
vt 0.7475 0.7879 0.0000
vt 0.3333 0.6970 0.0000
vt 0.3434 0.5859 0.0000
vt 0.6970 0.6465 0.0000
vt 0.6465 0.5253 0.0000
# 96 texture coords

g default
usemtl _T2Mxuzhang_001_shandidefault
s 2
f 1/1/1 2/2/2 3/3/3 
f 4/4/4 5/5/5 6/6/6 
s 1
f 7/7/7 8/8/8 9/9/9 
s 4
f 10/10/10 11/11/11 12/12/12 
s 2
f 13/13/13 14/14/14 12/12/15 
f 12/12/15 15/15/16 16/16/16 
f 17/17/17 12/12/15 18/18/18 
s 4
f 19/19/19 3/3/19 20/20/20 
s 1
f 21/21/21 22/22/22 23/23/23 
f 9/9/9 24/24/24 25/25/25 
f 26/26/26 27/27/27 28/28/28 
s 4
f 29/29/29 27/27/30 26/26/31 
f 12/12/12 11/11/11 13/13/32 
s 2
f 30/30/33 31/31/34 32/32/35 
s 1
f 3/3/22 2/2/23 23/23/23 
s 2
f 33/33/36 34/34/37 35/35/38 
s 8
f 16/16/39 15/15/39 36/36/39 
s 1
f 37/37/40 28/28/28 36/36/41 
s 2
f 38/38/42 19/19/43 20/20/44 
s 1
f 7/7/7 39/39/45 8/8/8 
s 2
f 33/33/36 35/35/38 40/40/46 
f 41/41/47 33/33/36 40/40/46 
s 1
f 28/28/28 42/42/48 36/36/41 
s 2
f 6/6/6 5/5/5 43/43/49 
f 44/44/50 45/45/51 46/46/52 
f 47/47/53 30/30/33 48/48/54 
s 4
f 49/49/55 50/50/56 38/38/57 
s 2
f 47/47/53 31/31/34 30/30/33 
s 8
f 51/51/58 52/52/59 53/53/60 
s 2
f 54/54/61 55/55/62 45/45/51 
s 1
f 56/56/63 39/39/45 10/10/64 
s 4
f 29/29/29 26/26/31 14/14/65 
f 15/15/66 57/57/67 36/36/68 
f 58/58/69 23/23/70 59/59/69 
s 1
f 34/34/71 23/23/23 51/51/72 
f 60/60/23 61/61/21 23/23/23 
s 2
f 62/62/73 12/12/15 63/63/74 
s 1
f 25/25/25 64/64/75 27/27/27 
s 2
f 65/65/76 66/66/77 67/67/78 
f 68/68/79 41/41/47 69/69/80 
f 44/44/50 70/70/81 45/45/51 
f 70/70/81 54/54/61 45/45/51 
s 1
f 71/71/71 72/72/82 23/23/23 
s 4
f 20/20/20 72/72/83 71/71/84 
s 2
f 19/19/43 1/1/1 3/3/3 
s 1
f 73/73/82 74/74/85 56/56/63 
s 2
f 75/75/86 76/76/87 6/6/6 
s 8
f 77/77/88 78/78/89 34/34/90 
s 2
f 38/38/42 20/20/44 77/77/91 
f 68/68/79 79/79/92 41/41/47 
f 79/79/92 77/77/91 41/41/47 
f 18/18/18 12/12/15 62/62/73 
f 5/5/5 66/66/77 43/43/49 
s 4
f 59/59/69 23/23/70 12/12/12 
s 2
f 55/55/62 12/12/15 17/17/17 
f 80/80/93 35/35/38 32/32/35 
f 31/31/34 80/80/93 32/32/35 
f 12/12/15 14/14/14 81/81/16 
s 4
f 14/14/65 37/37/94 81/81/95 
s 1
f 34/34/71 51/51/72 35/35/96 
s 8
f 82/82/97 51/51/58 53/53/60 
s 1
f 9/9/9 25/25/25 83/83/98 
s 4
f 9/9/99 83/83/100 84/84/101 
s 2
f 85/85/16 44/44/50 46/46/52 
f 50/50/102 19/19/43 38/38/42 
f 50/50/102 86/86/103 19/19/43 
s 1
f 56/56/63 74/74/85 87/87/104 
f 26/26/26 28/28/28 37/37/40 
s 4
f 14/14/65 26/26/31 37/37/94 
s 2
f 65/65/76 43/43/49 66/66/77 
f 88/88/105 62/62/73 63/63/74 
f 66/66/77 88/88/105 67/67/78 
f 89/89/106 30/30/33 70/70/81 
f 30/30/33 32/32/35 70/70/81 
s 1
f 49/49/107 90/90/108 91/91/109 
s 2
f 13/13/13 84/84/110 14/14/14 
s 4
f 13/13/32 9/9/99 84/84/101 
s 2
f 89/89/106 70/70/81 92/92/111 
f 45/45/51 55/55/62 17/17/17 
f 46/46/52 45/45/51 76/76/87 
f 54/54/61 53/53/112 55/55/62 
f 32/32/35 82/82/113 53/53/112 
s 1
f 39/39/45 93/93/114 8/8/8 
s 2
f 20/20/44 78/78/115 77/77/91 
s 4
f 20/20/20 71/71/84 78/78/116 
s 1
f 23/23/23 22/22/22 56/56/63 
f 22/22/22 73/73/82 56/56/63 
s 2
f 12/12/15 16/16/16 63/63/74 
s 1
f 61/61/21 21/21/21 23/23/23 
f 72/72/82 3/3/22 23/23/23 
s 4
f 20/20/20 3/3/19 72/72/83 
s 1
f 24/24/24 94/94/117 25/25/25 
s 4
f 81/81/95 37/37/94 57/57/67 
s 1
f 57/57/118 37/37/40 36/36/41 
s 2
f 46/46/52 76/76/87 75/75/86 
s 4
f 49/49/55 38/38/57 90/90/119 
s 2
f 90/90/120 38/38/42 77/77/91 
f 18/18/18 62/62/73 66/66/77 
f 66/66/77 62/62/73 88/88/105 
s 1
f 2/2/23 60/60/23 23/23/23 
f 10/10/64 39/39/45 7/7/7 
f 10/10/64 7/7/7 11/11/121 
s 2
f 6/6/6 43/43/49 95/95/122 
f 75/75/86 6/6/6 95/95/122 
s 4
f 58/58/69 59/59/69 52/52/123 
s 2
f 52/52/124 59/59/16 12/12/15 
s 1
f 83/83/98 25/25/25 27/27/27 
s 4
f 84/84/101 83/83/100 27/27/30 
s 2
f 41/41/47 40/40/46 31/31/34 
f 69/69/80 41/41/47 31/31/34 
f 4/4/4 17/17/17 5/5/5 
f 76/76/87 45/45/51 17/17/17 
f 12/12/15 81/81/16 15/15/16 
s 4
f 81/81/95 57/57/67 15/15/66 
s 2
f 92/92/111 70/70/81 44/44/50 
f 92/92/111 44/44/50 85/85/16 
f 84/84/110 29/29/125 14/14/14 
s 4
f 84/84/101 27/27/30 29/29/29 
s 2
f 47/47/53 69/69/80 31/31/34 
s 4
f 23/23/70 10/10/10 12/12/12 
s 1
f 23/23/23 56/56/63 10/10/64 
s 2
f 48/48/54 89/89/106 92/92/111 
f 48/48/54 30/30/33 89/89/106 
f 32/32/35 35/35/38 82/82/113 
s 1
f 82/82/126 35/35/96 51/51/72 
s 2
f 40/40/46 35/35/38 80/80/93 
f 31/31/34 40/40/46 80/80/93 
f 65/65/76 67/67/78 96/96/127 
f 32/32/35 54/54/61 70/70/81 
f 32/32/35 53/53/112 54/54/61 
s 4
f 11/11/11 9/9/99 13/13/32 
s 1
f 7/7/7 9/9/9 11/11/121 
f 27/27/27 64/64/75 28/28/28 
f 64/64/75 42/42/48 28/28/28 
s 2
f 86/86/103 1/1/1 19/19/43 
s 1
f 39/39/45 56/56/63 87/87/104 
f 87/87/104 93/93/114 39/39/45 
s 2
f 77/77/91 34/34/37 33/33/36 
f 41/41/47 77/77/91 33/33/36 
s 4
f 68/68/128 91/91/128 79/79/128 
s 2
f 52/52/124 12/12/15 55/55/62 
f 53/53/112 52/52/124 55/55/62 
f 76/76/87 4/4/4 6/6/6 
f 76/76/87 17/17/17 4/4/4 
s 1
f 71/71/71 23/23/23 34/34/71 
s 8
f 78/78/89 71/71/129 34/34/90 
s 4
f 51/51/130 58/58/69 52/52/123 
s 1
f 51/51/72 23/23/23 58/58/16 
f 9/9/9 8/8/8 24/24/24 
s 2
f 79/79/92 90/90/120 77/77/91 
s 1
f 91/91/109 90/90/108 79/79/131 
s 2
f 17/17/17 18/18/18 5/5/5 
f 5/5/5 18/18/18 66/66/77 
# 0 polygons - 153 triangles

