# 3ds Max Wavefront OBJ Exporter v0.97b - (c)2007 guruware
# 创建的文件:28.06.2016 17:38:40

mtllib 111.mtl

#
# object default
#

v  -5.0725 9.8241 36.9565
v  -26.0870 9.9982 8.3333
v  -42.7536 9.9578 15.9420
v  -30.4348 9.9982 43.4783
v  -7.2464 9.9982 15.9420
v  -42.7536 9.9982 36.9565
v  -13.7681 9.9982 42.7536
v  -15.2174 9.9982 10.8696
v  -36.2319 9.9982 39.1304
v  -40.5797 9.9982 10.1449
v  -30.4348 9.9982 6.5217
v  -5.0725 9.9982 23.9130
v  -20.2899 9.9982 45.6522
v  -34.7826 9.9838 41.3044
v  -43.4783 9.9891 31.8841
v  -9.4203 9.9982 14.4928
v  -26.8116 9.9982 44.9275
v  -37.6812 9.9982 7.9710
v  -43.4783 9.8307 22.4638
v  -7.9710 9.9982 39.1304
# 20 vertices

vn -0.0007 1.0000 -0.0007
vn 0.0024 1.0000 0.0017
vn -0.0017 1.0000 0.0005
vn -0.0017 1.0000 0.0005
vn 0.0011 1.0000 -0.0006
vn 0.0036 1.0000 0.0037
vn -0.0067 1.0000 -0.0048
vn -0.0017 1.0000 0.0005
vn -0.0008 1.0000 0.0084
vn -0.0017 1.0000 0.0005
vn -0.0067 1.0000 -0.0048
vn -0.0050 1.0000 -0.0063
vn 0.0000 1.0000 -0.0000
vn -0.0379 0.9917 -0.1231
vn 0.0011 1.0000 -0.0006
vn -0.0017 1.0000 0.0005
vn 0.0036 1.0000 0.0037
vn 0.0000 1.0000 -0.0000
vn 0.0006 1.0000 0.0008
vn -0.0013 1.0000 -0.0006
vn -0.0017 1.0000 0.0005
vn 0.0052 0.9998 0.0167
vn -0.0008 1.0000 0.0084
vn 0.0007 1.0000 0.0058
vn -0.0008 1.0000 0.0084
vn 0.0000 1.0000 -0.0000
vn 0.0000 1.0000 -0.0000
vn 0.0011 1.0000 -0.0006
vn 0.0057 1.0000 -0.0063
vn 0.0036 1.0000 0.0037
vn 0.0000 1.0000 -0.0000
vn 0.0000 1.0000 -0.0000
vn 0.0011 1.0000 -0.0006
vn 0.0024 1.0000 0.0017
vn 0.0006 1.0000 0.0008
vn -0.0017 1.0000 0.0005
vn -0.0007 1.0000 -0.0007
vn -0.0017 1.0000 0.0005
vn -0.0050 1.0000 -0.0063
vn -0.0017 1.0000 0.0005
vn 0.0000 1.0000 -0.0000
vn 0.0000 1.0000 -0.0000
vn -0.0013 1.0000 -0.0006
vn 0.0011 1.0000 -0.0006
vn -0.0017 1.0000 0.0005
vn 0.0007 1.0000 0.0058
vn -0.0008 1.0000 0.0084
vn 0.0000 1.0000 -0.0000
vn 0.0052 0.9998 0.0167
vn -0.0067 1.0000 -0.0048
vn -0.0008 1.0000 0.0084
vn -0.0379 0.9917 -0.1231
vn 0.0057 1.0000 -0.0063
vn 0.0011 1.0000 -0.0006
# 54 vertex normals

vt 0.8551 0.3188 0.0000
vt 0.1014 0.7391 0.0000
vt 0.5217 0.1667 0.0000
vt 0.6087 0.8696 0.0000
vt 0.1449 0.3188 0.0000
vt 0.8551 0.7391 0.0000
vt 0.2754 0.8551 0.0000
vt 0.3043 0.2174 0.0000
vt 0.7246 0.7826 0.0000
vt 0.8116 0.2029 0.0000
vt 0.6087 0.1304 0.0000
vt 0.1014 0.4783 0.0000
vt 0.4058 0.9130 0.0000
vt 0.6957 0.8261 0.0000
vt 0.8696 0.6377 0.0000
vt 0.1884 0.2899 0.0000
vt 0.5362 0.8986 0.0000
vt 0.7536 0.1594 0.0000
vt 0.8696 0.4493 0.0000
vt 0.1594 0.7826 0.0000
# 20 texture coords

g default
usemtl _T2MTerraindefault
s 1
f 6/6/1 9/9/2 8/8/3 
f 8/8/4 17/17/5 12/12/6 
f 19/19/7 8/8/8 2/3/9 
f 8/8/10 19/19/11 15/15/12 
f 7/7/13 20/20/14 17/17/15 
f 8/8/16 12/12/17 5/5/18 
f 14/14/19 4/4/20 8/8/21 
f 3/1/22 2/3/23 10/10/24 
f 2/3/25 11/11/26 18/18/27 
f 17/17/28 1/2/29 12/12/30 
f 13/13/31 7/7/32 17/17/33 
f 9/9/34 14/14/35 8/8/36 
f 6/6/37 8/8/38 15/15/39 
f 8/8/40 5/5/41 16/16/42 
f 4/4/43 17/17/44 8/8/45 
f 10/10/46 2/3/47 18/18/48 
f 3/1/49 19/19/50 2/3/51 
f 20/20/52 1/2/53 17/17/54 
# 18 faces

