# 3ds Max Wavefront OBJ Exporter v0.97b - (c)2007 guruware
# File Created: 27.06.2016 21:06:08

mtllib T2Mshandi_002_shanjiaopingdi.mtl

#
# object shandi_002_shanjiaopingdi
#

v  -35.6757 7.3979 57.9730
v  -11.8919 7.3979 53.5135
v  -46.0811 7.3979 50.5405
v  -95.1351 14.7409 43.1081
v  -71.3513 14.7409 10.4054
v  -81.7568 14.7409 10.4054
v  -78.7838 14.7409 44.5946
v  -68.3784 14.6267 44.5946
v  -69.8649 14.7374 40.1351
v  -11.8919 7.3979 31.2162
v  -26.7568 7.3979 25.2703
v  -28.2432 7.3979 26.7568
v  -60.9459 11.8615 35.6757
v  -59.4595 11.3225 31.2162
v  -63.9189 12.9750 32.7027
v  -31.2162 7.3979 26.7568
v  -47.5676 7.3979 40.1351
v  -69.8649 14.7409 13.3784
v  -69.8649 14.7409 34.1892
v  -11.8919 7.3979 37.1622
v  -22.2973 7.3979 57.9730
v  -59.4595 11.5364 37.1622
v  -56.4865 10.2135 32.7027
v  -2.9730 7.3979 38.6487
v  -10.4054 7.3979 38.6487
v  -104.0540 14.7409 41.6216
v  -105.5405 14.7409 22.2973
v  -105.5405 14.7409 29.7297
v  -101.0811 14.7409 11.8919
v  -43.1081 7.3979 28.2432
v  -47.5676 7.3870 29.7297
v  -49.0541 7.6414 43.1081
v  -49.0541 7.7572 35.6757
v  -5.9459 7.3979 49.0541
v  -107.0270 14.7409 22.2973
v  -107.0270 14.7410 13.3784
v  -13.3784 7.3979 26.7568
v  -16.3514 7.3979 25.2703
v  -46.0811 7.3980 59.4595
v  -37.1622 7.3370 59.4595
v  -34.1892 7.3979 26.7568
v  -41.6216 7.3980 26.7568
v  -19.3243 7.3979 57.9730
v  -16.3514 7.3682 59.4595
v  -13.3784 7.3979 59.4595
v  -10.4054 7.0787 56.4865
v  -10.4054 7.3979 55.0000
v  -20.8108 7.3979 25.2703
v  -105.5405 14.7410 38.6487
v  -53.5135 9.4023 34.1892
v  -52.0270 8.9480 41.6216
v  -50.5405 8.3823 32.7027
v  -57.9730 10.8200 43.1081
v  -55.0000 9.5953 43.1081
v  -56.4865 10.2021 41.6216
v  -98.1081 14.7305 10.4054
v  -19.3243 7.0099 59.4595
v  -53.5135 9.4325 32.7027
v  -50.5405 8.5991 29.7297
v  -53.5135 9.5617 29.7297
v  -66.8919 14.0820 43.1081
v  -68.3784 14.6257 38.6487
v  -68.3784 14.6271 29.7297
v  -68.3784 14.6261 13.3784
v  -46.0811 7.3980 28.2432
v  -11.8919 7.2651 26.7568
v  -16.3514 7.3487 23.7838
v  -87.7027 14.7409 10.4054
v  -2.9730 7.3979 49.0541
v  -62.4324 12.3540 43.1081
v  -57.9730 10.8202 41.6216
v  -63.9189 12.8058 41.6216
v  -63.9189 12.9290 40.1351
v  -29.7297 7.0030 25.2703
v  -105.5405 14.7410 41.6216
v  -66.8919 14.0931 34.1892
v  -19.3243 7.2925 23.7838
v  -56.4865 10.5045 37.1622
v  -53.5135 9.4181 40.1351
v  -104.0540 14.7410 43.1081
v  -105.5405 14.7112 11.8919
v  -49.0541 7.5974 44.5946
v  -10.4054 7.3980 37.1622
v  -47.5676 7.3980 50.5405
v  -47.5676 7.3796 44.5946
v  -13.3784 7.3841 25.2703
v  -8.9189 6.1136 55.0000
v  -99.5946 14.5518 10.4054
v  -62.4324 12.4881 40.1351
v  -63.9189 12.8375 37.1622
v  -66.8919 13.8877 37.1622
v  -69.8649 14.5776 10.4054
v  -57.9730 10.9934 40.1351
v  -22.2973 7.3980 59.4595
v  -104.0540 14.7409 35.6757
v  -53.5135 9.3434 43.1081
v  -71.3513 14.7409 40.1351
v  -68.3784 14.6259 35.6757
v  -31.2162 7.3217 25.2703
v  -8.9189 7.0203 53.5135
v  -63.9189 12.7622 29.7297
v  -84.7297 14.7409 11.8919
v  -49.0541 7.8181 29.7297
v  -8.9189 7.3801 52.0270
v  -105.5405 14.4162 37.1622
v  -56.4865 10.2615 29.7297
v  -95.1351 14.7410 44.5946
v  -84.7297 14.5538 10.4054
v  -32.7027 7.2049 25.2703
v  -105.5405 14.7535 35.6757
# 110 vertices

vn -0.0061 0.9999 0.0085
vn 0.0010 1.0000 0.0003
vn -0.0001 1.0000 0.0001
vn 0.0000 1.0000 -0.0000
vn 0.0386 0.9991 -0.0193
vn -0.0093 0.9998 -0.0185
vn 0.0017 1.0000 0.0032
vn 0.1351 0.9908 0.0111
vn 0.0278 0.9994 -0.0222
vn 0.0091 1.0000 -0.0030
vn -0.0330 0.9989 -0.0330
vn -0.0327 0.9973 -0.0656
vn 0.3154 0.9484 -0.0327
vn 0.3343 0.9423 -0.0181
vn 0.3516 0.9358 -0.0248
vn 0.0264 0.9983 -0.0520
vn 0.0960 0.9954 0.0066
vn 0.0365 0.9993 -0.0054
vn 0.0390 0.9992 0.0026
vn 0.0305 0.9992 0.0256
vn 0.3088 0.9506 -0.0310
vn 0.2986 0.9543 -0.0108
vn 0.0000 1.0000 0.0000
vn 0.0000 1.0000 -0.0001
vn -0.0079 0.9997 -0.0213
vn -0.0007 1.0000 0.0003
vn 0.1085 0.9941 0.0036
vn 0.2717 0.9619 0.0314
vn 0.3097 0.9508 0.0043
vn 0.0006 1.0000 0.0009
vn -0.0015 1.0000 -0.0061
vn 0.0247 0.9996 -0.0101
vn 0.0005 0.9999 -0.0120
vn 0.0068 1.0000 -0.0000
vn -0.0091 0.9998 0.0159
vn -0.0064 0.9997 -0.0231
vn -0.0000 1.0000 0.0000
vn -0.0199 0.9937 0.1101
vn -0.0176 0.9989 0.0427
vn 0.0192 0.9997 0.0160
vn 0.4113 0.8912 0.1914
vn 0.3029 0.9436 0.1338
vn -0.0022 0.9999 -0.0133
vn -0.0744 0.9965 -0.0372
vn 0.3087 0.9511 -0.0073
vn 0.3414 0.9390 0.0421
vn 0.3606 0.9324 0.0264
vn 0.3541 0.9352 -0.0007
vn 0.2170 0.9604 0.1750
vn 0.3433 0.9381 0.0462
vn -0.0173 0.9992 -0.0367
vn -0.0387 0.9757 0.2159
vn 0.2905 0.9563 0.0339
vn 0.3923 0.9179 0.0600
vn 0.2747 0.9609 0.0352
vn 0.3566 0.9342 -0.0041
vn 0.2187 0.9756 -0.0180
vn 0.1726 0.9850 -0.0085
vn 0.0770 0.9970 -0.0001
vn 0.0000 1.0000 0.0074
vn 0.0889 0.9956 -0.0296
vn -0.0039 0.9990 -0.0447
vn 0.0090 0.9998 -0.0188
vn 0.3282 0.9438 -0.0377
vn 0.3524 0.9343 0.0532
vn 0.3611 0.9323 0.0204
vn 0.3294 0.9441 0.0118
vn 0.0196 0.9843 -0.1754
vn 0.0001 1.0000 -0.0000
vn 0.3489 0.9369 0.0205
vn -0.0188 0.9958 -0.0894
vn 0.3289 0.9443 -0.0088
vn 0.2959 0.9550 0.0186
vn -0.0067 0.9996 -0.0267
vn 0.1602 0.9870 0.0093
vn 0.0001 1.0000 -0.0031
vn 0.0307 0.9995 0.0037
vn 0.0047 0.9999 -0.0093
vn 0.6178 0.7151 0.3270
vn -0.1159 0.9642 -0.2385
vn 0.3000 0.9530 0.0431
vn 0.3181 0.9480 0.0069
vn 0.3793 0.9253 0.0002
vn 0.1090 0.9925 -0.0545
vn 0.3559 0.9325 0.0606
vn 0.1294 0.9916 -0.0001
vn -0.0335 0.9993 -0.0168
vn 0.2774 0.9579 0.0748
vn 0.0077 1.0000 -0.0029
vn 0.2303 0.9729 0.0197
vn 0.0940 0.9928 -0.0741
vn 0.4902 0.8252 0.2806
vn 0.3548 0.9327 -0.0639
vn 0.0000 0.9990 -0.0441
vn 0.3586 0.9330 0.0287
vn 0.0710 0.9965 0.0445
vn -0.3925 0.8985 -0.1963
vn 0.2832 0.9590 0.0079
vn 0.0000 0.9922 -0.1249
vn -0.0767 0.9761 -0.2034
vn 0.0084 0.9939 0.1102
vn 0.0085 0.9966 0.0824
vn 0.0085 1.0000 -0.0021
vn 0.0083 0.9752 0.2213
# 104 vertex normals

vt 0.3243 0.5270 0.0000
vt 0.1081 0.4865 0.0000
vt 0.4189 0.4595 0.0000
vt 0.8649 0.3919 0.0000
vt 0.6486 0.0946 0.0000
vt 0.7432 0.0946 0.0000
vt 0.7162 0.4054 0.0000
vt 0.6216 0.4054 0.0000
vt 0.6351 0.3649 0.0000
vt 0.1081 0.2838 0.0000
vt 0.2432 0.2297 0.0000
vt 0.2568 0.2432 0.0000
vt 0.5541 0.3243 0.0000
vt 0.5405 0.2838 0.0000
vt 0.5811 0.2973 0.0000
vt 0.2838 0.2432 0.0000
vt 0.4324 0.3649 0.0000
vt 0.6351 0.1216 0.0000
vt 0.6351 0.3108 0.0000
vt 0.1081 0.3378 0.0000
vt 0.2027 0.5270 0.0000
vt 0.5405 0.3378 0.0000
vt 0.5135 0.2973 0.0000
vt 0.0270 0.3514 0.0000
vt 0.0946 0.3514 0.0000
vt 0.9459 0.3784 0.0000
vt 0.9595 0.2027 0.0000
vt 0.9595 0.2703 0.0000
vt 0.9189 0.1081 0.0000
vt 0.3919 0.2568 0.0000
vt 0.4324 0.2703 0.0000
vt 0.4459 0.3919 0.0000
vt 0.4459 0.3243 0.0000
vt 0.0541 0.4459 0.0000
vt 0.9730 0.2027 0.0000
vt 0.9730 0.1216 0.0000
vt 0.1216 0.2432 0.0000
vt 0.1486 0.2297 0.0000
vt 0.4189 0.5405 0.0000
vt 0.3378 0.5405 0.0000
vt 0.3108 0.2432 0.0000
vt 0.3784 0.2432 0.0000
vt 0.1757 0.5270 0.0000
vt 0.1486 0.5405 0.0000
vt 0.1216 0.5405 0.0000
vt 0.0946 0.5135 0.0000
vt 0.0946 0.5000 0.0000
vt 0.1892 0.2297 0.0000
vt 0.9595 0.3514 0.0000
vt 0.4865 0.3108 0.0000
vt 0.4730 0.3784 0.0000
vt 0.4595 0.2973 0.0000
vt 0.5270 0.3919 0.0000
vt 0.5000 0.3919 0.0000
vt 0.5135 0.3784 0.0000
vt 0.8919 0.0946 0.0000
vt 0.1757 0.5405 0.0000
vt 0.4865 0.2973 0.0000
vt 0.4595 0.2703 0.0000
vt 0.4865 0.2703 0.0000
vt 0.6081 0.3919 0.0000
vt 0.6216 0.3514 0.0000
vt 0.6216 0.2703 0.0000
vt 0.6216 0.1216 0.0000
vt 0.4189 0.2568 0.0000
vt 0.1081 0.2432 0.0000
vt 0.1486 0.2162 0.0000
vt 0.7973 0.0946 0.0000
vt 0.0270 0.4459 0.0000
vt 0.5676 0.3919 0.0000
vt 0.5270 0.3784 0.0000
vt 0.5811 0.3784 0.0000
vt 0.5811 0.3649 0.0000
vt 0.2703 0.2297 0.0000
vt 0.9595 0.3784 0.0000
vt 0.6081 0.3108 0.0000
vt 0.1757 0.2162 0.0000
vt 0.5135 0.3378 0.0000
vt 0.4865 0.3649 0.0000
vt 0.9459 0.3919 0.0000
vt 0.9595 0.1081 0.0000
vt 0.4459 0.4054 0.0000
vt 0.0946 0.3378 0.0000
vt 0.4324 0.4595 0.0000
vt 0.4324 0.4054 0.0000
vt 0.1216 0.2297 0.0000
vt 0.0811 0.5000 0.0000
vt 0.9054 0.0946 0.0000
vt 0.5676 0.3649 0.0000
vt 0.5811 0.3378 0.0000
vt 0.6081 0.3378 0.0000
vt 0.6351 0.0946 0.0000
vt 0.5270 0.3649 0.0000
vt 0.2027 0.5405 0.0000
vt 0.9459 0.3243 0.0000
vt 0.4865 0.3919 0.0000
vt 0.6486 0.3649 0.0000
vt 0.6216 0.3243 0.0000
vt 0.2838 0.2297 0.0000
vt 0.0811 0.4865 0.0000
vt 0.5811 0.2703 0.0000
vt 0.7703 0.1081 0.0000
vt 0.4459 0.2703 0.0000
vt 0.0811 0.4730 0.0000
vt 0.9595 0.3378 0.0000
vt 0.5135 0.2703 0.0000
vt 0.8649 0.4054 0.0000
vt 0.7703 0.0946 0.0000
vt 0.2973 0.2297 0.0000
vt 0.9595 0.3243 0.0000
# 110 texture coords

g shandi_002_shanjiaopingdi
usemtl _T2Mshandi_002_shanjiaopingdidefault
s 2
f 1/1/1 2/2/2 3/3/3 
f 4/4/4 5/5/5 6/6/6 
f 7/7/7 8/8/8 9/9/9 
f 10/10/10 11/11/11 12/12/12 
f 13/13/13 14/14/14 15/15/15 
f 16/16/16 17/17/17 10/10/10 
f 18/18/18 7/7/7 19/19/19 
f 17/17/17 2/2/2 20/20/4 
f 1/1/1 21/21/20 2/2/2 
f 22/22/21 23/23/22 13/13/13 
f 2/2/2 24/24/4 25/25/4 
f 26/26/4 4/4/4 6/6/6 
f 27/27/23 28/28/24 29/29/25 
f 17/17/17 30/30/26 31/31/27 
f 32/32/28 17/17/17 33/33/29 
f 34/34/30 24/24/4 2/2/2 
f 35/35/23 29/29/25 36/36/31 
f 10/10/10 37/37/32 38/38/33 
f 39/39/34 40/40/35 3/3/3 
f 17/17/17 41/41/36 42/42/37 
f 43/43/38 44/44/39 2/2/2 
f 4/4/4 18/18/18 5/5/5 
f 3/3/3 2/2/2 17/17/17 
f 45/45/40 46/46/41 47/47/42 
f 10/10/10 38/38/33 48/48/43 
f 26/26/4 6/6/6 49/49/44 
f 50/50/45 51/51/46 52/52/47 
f 53/53/48 54/54/49 55/55/50 
f 28/28/24 56/56/51 29/29/25 
f 57/57/52 44/44/39 43/43/38 
f 58/58/53 59/59/54 60/60/55 
f 2/2/2 25/25/4 20/20/4 
f 40/40/35 1/1/1 3/3/3 
f 8/8/8 61/61/56 62/62/57 
f 18/18/18 63/63/58 64/64/59 
f 31/31/27 30/30/26 65/65/60 
f 10/10/10 66/66/61 37/37/32 
f 7/7/7 18/18/18 4/4/4 
f 48/48/43 38/38/33 67/67/62 
f 51/51/46 32/32/28 33/33/29 
f 28/28/24 68/68/63 56/56/51 
f 34/34/30 69/69/4 24/24/4 
f 70/70/64 71/71/65 72/72/66 
f 62/62/57 61/61/56 73/73/67 
f 12/12/12 11/11/11 74/74/68 
s 4
f 75/75/69 26/26/69 49/49/69 
s 2
f 76/76/70 13/13/13 15/15/15 
f 19/19/19 63/63/58 18/18/18 
f 48/48/43 67/67/62 77/77/71 
f 78/78/72 79/79/73 50/50/45 
f 78/78/72 50/50/45 23/23/22 
f 80/80/24 4/4/4 26/26/4 
f 36/36/31 29/29/25 81/81/74 
f 82/82/75 17/17/17 32/32/28 
s 16
f 25/25/3 83/83/3 20/20/3 
s 2
f 84/84/76 3/3/3 85/85/77 
f 17/17/17 42/42/37 30/30/26 
f 37/37/32 86/86/78 38/38/33 
f 35/35/23 27/27/23 29/29/25 
f 46/46/41 87/87/79 47/47/42 
f 29/29/25 56/56/51 88/88/80 
f 89/89/81 22/22/21 90/90/82 
f 62/62/57 73/73/67 91/91/83 
f 5/5/5 18/18/18 92/92/84 
f 76/76/70 15/15/15 63/63/58 
f 71/71/65 93/93/85 89/89/81 
f 55/55/50 79/79/73 78/78/72 
f 94/94/86 57/57/52 21/21/20 
f 49/49/44 6/6/6 95/95/87 
f 55/55/50 96/96/88 79/79/73 
f 96/96/88 32/32/28 51/51/46 
f 7/7/7 9/9/9 97/97/89 
f 19/19/19 98/98/90 63/63/58 
f 33/33/29 17/17/17 31/31/27 
f 16/16/16 74/74/68 99/99/91 
f 61/61/56 70/70/64 72/72/66 
f 47/47/42 87/87/79 100/100/92 
f 45/45/40 47/47/42 2/2/2 
f 17/17/17 16/16/16 41/41/36 
f 41/41/36 16/16/16 99/99/91 
f 23/23/22 58/58/53 60/60/55 
f 13/13/13 23/23/22 14/14/14 
f 91/91/83 73/73/67 90/90/82 
f 91/91/83 90/90/82 76/76/70 
f 15/15/15 14/14/14 101/101/93 
f 63/63/58 15/15/15 101/101/93 
f 102/102/94 28/28/24 6/6/6 
f 44/44/39 45/45/40 2/2/2 
f 95/95/87 6/6/6 28/28/24 
f 51/51/46 33/33/29 52/52/47 
f 33/33/29 31/31/27 103/103/95 
f 11/11/11 10/10/10 48/48/43 
f 47/47/42 100/100/92 104/104/96 
f 97/97/89 62/62/57 98/98/90 
f 62/62/57 91/91/83 98/98/90 
f 105/105/97 49/49/44 95/95/87 
f 55/55/50 78/78/72 93/93/85 
f 89/89/81 93/93/85 78/78/72 
f 17/17/17 20/20/4 10/10/10 
f 72/72/66 71/71/65 89/89/81 
f 73/73/67 89/89/81 90/90/82 
f 23/23/22 60/60/55 106/106/98 
f 58/58/53 52/52/47 59/59/54 
f 54/54/49 96/96/88 55/55/50 
f 107/107/24 7/7/7 4/4/4 
f 76/76/70 90/90/82 13/13/13 
f 90/90/82 22/22/21 13/13/13 
f 102/102/94 108/108/99 68/68/63 
f 28/28/24 102/102/94 68/68/63 
f 85/85/77 3/3/3 17/17/17 
f 82/82/75 85/85/77 17/17/17 
f 50/50/45 52/52/47 58/58/53 
f 23/23/22 50/50/45 58/58/53 
f 70/70/64 53/53/48 71/71/65 
f 8/8/8 62/62/57 9/9/9 
f 97/97/89 9/9/9 62/62/57 
f 102/102/94 6/6/6 108/108/99 
f 22/22/21 78/78/72 23/23/22 
f 89/89/81 78/78/72 22/22/21 
f 16/16/16 10/10/10 12/12/12 
f 16/16/16 12/12/12 74/74/68 
f 41/41/36 99/99/91 109/109/100 
f 79/79/73 51/51/46 50/50/45 
f 96/96/88 51/51/46 79/79/73 
f 71/71/65 55/55/50 93/93/85 
f 53/53/48 55/55/50 71/71/65 
f 97/97/89 19/19/19 7/7/7 
f 97/97/89 98/98/90 19/19/19 
f 47/47/42 104/104/96 2/2/2 
f 2/2/2 104/104/96 34/34/30 
f 61/61/56 72/72/66 73/73/67 
f 72/72/66 89/89/81 73/73/67 
f 43/43/38 2/2/2 21/21/20 
f 57/57/52 43/43/38 21/21/20 
s 1
f 110/110/101 95/95/102 28/28/103 
f 105/105/104 95/95/102 110/110/101 
s 2
f 14/14/14 106/106/98 101/101/93 
f 14/14/14 23/23/22 106/106/98 
f 98/98/90 76/76/70 63/63/58 
f 98/98/90 91/91/83 76/76/70 
f 52/52/47 33/33/29 103/103/95 
f 52/52/47 103/103/95 59/59/54 
# 0 polygons - 142 triangles

